<?xml version="1.0" encoding="utf-8"?>
<!-- Generator: Moho 12.2 build 21774 -->
<!DOCTYPE svg PUBLIC "-//W3C//DTD SVG 1.1//EN" "http://www.w3.org/Graphics/SVG/1.1/DTD/svg11.dtd">
<svg version="1.1" id="Frame_0" xmlns="http://www.w3.org/2000/svg" xmlns:xlink="http://www.w3.org/1999/xlink" width="100px" height="100px">
<g id="Layer_1">
<path fill="#602624" fill-rule="evenodd" stroke="#000000" stroke-width="1" stroke-linecap="round" stroke-linejoin="round" d="M 13.197 81.245 C 13.204 81.245 86.082 81.245 86.089 81.245 C 86.089 81.238 86.089 14.784 86.089 14.777 C 86.082 14.777 13.204 14.777 13.197 14.777 C 13.197 14.784 13.197 81.238 13.197 81.245 Z"/>
<path fill="#2c1010" fill-rule="evenodd" stroke="#000000" stroke-width="1" stroke-linecap="round" stroke-linejoin="round" d="M 16.077 79.029 C 16.084 79.029 82.759 79.029 82.766 79.029 C 82.766 79.023 82.766 17.221 82.766 17.215 C 82.759 17.215 16.084 17.215 16.077 17.215 C 16.077 17.221 16.077 79.023 16.077 79.029 Z"/>
</g>
<g id="Layer_4">
<path fill="#bb8885" fill-rule="evenodd" stroke="#000000" stroke-width="1" stroke-linecap="round" stroke-linejoin="round" d="M 49.532 90.329 C 71.442 90.053 90.748 71.786 90.520 46.793 C 90.299 22.527 71.467 5.370 50.197 5.029 C 28.068 4.675 7.372 22.212 7.215 47.457 C 7.058 72.637 27.460 90.606 49.532 90.329 Z"/>
<path fill="#ffffff" fill-rule="evenodd" stroke="#000000" stroke-width="1" stroke-linecap="round" stroke-linejoin="round" d="M 49.683 84.582 C 68.512 84.345 85.104 68.647 84.908 47.167 C 84.718 26.313 68.534 11.569 50.254 11.276 C 31.237 10.971 13.451 26.043 13.315 47.738 C 13.181 69.378 30.714 84.821 49.683 84.582 Z"/>
</g>
<g id="Layer_2">
<path fill="none" stroke="#000000" stroke-width="1" stroke-linecap="round" stroke-linejoin="round" d="M 3.217 47.127 C 3.093 57.209 10.962 72.087 11.218 72.061 M 10.992 24.384 C 10.991 24.386 3.331 37.874 3.217 47.127 M 24.168 8.745 C 24.170 8.744 38.873 1.299 49.308 1.263 C 59.782 1.226 74.589 8.601 74.591 8.603 M 87.833 24.646 C 87.834 24.648 95.148 37.998 95.399 47.127 C 95.672 57.075 88.381 72.000 88.379 72.003 "/>
<path fill="none" stroke="#000000" stroke-width="1" stroke-linecap="round" stroke-linejoin="round" d="M 18.973 66.647 C 18.972 66.646 12.608 55.012 12.705 47.114 C 12.794 39.865 18.795 29.298 18.795 29.297 "/>
<path fill="none" stroke="#000000" stroke-width="1" stroke-linecap="round" stroke-linejoin="round" d="M 79.836 66.647 C 79.837 66.646 86.202 55.012 86.105 47.114 C 86.016 39.865 80.015 29.298 80.014 29.297 "/>
<path fill="none" stroke="#000000" stroke-width="1" stroke-linecap="round" stroke-linejoin="round" d="M 49.581 8.920 C 41.173 8.963 29.327 14.948 29.325 14.949 M 70.168 14.834 C 70.166 14.833 58.102 8.876 49.581 8.920 "/>
<path fill="#debcbb" fill-rule="evenodd" stroke="#000000" stroke-width="1" stroke-linecap="round" stroke-linejoin="round" d="M 18.973 66.647 C 18.972 66.646 12.608 55.012 12.705 47.114 C 12.794 39.865 18.795 29.298 18.795 29.297 C 18.795 29.296 10.993 24.385 10.992 24.384 C 10.991 24.386 3.331 37.874 3.217 47.127 C 3.093 57.209 10.962 72.087 11.218 72.061 C 11.316 72.086 18.972 66.648 18.973 66.647 Z"/>
<path fill="#debcbb" fill-rule="evenodd" stroke="#000000" stroke-width="1" stroke-linecap="round" stroke-linejoin="round" d="M 70.168 14.834 C 70.166 14.833 58.102 8.876 49.581 8.920 C 41.173 8.963 29.327 14.948 29.325 14.949 C 29.324 14.948 24.169 8.746 24.168 8.745 C 24.170 8.744 38.873 1.299 49.308 1.263 C 59.782 1.226 74.589 8.601 74.591 8.603 C 74.591 8.603 70.168 14.833 70.168 14.834 Z"/>
<path fill="#debcbb" fill-rule="evenodd" stroke="#000000" stroke-width="1" stroke-linecap="round" stroke-linejoin="round" d="M 79.836 66.647 C 79.837 66.646 86.202 55.012 86.105 47.114 C 86.016 39.865 80.015 29.298 80.014 29.297 C 80.014 29.296 87.832 24.646 87.833 24.646 C 87.834 24.648 95.148 37.998 95.399 47.127 C 95.672 57.075 88.381 72.000 88.379 72.003 C 88.378 72.002 79.837 66.648 79.836 66.647 Z"/>
<path fill="#debcbb" fill-rule="evenodd" stroke="#000000" stroke-width="1" stroke-linecap="round" stroke-linejoin="round" d="M 17.406 71.939 C 17.407 71.940 20.519 74.212 21.451 75.544 C 22.108 76.482 22.827 77.926 22.921 79.067 C 23.032 80.420 21.838 83.460 21.837 83.460 C 21.838 83.460 25.572 84.001 27.042 84.633 C 28.805 85.392 31.034 86.816 32.328 88.232 C 33.484 89.497 35.131 93.208 35.131 93.209 C 35.131 93.209 39.403 92.594 41.192 92.930 C 42.581 93.191 44.323 94.038 45.520 94.790 C 46.875 95.641 49.532 98.304 49.532 98.305 C 49.532 98.304 51.575 96.159 52.621 95.455 C 53.790 94.669 55.517 93.833 56.879 93.473 C 59.122 92.880 64.597 92.987 64.598 92.987 C 64.598 92.987 65.396 89.796 66.222 88.695 C 67.328 87.221 69.543 85.907 71.194 85.090 C 72.702 84.344 76.562 83.460 76.562 83.460 C 76.562 83.460 76.104 79.512 76.606 77.930 C 77.002 76.682 78.179 75.292 79.043 74.307 C 79.678 73.581 81.436 72.161 81.436 72.161 C 81.436 72.161 75.858 71.330 73.548 71.850 C 69.453 72.772 64.636 76.098 61.365 78.727 C 58.953 80.665 54.407 86.340 54.406 86.340 C 54.405 86.341 44.437 86.784 44.436 86.784 C 44.435 86.783 38.437 78.567 34.923 76.106 C 32.236 74.224 28.036 72.550 24.813 71.937 C 22.630 71.522 17.407 71.939 17.406 71.939 Z"/>
<path fill="#b48281" fill-rule="evenodd" stroke="#000000" stroke-width="1" stroke-linecap="round" stroke-linejoin="round" d="M 49.559 91.890 C 52.947 91.890 55.193 89.168 55.193 86.340 C 55.193 83.512 52.947 80.790 49.559 80.790 C 46.170 80.790 43.924 83.512 43.924 86.340 C 43.924 89.168 46.170 91.890 49.559 91.890 Z"/>
</g>
</svg>
