<?xml version="1.0" encoding="utf-8"?>
<!-- Generator: Moho 12.2 build 21774 -->
<!DOCTYPE svg PUBLIC "-//W3C//DTD SVG 1.1//EN" "http://www.w3.org/Graphics/SVG/1.1/DTD/svg11.dtd">
<svg version="1.1" id="Frame_0" xmlns="http://www.w3.org/2000/svg" xmlns:xlink="http://www.w3.org/1999/xlink" width="500px" height="200px">
	<g id="Layer_1">
		<path fill="#FBF264" fill-rule="evenodd" stroke="#444" d="M 55.017 191.110 C 55.146 190.979 54.825 190.713 54.735 190.547 C 54.489 190.090 53.885 189.572 53.862 189.053 C 53.840 188.570 54.407 188.055 54.538 187.589 C 54.708 186.983 54.931 186.110 54.763 185.504 C 54.629 185.020 54.228 184.373 53.777 184.152 C 53.360 183.947 52.608 183.913 52.228 184.180 C 51.971 184.360 52.077 184.981 51.805 185.138 C 51.637 185.235 51.350 185.138 51.157 185.110 C 50.837 185.062 50.437 184.790 50.115 184.828 C 49.379 184.914 48.394 185.506 48.030 186.152 C 47.673 186.785 47.585 187.960 47.974 188.575 C 48.346 189.163 49.412 189.363 50.087 189.532 C 50.973 189.755 52.297 189.324 53.129 189.701 C 53.494 189.867 53.790 190.369 54.115 190.603 C 54.367 190.784 54.799 191.331 55.017 191.110 M 46.326 182.856 C 46.438 182.841 46.557 182.577 46.574 182.430 C 46.683 181.504 45.738 180.408 45.226 179.628 C 44.119 177.940 42.392 175.762 40.722 174.628 C 38.793 173.316 35.703 172.424 33.416 171.967 C 32.506 171.786 31.208 171.455 30.330 171.755 C 29.986 171.872 29.306 172.142 29.373 172.499 C 29.431 172.810 30.074 172.732 30.366 172.854 C 30.726 173.005 31.257 173.149 31.536 173.422 C 32.260 174.127 32.470 175.586 32.884 176.507 C 32.999 176.763 33.076 177.159 33.274 177.358 C 33.536 177.622 34.044 177.787 34.409 177.855 C 35.280 178.018 36.468 177.655 37.353 177.607 C 37.704 177.587 38.225 177.386 38.523 177.571 C 38.608 177.624 38.711 177.755 38.701 177.855 C 38.669 178.166 38.109 178.283 37.849 178.458 C 37.369 178.780 36.655 179.107 36.218 179.486 C 36.024 179.654 35.666 179.869 35.650 180.125 C 35.636 180.354 35.874 180.652 36.076 180.763 C 36.675 181.093 37.669 180.649 38.346 180.550 C 39.097 180.441 40.069 180.066 40.828 180.054 C 41.757 180.039 43.046 180.173 43.879 180.586 C 44.520 180.904 45.134 181.688 45.652 182.182 C 45.859 182.379 46.042 182.891 46.326 182.856 M 18.322 180.335 C 18.401 180.073 18.661 179.890 18.879 179.839 C 19.634 179.665 20.714 180.315 21.245 180.880 C 22.241 181.940 22.849 184.074 22.664 185.517 C 22.454 187.150 21.095 189.233 19.731 190.154 C 18.674 190.867 16.826 191.206 15.567 191.005 C 13.172 190.623 10.191 188.606 8.754 186.652 C 7.358 184.755 6.402 181.422 6.672 179.082 C 6.950 176.672 8.824 173.689 10.552 171.985 C 12.532 170.034 16.085 168.393 18.784 167.727 C 21.844 166.973 26.206 167.072 29.288 167.727 C 33.103 168.538 38.086 170.666 41.116 173.121 C 43.605 175.136 46.001 178.835 47.551 181.637 C 47.908 182.283 48.442 183.172 48.497 183.908 C 48.505 184.015 48.528 184.199 48.440 184.260 C 48.096 184.497 47.643 183.680 47.253 183.530 C 46.915 183.399 46.429 183.290 46.067 183.302 C 45.340 183.325 44.282 183.501 43.740 183.986 C 42.839 184.792 42.239 186.573 42.371 187.774 C 42.518 189.121 43.772 190.720 44.835 191.561 C 45.616 192.180 46.963 192.543 47.938 192.748 C 49.453 193.067 51.604 192.513 53.094 192.930 C 54.097 193.211 55.328 193.937 56.152 194.573 C 56.589 194.911 56.889 195.787 57.430 195.897 C 57.655 195.942 58.048 195.869 58.160 195.668 C 58.384 195.266 57.756 194.673 57.567 194.254 C 57.221 193.490 56.493 192.568 56.335 191.744 C 56.189 190.989 56.324 189.932 56.517 189.188 C 56.808 188.068 57.748 186.783 58.206 185.720 C 58.541 184.940 59.131 183.919 59.209 183.074 C 59.283 182.285 59.205 181.123 58.753 180.472 C 58.249 179.747 57.048 179.250 56.198 179.012 C 55.617 178.849 54.729 178.650 54.190 178.921 C 53.535 179.250 53.240 180.344 52.866 180.974 C 52.794 181.096 52.778 181.370 52.638 181.385 C 52.245 181.426 52.359 180.500 52.319 180.107 C 52.219 179.124 52.193 177.744 52.547 176.822 C 53.129 175.306 54.755 173.692 56.015 172.669 C 57.479 171.480 59.762 170.240 61.582 169.748 C 63.131 169.330 65.346 169.174 66.921 169.475 C 68.654 169.805 71.111 170.601 72.261 171.939 C 72.791 172.556 72.994 173.700 73.173 174.494 C 73.350 175.273 73.647 176.368 73.447 177.141 C 73.316 177.648 72.926 178.312 72.489 178.601 C 72.140 178.832 71.538 178.892 71.120 178.875 C 70.678 178.857 69.977 178.813 69.705 178.464 C 69.553 178.269 69.523 177.874 69.614 177.643 C 69.783 177.215 70.643 177.143 70.846 176.730 C 71.070 176.276 71.007 175.505 70.800 175.042 C 70.572 174.529 69.933 174.018 69.431 173.764 C 68.787 173.438 67.770 173.230 67.058 173.354 C 66.297 173.485 65.337 174.055 64.822 174.631 C 64.259 175.263 63.788 176.388 63.727 177.232 C 63.662 178.137 64.094 179.344 64.503 180.153 C 64.842 180.823 65.628 181.497 66.054 182.115 C 66.264 182.419 66.696 182.796 66.693 183.165 C 66.689 183.792 65.893 184.399 65.461 184.853 C 64.729 185.623 63.343 186.215 62.678 187.044 C 62.049 187.827 61.412 189.070 61.217 190.055 C 61.034 190.984 60.993 192.350 61.400 193.204 C 61.821 194.088 62.908 195.036 63.818 195.395 C 64.736 195.756 66.167 195.746 67.104 195.440 C 67.794 195.215 68.684 194.642 69.066 194.026 C 69.273 193.693 69.424 193.131 69.340 192.748 C 69.145 191.857 67.767 191.268 67.332 190.466 C 66.925 189.716 66.424 188.572 66.557 187.728 C 66.684 186.918 67.420 185.957 68.062 185.446 C 68.636 184.991 69.625 184.716 70.344 184.579 C 71.313 184.396 72.670 184.354 73.630 184.579 C 74.643 184.817 75.832 185.609 76.733 186.131 C 77.443 186.542 78.250 187.339 79.015 187.637 C 79.275 187.738 79.673 187.934 79.927 187.819 C 80.318 187.644 80.405 186.939 80.566 186.542 C 80.809 185.944 80.856 185.031 81.205 184.488 C 81.524 183.990 82.115 183.381 82.665 183.165 C 83.813 182.713 85.604 182.953 86.772 183.347 C 87.744 183.675 89.101 184.369 89.601 185.264 C 90.010 185.994 89.934 187.224 89.784 188.048 C 89.696 188.530 89.546 189.270 89.145 189.553 C 88.720 189.854 87.774 189.271 87.411 189.645 C 87.134 189.931 87.194 190.591 87.320 190.968 C 87.709 192.135 89.099 193.477 90.286 193.797 C 91.274 194.064 92.756 193.620 93.617 193.067 C 94.373 192.583 95.370 191.590 95.443 190.694 C 95.464 190.431 95.183 190.131 95.123 189.873 C 95.092 189.739 94.990 189.522 95.078 189.417 C 95.335 189.107 96.043 189.461 96.401 189.645 C 97.021 189.963 97.703 190.702 97.998 191.333 C 98.296 191.970 98.015 193.006 98.272 193.661 C 98.605 194.506 99.333 195.587 100.097 196.079 C 101.165 196.767 103.019 197.214 104.250 196.900 C 105.054 196.695 106.113 195.974 106.440 195.212 C 106.543 194.973 106.365 194.594 106.440 194.345 C 106.492 194.174 106.587 193.889 106.760 193.843 C 107.101 193.752 107.417 194.342 107.718 194.528 C 108.490 195.003 109.525 195.704 110.411 195.897 C 111.711 196.180 113.638 196.199 114.837 195.623 C 115.282 195.409 115.931 194.967 116.024 194.482 C 116.126 193.947 115.358 193.373 115.248 192.839 C 115.198 192.598 115.138 192.238 115.248 192.018 C 115.601 191.309 116.919 191.198 117.529 190.694 C 118.158 190.175 119.015 189.401 119.309 188.641 C 119.645 187.773 119.669 186.414 119.355 185.538 C 118.982 184.496 117.894 183.308 116.936 182.754 C 116.030 182.230 114.547 181.899 113.514 182.070 C 112.418 182.251 110.990 183.055 110.319 183.940 C 109.846 184.566 109.581 185.666 109.589 186.450 C 109.594 186.862 110.090 187.385 109.954 187.774 C 109.878 187.994 109.577 188.188 109.361 188.276 C 108.955 188.442 108.318 188.457 107.901 188.321 C 107.437 188.171 106.919 187.704 106.623 187.317 C 106.122 186.663 105.622 185.586 105.619 184.762 C 105.615 183.620 106.386 182.155 107.079 181.248 C 107.570 180.606 108.423 179.846 109.178 179.560 C 110.497 179.060 112.520 179.138 113.879 179.514 C 115.628 179.999 117.620 181.563 118.990 182.754 C 121.486 184.924 123.412 189.192 125.972 191.288 C 127.830 192.809 130.682 194.490 132.999 195.121 C 134.692 195.582 137.089 195.501 138.840 195.395 C 139.310 195.366 140.101 194.796 140.392 195.166 C 140.530 195.342 140.388 195.718 140.255 195.897 C 139.836 196.459 138.723 196.474 138.065 196.718 C 137.654 196.870 136.696 197.220 136.696 197.220 C 136.696 197.220 139.381 197.364 140.483 197.083 C 143.613 196.285 147.622 194.141 149.884 191.835 C 151.134 190.561 152.420 188.411 152.850 186.679 C 153.259 185.030 153.437 182.534 152.667 181.020 C 151.809 179.331 149.464 177.727 147.648 177.187 C 146.716 176.909 145.330 176.970 144.408 177.278 C 143.283 177.654 142.329 179.205 141.213 179.605 C 140.309 179.930 138.061 179.679 138.019 179.833 C 137.968 180.021 140.326 181.507 141.487 181.568 C 142.460 181.619 143.727 181.002 144.545 180.472 C 145.357 179.946 145.838 178.366 146.781 178.145 C 147.451 177.988 148.382 178.473 148.971 178.830 C 149.940 179.416 151.082 180.546 151.572 181.568 C 152.045 182.552 152.311 184.107 152.074 185.173 C 151.782 186.492 150.564 188.004 149.564 188.915 C 147.894 190.436 145.046 191.783 142.856 192.337 C 140.705 192.881 137.614 193.065 135.464 192.520 C 133.306 191.973 130.603 190.397 129.029 188.823 C 127.217 187.012 125.470 183.866 124.831 181.385 C 124.472 179.993 124.347 177.977 124.740 176.594 C 125.044 175.523 125.725 173.979 126.702 173.445 C 127.447 173.038 128.842 172.903 129.531 173.399 C 130.174 173.862 130.273 175.121 130.353 175.909 C 130.426 176.636 129.860 177.631 130.079 178.328 C 130.279 178.967 130.958 179.684 131.539 180.016 C 132.143 180.361 133.163 180.654 133.821 180.427 C 134.573 180.167 135.306 179.175 135.555 178.419 C 135.869 177.465 135.690 175.983 135.235 175.088 C 134.588 173.814 132.910 172.563 131.585 172.030 C 130.273 171.503 128.247 171.335 126.884 171.711 C 125.163 172.185 123.232 173.843 122.047 175.179 C 121.262 176.064 120.428 177.469 120.085 178.601 C 119.846 179.390 119.857 181.339 119.857 181.339 C 119.856 181.339 116.008 177.415 113.833 176.776 C 112.096 176.266 109.454 176.384 107.810 177.141 C 106.006 177.971 103.881 180.052 103.246 181.933 C 102.701 183.549 102.936 186.117 103.794 187.591 C 104.388 188.614 105.792 189.691 106.942 189.964 C 107.805 190.169 109.125 190.000 109.863 189.508 C 110.289 189.223 110.619 188.564 110.821 188.093 C 110.993 187.693 110.853 187.005 111.141 186.679 C 111.476 186.299 112.246 186.008 112.738 186.131 C 113.388 186.293 114.075 187.161 114.198 187.819 C 114.335 188.552 113.838 189.600 113.331 190.147 C 112.341 191.215 110.265 191.800 108.813 191.926 C 107.013 192.084 104.586 191.366 102.927 190.649 C 100.475 189.589 97.885 186.985 95.671 185.492 C 93.838 184.257 91.522 182.329 89.465 181.522 C 88.307 181.068 86.646 180.660 85.403 180.701 C 84.198 180.740 82.559 181.131 81.524 181.750 C 80.785 182.193 80.298 183.440 79.516 183.804 C 79.092 184.002 78.432 184.022 77.965 183.986 C 77.080 183.918 75.999 183.325 75.136 183.119 C 74.190 182.894 72.913 182.553 71.941 182.571 C 71.117 182.587 70.069 183.205 69.249 183.119 C 68.973 183.090 68.594 182.979 68.382 182.800 C 67.938 182.424 67.610 181.639 67.515 181.066 C 67.467 180.781 67.375 180.281 67.606 180.107 C 67.935 179.860 68.565 180.281 68.930 180.472 C 69.326 180.680 69.645 181.295 70.070 181.431 C 71.087 181.755 72.669 181.432 73.584 180.883 C 74.524 180.320 75.411 178.995 75.775 177.963 C 76.080 177.097 76.116 175.800 75.911 174.905 C 75.581 173.458 74.486 171.676 73.447 170.616 C 72.549 169.698 70.994 168.845 69.796 168.379 C 68.072 167.709 65.575 167.187 63.727 167.284 C 61.746 167.388 59.120 168.195 57.384 169.155 C 55.890 169.982 54.107 171.522 53.094 172.897 C 52.179 174.141 51.244 176.073 50.995 177.597 C 50.745 179.132 51.602 181.203 51.497 182.754 C 51.469 183.172 51.542 183.851 51.223 184.123 C 51.087 184.240 50.796 184.285 50.630 184.214 C 49.857 183.887 49.835 182.424 49.489 181.659 C 48.784 180.095 47.999 177.927 47.116 176.457 C 46.428 175.309 45.392 173.822 44.424 172.897 C 42.046 170.626 38.201 168.323 35.206 166.965 C 32.673 165.816 29.087 164.470 26.308 164.364 C 22.746 164.228 17.892 165.348 14.717 166.965 C 11.889 168.404 8.471 171.247 6.731 173.901 C 5.449 175.856 4.293 178.956 4.266 181.294 C 4.246 183.105 5.074 185.507 5.955 187.089 C 6.850 188.699 8.519 190.647 10.062 191.653 C 11.785 192.776 14.531 193.717 16.588 193.752 C 18.218 193.780 20.512 193.289 21.835 192.337 C 22.914 191.561 23.807 189.902 24.345 188.687 C 24.993 187.223 25.843 185.054 25.532 183.484 C 25.194 181.781 23.596 179.752 22.155 178.784 C 20.821 177.888 18.544 177.285 16.953 177.506 C 15.410 177.721 13.285 178.757 12.435 180.062 C 11.929 180.839 11.810 182.207 11.979 183.119 C 12.132 183.951 12.657 185.095 13.348 185.583 C 13.983 186.034 15.151 186.240 15.903 186.040 C 16.989 185.750 18.207 184.547 18.687 183.530 C 18.933 183.008 18.963 182.183 18.869 181.613 C 18.801 181.202 18.201 180.735 18.322 180.335 M 34.288 164.139 C 36.434 164.785 40.402 168.430 40.402 168.430 C 40.402 168.430 36.752 163.846 34.791 162.309 C 33.889 161.602 32.522 160.881 31.482 160.399 C 29.769 159.603 27.223 159.173 25.538 158.318 C 24.540 157.813 22.436 156.248 22.436 156.247 C 22.436 156.248 22.766 159.189 23.388 160.259 C 24.077 161.445 25.561 162.674 26.750 163.358 C 27.411 163.738 28.369 164.036 29.104 164.165 C 30.636 164.435 32.799 163.692 34.288 164.139 M 64.604 162.173 C 62.346 163.038 58.127 166.971 58.126 166.971 C 58.127 166.971 61.280 165.321 62.761 165.064 C 65.583 164.574 69.554 164.913 72.278 165.794 C 73.861 166.307 77.077 168.574 77.077 168.574 C 77.077 168.574 77.326 166.906 77.150 166.222 C 76.980 165.557 76.468 164.742 75.990 164.249 C 74.821 163.045 72.768 161.840 71.129 161.485 C 69.198 161.067 66.442 161.469 64.604 162.173 M 50.143 173.707 C 49.647 175.136 49.857 178.741 49.857 178.742 C 49.857 178.741 47.402 173.863 47.427 171.600 C 47.439 170.508 48.088 169.131 48.518 168.128 C 48.954 167.112 50.034 165.976 50.304 164.904 C 50.670 163.446 50.609 161.328 50.155 159.895 C 49.624 158.219 48.108 156.294 46.881 155.034 C 44.550 152.639 40.088 151.079 37.656 148.785 C 36.045 147.265 34.292 144.842 33.094 142.979 C 31.689 140.795 29.721 137.810 29.143 135.279 C 28.836 133.937 28.985 132.061 29.122 130.692 C 29.197 129.948 29.491 128.986 29.598 128.247 C 29.722 127.390 29.870 125.376 29.870 125.375 C 29.870 125.376 31.139 127.458 31.844 128.221 C 32.954 129.424 34.850 130.577 36.110 131.622 C 37.371 132.668 39.178 133.945 40.243 135.189 C 41.171 136.273 42.160 137.928 42.775 139.216 C 43.519 140.772 43.797 143.145 44.615 144.664 C 45.137 145.635 46.831 147.594 46.832 147.595 C 46.832 147.595 47.055 146.887 47.051 146.574 C 47.045 145.999 46.581 145.297 46.555 144.722 C 46.520 143.950 46.291 142.417 47.030 142.189 C 47.257 142.118 47.558 142.398 47.726 142.566 C 48.247 143.088 48.347 144.181 48.739 144.807 C 49.331 145.752 50.329 146.884 51.151 147.637 C 51.987 148.403 53.299 149.180 54.230 149.827 C 54.823 150.240 55.859 150.558 56.220 151.184 C 57.178 152.839 56.587 155.713 56.081 157.557 C 55.817 158.516 54.731 159.516 54.536 160.492 C 54.478 160.783 54.316 161.325 54.569 161.482 C 54.942 161.713 55.522 161.034 55.807 160.700 C 56.301 160.121 56.313 158.976 56.721 158.334 C 57.401 157.262 58.653 156.046 59.704 155.335 C 60.118 155.056 60.789 154.378 61.215 154.637 C 61.496 154.809 61.394 155.393 61.403 155.723 C 61.425 156.501 61.167 157.523 61.035 158.290 C 60.809 159.608 60.666 161.425 60.148 162.658 C 59.800 163.488 59.107 164.497 58.506 165.168 C 57.181 166.648 54.661 167.811 53.295 169.253 C 52.169 170.442 50.680 172.161 50.143 173.707 M 24.534 115.175 C 23.110 113.565 18.522 111.200 18.521 111.200 C 18.522 111.200 21.323 113.819 22.086 115.246 C 22.581 116.174 23.039 117.566 23.049 118.618 C 23.067 120.519 21.641 122.833 21.219 124.687 C 20.758 126.712 20.095 129.451 20.159 131.527 C 20.256 134.673 21.330 138.845 22.567 141.738 C 23.538 144.009 25.169 147.017 26.999 148.675 C 28.379 149.924 30.717 150.999 32.490 151.565 C 33.382 151.849 34.721 151.658 35.573 152.046 C 36.078 152.277 36.878 152.665 37.018 153.202 C 37.048 153.319 37.007 153.503 36.928 153.595 C 36.652 153.914 35.953 153.769 35.557 153.917 C 35.094 154.092 34.487 154.383 34.105 154.697 C 33.596 155.117 32.976 155.804 32.734 156.418 C 32.530 156.938 32.409 157.739 32.573 158.273 C 32.645 158.510 32.810 158.915 33.057 158.945 C 33.351 158.980 33.607 158.512 33.783 158.273 C 34.141 157.783 34.128 156.812 34.589 156.418 C 35.138 155.949 36.214 155.747 36.928 155.853 C 37.554 155.946 38.311 156.453 38.756 156.902 C 39.169 157.317 39.598 158.024 39.724 158.596 C 39.978 159.747 39.122 161.318 39.213 162.494 C 39.299 163.591 39.750 165.029 40.235 166.016 C 41.007 167.587 42.659 169.305 43.757 170.667 C 44.630 171.750 45.590 173.452 46.769 174.189 C 46.957 174.307 47.467 174.431 47.467 174.431 C 47.467 174.431 47.256 173.674 47.145 173.356 C 46.912 172.690 46.391 171.871 46.258 171.178 C 46.056 170.132 46.136 168.675 46.338 167.629 C 46.543 166.572 47.334 165.312 47.602 164.268 C 47.918 163.038 48.295 161.341 48.193 160.074 C 48.145 159.473 47.889 158.694 47.656 158.139 C 47.307 157.308 46.734 156.219 46.123 155.557 C 44.851 154.180 42.546 153.024 40.904 152.118 C 39.631 151.415 37.687 150.936 36.498 150.100 C 35.280 149.243 33.979 147.697 33.030 146.551 C 31.558 144.772 29.673 142.287 28.674 140.206 C 27.738 138.252 26.824 135.448 26.577 133.296 C 26.310 130.967 27.031 127.842 27.115 125.499 C 27.172 123.895 27.520 121.709 27.142 120.149 C 26.745 118.511 25.650 116.437 24.534 115.175 M 16.393 84.193 C 16.245 84.191 16.011 83.938 15.858 83.815 C 15.639 83.640 15.414 83.315 15.165 83.186 C 14.840 83.016 14.328 82.857 13.969 82.934 C 13.313 83.075 12.503 83.734 12.238 84.351 C 11.663 85.686 12.508 87.766 12.993 89.136 C 13.437 90.388 15.197 92.976 15.197 92.976 C 15.197 92.976 13.646 91.956 13.109 91.378 C 11.857 90.029 10.259 87.952 9.908 86.145 C 9.708 85.117 9.787 83.566 10.349 82.682 C 10.975 81.698 12.508 80.852 13.654 80.636 C 14.443 80.487 15.623 80.611 16.299 81.045 C 16.784 81.357 17.298 82.052 17.400 82.619 C 17.464 82.971 17.367 83.501 17.149 83.784 C 16.991 83.988 16.651 84.196 16.393 84.193 M 8.241 63.932 C 8.332 63.640 8.267 63.079 7.992 62.944 C 7.682 62.791 7.293 63.390 6.950 63.434 C 6.635 63.476 6.120 63.487 5.907 63.250 C 5.464 62.758 5.709 61.624 6.030 61.043 C 6.408 60.360 7.401 59.666 8.176 59.571 C 8.997 59.471 10.174 59.961 10.752 60.552 C 11.679 61.501 12.147 63.461 12.039 64.783 C 11.864 66.933 9.580 69.175 8.605 71.099 C 7.787 72.714 6.526 74.815 6.030 76.556 C 5.548 78.248 5.184 80.630 5.356 82.381 C 5.577 84.639 6.579 87.610 7.747 89.555 C 8.531 90.861 10.049 92.276 11.181 93.296 C 12.127 94.148 13.542 95.100 14.580 95.837 C 14.808 95.999 15.075 96.311 15.350 96.361 C 15.649 96.416 16.096 96.308 16.331 96.116 C 16.522 95.960 16.762 95.619 16.699 95.381 C 16.617 95.069 16.047 95.008 15.779 94.829 C 14.275 93.821 12.150 92.545 10.997 91.150 C 9.649 89.520 8.313 86.901 7.870 84.834 C 7.483 83.035 7.513 80.461 8.053 78.702 C 8.447 77.424 9.340 75.737 10.384 74.901 C 10.802 74.565 11.514 74.117 12.039 74.226 C 12.523 74.327 13.181 74.897 13.204 75.391 C 13.222 75.784 12.593 76.087 12.407 76.434 C 12.333 76.572 12.189 76.771 12.223 76.924 C 12.271 77.140 12.564 77.347 12.775 77.415 C 13.328 77.593 14.198 77.376 14.676 77.047 C 15.341 76.588 15.815 75.497 16.025 74.717 C 16.240 73.917 16.324 72.729 16.025 71.957 C 15.738 71.217 14.948 70.368 14.247 69.995 C 13.573 69.638 11.733 69.627 11.733 69.627 C 11.733 69.627 12.605 68.273 13.016 67.719 C 13.536 67.021 14.348 66.182 14.861 65.479 C 15.098 65.153 15.459 64.733 15.596 64.354 C 15.671 64.146 15.761 63.837 15.699 63.624 C 15.642 63.429 15.455 63.165 15.260 63.105 C 15.010 63.029 14.431 63.373 14.430 63.373 C 14.430 63.373 14.519 62.006 14.356 61.452 C 14.232 61.032 14.046 60.321 13.629 60.186 C 13.421 60.119 13.114 60.287 12.935 60.414 C 12.690 60.589 12.346 61.227 12.346 61.227 C 12.346 61.227 11.501 60.311 11.061 60.017 C 10.488 59.633 9.645 59.120 8.956 59.089 C 8.161 59.055 7.037 59.427 6.455 59.970 C 5.695 60.678 4.919 62.169 5.157 63.181 C 5.329 63.913 6.208 64.908 6.959 64.922 C 7.445 64.931 8.096 64.396 8.241 63.932 M 15.765 162.036 C 14.265 164.277 9.377 168.360 9.377 168.361 C 9.377 168.360 14.066 163.158 15.642 160.620 C 16.880 158.629 18.394 155.817 18.952 153.539 C 19.520 151.217 19.538 147.956 19.291 145.578 C 18.954 142.328 17.771 138.061 16.503 135.049 C 15.148 131.834 12.296 128.079 10.520 125.076 C 10.023 124.234 8.876 122.262 8.876 122.262 C 8.875 122.262 7.770 124.580 7.533 125.646 C 6.371 130.888 6.657 138.221 7.364 143.544 C 7.726 146.271 9.688 152.413 9.688 152.414 C 9.688 152.413 9.608 149.772 9.679 148.643 C 9.798 146.714 10.434 144.189 10.537 142.260 C 10.628 140.569 10.516 138.306 10.400 136.617 C 10.319 135.433 9.969 132.686 9.969 132.686 C 9.969 132.686 11.710 132.379 12.375 132.660 C 13.077 132.956 13.749 133.841 14.119 134.507 C 14.857 135.840 15.205 137.942 15.219 139.465 C 15.239 141.491 14.368 144.121 13.803 146.066 C 13.293 147.824 12.064 149.999 11.698 151.793 C 11.446 153.022 11.248 154.728 11.438 155.969 C 11.650 157.360 13.135 160.343 13.135 160.344 C 13.134 160.343 9.587 154.515 8.535 151.801 C 7.417 148.918 6.397 144.872 6.040 141.801 C 5.511 137.258 5.823 131.099 6.391 126.562 C 6.611 124.796 7.623 120.759 7.623 120.758 C 7.623 120.758 4.384 115.233 3.752 112.599 C 3.336 110.862 3.141 108.403 3.487 106.651 C 4.121 103.439 6.196 99.335 8.382 96.898 C 9.181 96.006 11.631 94.577 11.631 94.577 C 11.631 94.578 7.212 101.585 6.493 104.995 C 6.026 107.211 6.159 110.332 6.657 112.541 C 6.986 114.001 8.625 117.125 8.625 117.126 C 8.626 117.124 11.685 108.281 13.181 104.561 C 15.332 99.215 19.636 92.617 21.007 87.020 C 21.978 83.056 22.217 77.528 21.996 73.454 C 21.804 69.894 19.900 61.758 19.899 61.757 C 19.900 61.758 24.195 71.505 24.585 75.981 C 24.974 80.447 23.719 86.474 22.435 90.770 C 21.232 94.795 18.317 99.667 16.539 103.474 C 15.425 105.860 13.870 109.009 12.807 111.419 C 11.832 113.632 9.731 118.868 9.731 118.869 C 9.731 118.870 16.499 130.138 18.258 135.447 C 19.595 139.481 21.128 145.173 20.701 149.401 C 20.291 153.450 18.029 158.655 15.765 162.036 M 5.624 5.731 C 4.882 5.516 3.464 5.218 3.052 5.871 C 2.271 7.111 5.328 8.499 5.868 9.861 C 6.991 12.690 6.957 16.909 6.924 19.953 C 6.886 23.502 5.847 28.165 5.399 31.687 C 5.148 33.658 4.576 36.271 4.577 38.258 C 4.579 41.350 4.908 45.569 5.986 48.467 C 7.173 51.661 9.476 55.931 12.205 57.972 C 13.667 59.065 16.164 60.324 17.954 59.967 C 18.725 59.813 19.636 59.063 20.050 58.395 C 20.370 57.879 20.396 57.017 20.454 56.414 C 20.501 55.930 20.446 54.793 20.446 54.793 C 20.446 54.793 19.424 56.430 18.776 56.916 C 17.988 57.506 16.694 58.235 15.717 58.106 C 13.456 57.809 11.357 54.907 10.050 53.037 C 9.006 51.542 7.559 49.225 7.746 47.411 C 7.932 45.595 10.526 44.082 11.149 42.365 C 11.850 40.432 11.406 37.559 11.807 35.542 C 12.022 34.462 12.380 33.021 12.839 32.020 C 13.130 31.383 13.970 30.735 14.082 30.044 C 14.134 29.726 14.128 29.203 13.888 28.987 C 13.399 28.549 12.315 28.855 11.701 29.090 C 10.652 29.493 9.385 30.558 8.894 31.569 C 8.163 33.071 8.610 35.473 8.765 37.136 C 8.883 38.409 10.225 40.181 9.623 41.309 C 9.261 41.988 8.062 42.694 7.330 42.456 C 4.364 41.491 5.051 35.198 5.804 32.171 C 6.050 31.183 7.085 30.168 7.607 29.294 C 8.370 28.017 9.368 26.301 10.051 24.980 C 10.442 24.224 11.439 23.250 11.266 22.417 C 11.072 21.484 9.024 21.316 8.850 20.385 C 8.762 19.914 9.258 19.341 9.480 18.917 C 10.014 17.897 11.230 16.796 11.563 15.694 C 11.784 14.967 12.069 13.801 11.658 13.163 C 11.200 12.453 9.545 12.809 9.037 12.135 C 8.563 11.506 8.954 10.289 8.767 9.524 C 8.605 8.861 8.353 7.947 7.939 7.404 C 7.419 6.723 6.447 5.969 5.624 5.731 Z"/>
		<path fill="#FBF264" fill-rule="evenodd" stroke="#444" d="M 444.984 191.115 C 444.854 190.983 445.176 190.718 445.266 190.551 C 445.512 190.094 446.116 189.577 446.139 189.058 C 446.161 188.575 445.594 188.059 445.463 187.593 C 445.293 186.988 445.070 186.115 445.238 185.509 C 445.372 185.025 445.773 184.378 446.224 184.156 C 446.641 183.951 447.393 183.918 447.773 184.185 C 448.030 184.365 447.924 184.985 448.196 185.143 C 448.364 185.240 448.651 185.143 448.844 185.114 C 449.164 185.066 449.564 184.795 449.886 184.833 C 450.622 184.919 451.607 185.511 451.971 186.157 C 452.328 186.790 452.416 187.965 452.027 188.579 C 451.655 189.168 450.589 189.368 449.914 189.537 C 449.027 189.759 447.704 189.329 446.872 189.706 C 446.507 189.872 446.211 190.374 445.886 190.608 C 445.634 190.789 445.202 191.335 444.984 191.115 M 453.675 182.860 C 453.563 182.846 453.444 182.581 453.427 182.435 C 453.318 181.508 454.263 180.413 454.775 179.633 C 455.882 177.944 457.609 175.767 459.279 174.632 C 461.208 173.321 464.297 172.428 466.585 171.972 C 467.495 171.791 468.792 171.459 469.670 171.759 C 470.015 171.877 470.695 172.146 470.628 172.504 C 470.570 172.815 469.927 172.737 469.635 172.859 C 469.275 173.009 468.744 173.154 468.465 173.426 C 467.741 174.131 467.531 175.590 467.117 176.512 C 467.002 176.768 466.925 177.164 466.727 177.363 C 466.464 177.626 465.957 177.791 465.592 177.860 C 464.721 178.023 463.533 177.660 462.648 177.611 C 462.297 177.592 461.776 177.391 461.478 177.576 C 461.392 177.629 461.290 177.760 461.300 177.860 C 461.332 178.171 461.892 178.288 462.152 178.463 C 462.632 178.785 463.346 179.112 463.783 179.491 C 463.977 179.659 464.335 179.874 464.351 180.129 C 464.365 180.359 464.127 180.657 463.925 180.768 C 463.326 181.098 462.332 180.654 461.655 180.555 C 460.904 180.445 459.932 180.071 459.173 180.059 C 458.244 180.044 456.955 180.178 456.122 180.590 C 455.481 180.908 454.867 181.693 454.349 182.186 C 454.142 182.384 453.959 182.896 453.675 182.860 M 481.679 180.340 C 481.600 180.078 481.340 179.895 481.122 179.844 C 480.367 179.669 479.287 180.320 478.756 180.885 C 477.760 181.945 477.151 184.079 477.337 185.522 C 477.547 187.154 478.906 189.238 480.270 190.158 C 481.327 190.871 483.175 191.211 484.434 191.010 C 486.829 190.628 489.810 188.611 491.247 186.657 C 492.643 184.760 493.598 181.427 493.329 179.087 C 493.051 176.677 491.177 173.693 489.449 171.990 C 487.469 170.038 483.916 168.397 481.217 167.732 C 478.157 166.978 473.795 167.077 470.713 167.732 C 466.898 168.542 461.915 170.671 458.885 173.126 C 456.396 175.141 454.000 178.840 452.450 181.642 C 452.093 182.288 451.559 183.177 451.504 183.913 C 451.496 184.020 451.473 184.204 451.561 184.265 C 451.905 184.502 452.358 183.685 452.748 183.535 C 453.086 183.404 453.572 183.295 453.934 183.306 C 454.661 183.330 455.719 183.506 456.261 183.991 C 457.162 184.796 457.762 186.577 457.630 187.779 C 457.483 189.126 456.229 190.725 455.166 191.566 C 454.385 192.185 453.038 192.547 452.063 192.753 C 450.548 193.072 448.397 192.517 446.906 192.935 C 445.904 193.216 444.673 193.941 443.849 194.578 C 443.412 194.915 443.112 195.792 442.571 195.901 C 442.346 195.947 441.953 195.874 441.841 195.673 C 441.617 195.271 442.245 194.678 442.434 194.258 C 442.780 193.494 443.508 192.572 443.666 191.749 C 443.812 190.994 443.677 189.937 443.484 189.193 C 443.193 188.073 442.253 186.788 441.795 185.725 C 441.460 184.945 440.870 183.924 440.792 183.078 C 440.718 182.289 440.796 181.128 441.248 180.477 C 441.752 179.752 442.953 179.255 443.803 179.017 C 444.384 178.854 445.272 178.655 445.811 178.925 C 446.466 179.254 446.761 180.349 447.135 180.979 C 447.207 181.100 447.223 181.375 447.363 181.390 C 447.756 181.431 447.642 180.505 447.682 180.112 C 447.782 179.129 447.808 177.749 447.454 176.826 C 446.872 175.311 445.246 173.697 443.986 172.674 C 442.522 171.485 440.239 170.245 438.419 169.753 C 436.870 169.335 434.655 169.179 433.079 169.479 C 431.346 169.809 428.890 170.605 427.740 171.944 C 427.210 172.561 427.007 173.705 426.828 174.499 C 426.651 175.278 426.353 176.373 426.554 177.146 C 426.685 177.653 427.075 178.317 427.512 178.606 C 427.861 178.837 428.463 178.897 428.881 178.880 C 429.323 178.862 430.024 178.818 430.296 178.469 C 430.448 178.274 430.478 177.878 430.387 177.648 C 430.218 177.220 429.358 177.148 429.155 176.735 C 428.931 176.281 428.994 175.509 429.201 175.047 C 429.429 174.533 430.068 174.023 430.570 173.769 C 431.214 173.443 432.231 173.235 432.943 173.358 C 433.704 173.490 434.664 174.059 435.179 174.636 C 435.742 175.268 436.213 176.393 436.274 177.237 C 436.339 178.141 435.907 179.349 435.498 180.158 C 435.159 180.827 434.373 181.502 433.946 182.120 C 433.737 182.423 433.305 182.801 433.308 183.169 C 433.312 183.796 434.108 184.403 434.540 184.858 C 435.272 185.628 436.658 186.220 437.323 187.048 C 437.952 187.831 438.589 189.075 438.784 190.060 C 438.967 190.988 439.008 192.355 438.601 193.209 C 438.180 194.092 437.093 195.041 436.183 195.399 C 435.265 195.761 433.834 195.751 432.897 195.445 C 432.207 195.220 431.317 194.647 430.935 194.030 C 430.728 193.697 430.577 193.135 430.661 192.753 C 430.856 191.862 432.234 191.272 432.669 190.471 C 433.076 189.721 433.577 188.576 433.444 187.733 C 433.317 186.923 432.581 185.961 431.939 185.451 C 431.365 184.995 430.376 184.720 429.657 184.584 C 428.688 184.401 427.331 184.359 426.371 184.584 C 425.358 184.822 424.169 185.614 423.268 186.136 C 422.558 186.547 421.751 187.344 420.986 187.642 C 420.726 187.743 420.328 187.939 420.074 187.824 C 419.683 187.648 419.596 186.943 419.435 186.546 C 419.192 185.949 419.144 185.036 418.796 184.493 C 418.477 183.995 417.886 183.386 417.336 183.169 C 416.188 182.718 414.397 182.958 413.229 183.352 C 412.257 183.679 410.900 184.374 410.399 185.269 C 409.991 185.999 410.067 187.229 410.217 188.052 C 410.305 188.535 410.455 189.275 410.856 189.558 C 411.281 189.859 412.227 189.275 412.590 189.650 C 412.867 189.935 412.807 190.595 412.681 190.973 C 412.292 192.139 410.902 193.482 409.715 193.802 C 408.727 194.068 407.245 193.624 406.384 193.072 C 405.628 192.587 404.631 191.594 404.558 190.699 C 404.537 190.435 404.818 190.135 404.878 189.878 C 404.909 189.744 405.011 189.527 404.923 189.421 C 404.666 189.111 403.958 189.466 403.600 189.650 C 402.980 189.968 402.298 190.706 402.003 191.338 C 401.705 191.975 401.986 193.011 401.729 193.665 C 401.396 194.511 400.668 195.591 399.904 196.084 C 398.836 196.772 396.982 197.219 395.751 196.905 C 394.947 196.700 393.888 195.979 393.561 195.217 C 393.458 194.978 393.636 194.599 393.561 194.350 C 393.509 194.179 393.414 193.894 393.241 193.848 C 392.900 193.757 392.584 194.347 392.283 194.532 C 391.511 195.007 390.476 195.708 389.590 195.901 C 388.290 196.185 386.363 196.203 385.164 195.628 C 384.719 195.414 384.070 194.972 383.977 194.487 C 383.875 193.951 384.643 193.378 384.753 192.844 C 384.803 192.602 384.863 192.243 384.753 192.022 C 384.400 191.314 383.082 191.203 382.472 190.699 C 381.843 190.180 380.986 189.406 380.692 188.645 C 380.356 187.777 380.332 186.419 380.646 185.542 C 381.019 184.501 382.107 183.313 383.065 182.759 C 383.971 182.234 385.454 181.903 386.487 182.074 C 387.583 182.255 389.011 183.060 389.682 183.945 C 390.155 184.570 390.420 185.671 390.412 186.455 C 390.407 186.867 389.911 187.390 390.047 187.779 C 390.123 187.999 390.424 188.192 390.640 188.280 C 391.046 188.446 391.683 188.461 392.100 188.326 C 392.564 188.176 393.082 187.709 393.378 187.322 C 393.879 186.668 394.379 185.590 394.382 184.767 C 394.386 183.625 393.615 182.160 392.922 181.253 C 392.431 180.611 391.578 179.851 390.823 179.564 C 389.504 179.064 387.481 179.142 386.122 179.519 C 384.373 180.003 382.381 181.568 381.011 182.759 C 378.515 184.929 376.589 189.197 374.029 191.292 C 372.171 192.814 369.319 194.494 367.002 195.126 C 365.309 195.587 362.912 195.506 361.161 195.399 C 360.691 195.371 359.900 194.801 359.609 195.171 C 359.471 195.346 359.613 195.723 359.746 195.901 C 360.165 196.464 361.278 196.479 361.936 196.723 C 362.346 196.875 363.305 197.225 363.305 197.225 C 363.305 197.225 360.620 197.369 359.518 197.088 C 356.388 196.290 352.379 194.145 350.117 191.840 C 348.867 190.566 347.581 188.415 347.151 186.683 C 346.741 185.035 346.564 182.539 347.333 181.025 C 348.192 179.336 350.537 177.732 352.353 177.191 C 353.285 176.914 354.671 176.974 355.593 177.283 C 356.718 177.659 357.672 179.210 358.788 179.610 C 359.692 179.934 361.940 179.684 361.982 179.838 C 362.033 180.025 359.675 181.512 358.514 181.572 C 357.541 181.623 356.274 181.007 355.456 180.477 C 354.644 179.951 354.163 178.371 353.220 178.150 C 352.550 177.993 351.619 178.478 351.030 178.834 C 350.061 179.421 348.919 180.551 348.429 181.572 C 347.956 182.557 347.690 184.111 347.927 185.177 C 348.219 186.497 349.437 188.009 350.437 188.919 C 352.107 190.441 354.954 191.788 357.145 192.342 C 359.295 192.886 362.387 193.070 364.537 192.524 C 366.695 191.977 369.398 190.402 370.972 188.828 C 372.784 187.016 374.530 183.871 375.170 181.390 C 375.529 179.997 375.654 177.981 375.261 176.598 C 374.957 175.528 374.276 173.983 373.299 173.450 C 372.554 173.042 371.159 172.908 370.470 173.404 C 369.827 173.867 369.727 175.125 369.648 175.914 C 369.575 176.640 370.141 177.636 369.922 178.332 C 369.722 178.971 369.043 179.688 368.462 180.021 C 367.858 180.366 366.838 180.658 366.180 180.431 C 365.428 180.172 364.695 179.179 364.446 178.423 C 364.132 177.470 364.311 175.987 364.766 175.092 C 365.413 173.819 367.091 172.568 368.416 172.035 C 369.728 171.508 371.754 171.340 373.117 171.715 C 374.838 172.190 376.768 173.848 377.954 175.184 C 378.739 176.069 379.573 177.473 379.916 178.606 C 380.155 179.395 380.144 181.344 380.144 181.344 C 380.145 181.344 383.993 177.419 386.168 176.781 C 387.905 176.271 390.547 176.389 392.191 177.146 C 393.995 177.976 396.120 180.056 396.755 181.937 C 397.300 183.553 397.064 186.122 396.207 187.596 C 395.613 188.619 394.209 189.695 393.059 189.969 C 392.196 190.174 390.876 190.005 390.138 189.513 C 389.712 189.228 389.382 188.569 389.180 188.098 C 389.008 187.698 389.148 187.010 388.860 186.683 C 388.525 186.303 387.754 186.013 387.263 186.136 C 386.613 186.298 385.926 187.166 385.803 187.824 C 385.666 188.557 386.163 189.605 386.670 190.151 C 387.660 191.220 389.736 191.804 391.188 191.931 C 392.988 192.089 395.415 191.370 397.074 190.653 C 399.526 189.594 402.116 186.989 404.330 185.497 C 406.163 184.262 408.479 182.334 410.536 181.527 C 411.693 181.073 413.355 180.664 414.598 180.705 C 415.803 180.745 417.442 181.135 418.477 181.755 C 419.216 182.197 419.703 183.445 420.484 183.808 C 420.909 184.006 421.569 184.027 422.036 183.991 C 422.921 183.922 424.002 183.330 424.865 183.124 C 425.811 182.898 427.088 182.558 428.060 182.576 C 428.884 182.591 429.932 183.210 430.752 183.124 C 431.028 183.095 431.407 182.983 431.619 182.804 C 432.063 182.429 432.391 181.644 432.486 181.070 C 432.534 180.785 432.626 180.286 432.395 180.112 C 432.066 179.864 431.436 180.286 431.071 180.477 C 430.675 180.684 430.356 181.299 429.931 181.435 C 428.914 181.760 427.332 181.436 426.417 180.888 C 425.477 180.325 424.590 179.000 424.226 177.967 C 423.921 177.101 423.885 175.805 424.090 174.910 C 424.420 173.463 425.515 171.680 426.554 170.620 C 427.452 169.703 429.007 168.850 430.204 168.384 C 431.929 167.714 434.426 167.192 436.274 167.289 C 438.255 167.393 440.881 168.199 442.617 169.160 C 444.111 169.987 445.894 171.527 446.906 172.902 C 447.822 174.146 448.757 176.078 449.006 177.602 C 449.256 179.136 448.399 181.208 448.504 182.759 C 448.532 183.177 448.459 183.856 448.777 184.128 C 448.914 184.245 449.205 184.289 449.371 184.219 C 450.144 183.892 450.166 182.429 450.512 181.664 C 451.217 180.100 452.002 177.932 452.884 176.461 C 453.573 175.313 454.609 173.827 455.577 172.902 C 457.955 170.630 461.800 168.328 464.795 166.969 C 467.328 165.821 470.914 164.475 473.693 164.368 C 477.255 164.232 482.108 165.353 485.284 166.969 C 488.112 168.409 491.530 171.252 493.270 173.906 C 494.552 175.861 495.708 178.961 495.735 181.299 C 495.755 183.109 494.927 185.512 494.046 187.094 C 493.151 188.703 491.482 190.652 489.939 191.657 C 488.216 192.780 485.470 193.721 483.413 193.757 C 481.783 193.784 479.489 193.294 478.166 192.342 C 477.086 191.566 476.194 189.907 475.656 188.691 C 475.008 187.228 474.158 185.059 474.469 183.489 C 474.807 181.786 476.405 179.757 477.846 178.789 C 479.180 177.893 481.457 177.289 483.048 177.511 C 484.591 177.725 486.716 178.762 487.566 180.066 C 488.072 180.843 488.191 182.212 488.022 183.124 C 487.869 183.955 487.344 185.099 486.653 185.588 C 486.018 186.038 484.850 186.245 484.098 186.044 C 483.012 185.755 481.794 184.551 481.314 183.535 C 481.068 183.012 481.038 182.188 481.132 181.618 C 481.199 181.206 481.800 180.739 481.679 180.340 M 465.713 164.144 C 463.567 164.789 459.599 168.435 459.599 168.435 C 459.599 168.434 463.249 163.850 465.210 162.313 C 466.112 161.606 467.479 160.886 468.519 160.404 C 470.232 159.608 472.778 159.177 474.463 158.323 C 475.461 157.817 477.565 156.252 477.565 156.252 C 477.565 156.253 477.235 159.194 476.613 160.263 C 475.924 161.450 474.440 162.679 473.251 163.363 C 472.590 163.743 471.632 164.040 470.897 164.170 C 469.365 164.440 467.202 163.697 465.713 164.144 M 435.397 162.178 C 437.655 163.043 441.874 166.975 441.874 166.976 C 441.874 166.976 438.721 165.325 437.240 165.068 C 434.418 164.579 430.447 164.918 427.722 165.799 C 426.139 166.311 422.924 168.578 422.924 168.579 C 422.924 168.578 422.675 166.911 422.850 166.227 C 423.021 165.562 423.533 164.746 424.011 164.253 C 425.180 163.050 427.233 161.845 428.872 161.490 C 430.803 161.072 433.559 161.474 435.397 162.178 M 449.858 173.712 C 450.353 175.141 450.144 178.746 450.144 178.746 C 450.144 178.745 452.599 173.867 452.574 171.604 C 452.562 170.513 451.913 169.136 451.483 168.132 C 451.047 167.116 449.967 165.981 449.697 164.909 C 449.331 163.451 449.392 161.333 449.846 159.899 C 450.377 158.223 451.893 156.299 453.120 155.039 C 455.451 152.644 459.913 151.084 462.345 148.790 C 463.956 147.269 465.709 144.847 466.907 142.983 C 468.312 140.800 470.280 137.815 470.858 135.284 C 471.165 133.942 471.015 132.066 470.878 130.696 C 470.804 129.953 470.510 128.991 470.403 128.251 C 470.279 127.395 470.131 125.380 470.131 125.380 C 470.131 125.380 468.862 127.462 468.157 128.226 C 467.047 129.428 465.151 130.582 463.891 131.627 C 462.630 132.673 460.823 133.950 459.758 135.194 C 458.830 136.278 457.841 137.933 457.226 139.221 C 456.482 140.777 456.204 143.150 455.386 144.669 C 454.864 145.639 453.169 147.599 453.169 147.599 C 453.169 147.599 452.946 146.892 452.950 146.578 C 452.956 146.003 453.420 145.301 453.446 144.727 C 453.481 143.954 453.710 142.422 452.971 142.193 C 452.744 142.123 452.443 142.402 452.275 142.571 C 451.754 143.093 451.654 144.186 451.262 144.811 C 450.670 145.757 449.672 146.888 448.850 147.642 C 448.014 148.408 446.702 149.184 445.771 149.832 C 445.178 150.244 444.142 150.563 443.781 151.188 C 442.823 152.844 443.414 155.717 443.920 157.561 C 444.184 158.521 445.270 159.521 445.465 160.497 C 445.523 160.788 445.685 161.330 445.432 161.487 C 445.059 161.718 444.479 161.039 444.194 160.704 C 443.700 160.125 443.688 158.981 443.280 158.339 C 442.600 157.267 441.348 156.051 440.297 155.340 C 439.883 155.060 439.212 154.382 438.786 154.642 C 438.505 154.813 438.607 155.398 438.598 155.728 C 438.576 156.506 438.834 157.528 438.966 158.295 C 439.192 159.613 439.335 161.430 439.853 162.663 C 440.201 163.492 440.894 164.502 441.495 165.173 C 442.820 166.653 445.340 167.815 446.706 169.258 C 447.832 170.447 449.321 172.166 449.858 173.712 M 475.467 115.180 C 476.891 113.569 481.479 111.205 481.480 111.204 C 481.479 111.205 478.678 113.824 477.915 115.251 C 477.420 116.178 476.962 117.570 476.952 118.622 C 476.934 120.524 478.360 122.837 478.782 124.692 C 479.243 126.716 479.906 129.456 479.842 131.532 C 479.745 134.678 478.671 138.849 477.434 141.743 C 476.462 144.014 474.832 147.022 473.002 148.679 C 471.622 149.929 469.284 151.004 467.511 151.570 C 466.619 151.854 465.279 151.662 464.428 152.051 C 463.923 152.282 463.123 152.670 462.983 153.207 C 462.953 153.324 462.994 153.508 463.073 153.599 C 463.349 153.919 464.048 153.773 464.444 153.922 C 464.907 154.096 465.514 154.387 465.896 154.702 C 466.405 155.122 467.025 155.808 467.267 156.423 C 467.471 156.942 467.592 157.743 467.428 158.278 C 467.355 158.515 467.191 158.920 466.944 158.950 C 466.650 158.985 466.394 158.517 466.218 158.278 C 465.860 157.788 465.873 156.817 465.412 156.423 C 464.863 155.953 463.787 155.752 463.073 155.858 C 462.447 155.951 461.690 156.458 461.244 156.906 C 460.832 157.321 460.403 158.029 460.277 158.600 C 460.023 159.752 460.879 161.323 460.787 162.499 C 460.702 163.595 460.251 165.033 459.766 166.021 C 458.994 167.592 457.342 169.309 456.244 170.672 C 455.371 171.754 454.411 173.457 453.232 174.194 C 453.044 174.312 452.534 174.436 452.533 174.436 C 452.533 174.436 452.745 173.679 452.856 173.361 C 453.089 172.694 453.610 171.875 453.743 171.183 C 453.945 170.137 453.865 168.679 453.663 167.634 C 453.458 166.576 452.667 165.316 452.399 164.273 C 452.083 163.042 451.706 161.346 451.808 160.079 C 451.856 159.478 452.112 158.699 452.345 158.143 C 452.694 157.313 453.267 156.224 453.878 155.562 C 455.150 154.185 457.455 153.028 459.097 152.122 C 460.370 151.420 462.313 150.941 463.503 150.104 C 464.721 149.248 466.022 147.702 466.971 146.555 C 468.443 144.777 470.328 142.292 471.327 140.210 C 472.263 138.257 473.177 135.453 473.424 133.301 C 473.691 130.971 472.970 127.847 472.886 125.504 C 472.829 123.900 472.481 121.714 472.859 120.154 C 473.256 118.516 474.351 116.442 475.467 115.180 M 483.608 84.198 C 483.756 84.196 483.990 83.943 484.143 83.820 C 484.362 83.645 484.587 83.320 484.836 83.190 C 485.161 83.021 485.673 82.862 486.032 82.939 C 486.688 83.079 487.498 83.739 487.763 84.355 C 488.338 85.690 487.493 87.770 487.008 89.140 C 486.564 90.393 484.804 92.981 484.804 92.981 C 484.804 92.981 486.355 91.961 486.892 91.383 C 488.144 90.034 489.742 87.956 490.093 86.150 C 490.293 85.122 490.214 83.570 489.652 82.687 C 489.026 81.703 487.493 80.857 486.347 80.641 C 485.558 80.492 484.378 80.616 483.702 81.050 C 483.217 81.361 482.703 82.057 482.601 82.624 C 482.537 82.976 482.634 83.506 482.852 83.789 C 483.010 83.993 483.350 84.201 483.608 84.198 M 491.760 63.937 C 491.669 63.645 491.734 63.084 492.009 62.949 C 492.319 62.796 492.708 63.394 493.051 63.439 C 493.366 63.480 493.881 63.491 494.094 63.255 C 494.537 62.762 494.292 61.628 493.971 61.048 C 493.593 60.364 492.600 59.671 491.825 59.576 C 491.004 59.476 489.827 59.966 489.249 60.557 C 488.322 61.506 487.854 63.466 487.962 64.788 C 488.137 66.938 490.421 69.180 491.396 71.104 C 492.214 72.719 493.475 74.820 493.971 76.561 C 494.453 78.253 494.817 80.635 494.645 82.386 C 494.424 84.644 493.422 87.615 492.254 89.560 C 491.470 90.866 489.952 92.281 488.820 93.300 C 487.874 94.153 486.459 95.104 485.420 95.842 C 485.193 96.003 484.926 96.316 484.651 96.366 C 484.352 96.421 483.905 96.313 483.670 96.121 C 483.479 95.965 483.239 95.624 483.302 95.385 C 483.384 95.074 483.954 95.012 484.222 94.833 C 485.726 93.826 487.850 92.549 489.004 91.154 C 490.352 89.525 491.688 86.906 492.131 84.839 C 492.518 83.039 492.488 80.466 491.947 78.707 C 491.554 77.428 490.661 75.742 489.617 74.905 C 489.199 74.570 488.487 74.122 487.962 74.231 C 487.478 74.331 486.820 74.902 486.797 75.396 C 486.779 75.789 487.408 76.092 487.594 76.438 C 487.668 76.577 487.812 76.775 487.778 76.929 C 487.730 77.145 487.437 77.351 487.226 77.419 C 486.673 77.598 485.803 77.381 485.325 77.051 C 484.660 76.593 484.186 75.501 483.976 74.721 C 483.761 73.922 483.677 72.734 483.976 71.962 C 484.263 71.221 485.053 70.373 485.754 70.000 C 486.428 69.642 488.268 69.632 488.268 69.632 C 488.268 69.632 487.396 68.278 486.985 67.724 C 486.465 67.025 485.653 66.187 485.140 65.483 C 484.903 65.158 484.542 64.738 484.405 64.359 C 484.330 64.151 484.240 63.841 484.302 63.629 C 484.359 63.433 484.546 63.169 484.741 63.110 C 484.991 63.034 485.570 63.378 485.570 63.378 C 485.570 63.378 485.482 62.010 485.645 61.457 C 485.769 61.037 485.955 60.326 486.372 60.191 C 486.580 60.124 486.887 60.291 487.066 60.419 C 487.311 60.594 487.655 61.232 487.655 61.232 C 487.655 61.232 488.500 60.316 488.940 60.022 C 489.513 59.638 490.356 59.124 491.045 59.094 C 491.840 59.059 492.964 59.432 493.546 59.974 C 494.306 60.683 495.082 62.174 494.844 63.186 C 494.672 63.918 493.793 64.913 493.042 64.927 C 492.556 64.935 491.905 64.400 491.760 63.937 M 484.236 162.041 C 485.736 164.282 490.624 168.365 490.624 168.365 C 490.624 168.365 485.935 163.163 484.359 160.625 C 483.121 158.633 481.607 155.822 481.049 153.544 C 480.481 151.222 480.463 147.960 480.710 145.582 C 481.047 142.332 482.230 138.065 483.498 135.054 C 484.853 131.839 487.705 128.084 489.481 125.080 C 489.978 124.239 491.125 122.267 491.125 122.266 C 491.125 122.267 492.231 124.585 492.468 125.651 C 493.630 130.893 493.344 138.226 492.637 143.548 C 492.275 146.275 490.313 152.417 490.313 152.418 C 490.313 152.418 490.393 149.777 490.322 148.647 C 490.202 146.719 489.567 144.194 489.463 142.265 C 489.373 140.574 489.485 138.311 489.601 136.622 C 489.681 135.438 490.032 132.691 490.032 132.691 C 490.032 132.691 488.291 132.384 487.626 132.664 C 486.924 132.961 486.252 133.845 485.882 134.512 C 485.144 135.845 484.796 137.946 484.782 139.470 C 484.762 141.495 485.633 144.126 486.198 146.071 C 486.708 147.829 487.937 150.004 488.303 151.797 C 488.555 153.027 488.753 154.732 488.563 155.973 C 488.351 157.365 486.866 160.348 486.866 160.348 C 486.867 160.347 490.414 154.520 491.466 151.806 C 492.584 148.923 493.603 144.877 493.961 141.805 C 494.490 137.263 494.177 131.104 493.610 126.566 C 493.390 124.800 492.378 120.764 492.378 120.763 C 492.378 120.762 495.616 115.238 496.249 112.604 C 496.665 110.867 496.860 108.408 496.514 106.656 C 495.880 103.444 493.805 99.340 491.619 96.902 C 490.819 96.011 488.370 94.582 488.369 94.582 C 488.370 94.583 492.789 101.590 493.508 105.000 C 493.975 107.215 493.842 110.337 493.344 112.545 C 493.015 114.006 491.376 117.130 491.376 117.130 C 491.375 117.129 488.316 108.285 486.820 104.565 C 484.669 99.219 480.365 92.621 478.994 87.025 C 478.023 83.061 477.784 77.533 478.005 73.458 C 478.197 69.899 480.101 61.762 480.102 61.761 C 480.101 61.763 475.806 71.510 475.416 75.986 C 475.027 80.452 476.282 86.479 477.565 90.774 C 478.769 94.800 481.684 99.671 483.462 103.479 C 484.576 105.865 486.131 109.014 487.193 111.424 C 488.169 113.636 490.270 118.873 490.270 118.873 C 490.270 118.875 483.502 130.143 481.743 135.452 C 480.406 139.486 478.873 145.178 479.300 149.406 C 479.710 153.455 481.972 158.660 484.236 162.041 M 494.377 5.735 C 495.119 5.520 496.537 5.222 496.949 5.876 C 497.730 7.116 494.673 8.504 494.133 9.866 C 493.010 12.695 493.044 16.913 493.077 19.957 C 493.115 23.507 494.154 28.170 494.602 31.692 C 494.853 33.662 495.425 36.276 495.424 38.263 C 495.422 41.354 495.093 45.574 494.015 48.472 C 492.828 51.666 490.525 55.936 487.796 57.976 C 486.334 59.070 483.837 60.329 482.046 59.971 C 481.276 59.817 480.364 59.068 479.951 58.399 C 479.631 57.884 479.605 57.022 479.547 56.418 C 479.500 55.934 479.555 54.797 479.555 54.797 C 479.555 54.798 480.577 56.434 481.225 56.920 C 482.013 57.511 483.307 58.239 484.284 58.111 C 486.545 57.814 488.644 54.912 489.951 53.042 C 490.995 51.547 492.441 49.230 492.255 47.416 C 492.069 45.599 489.475 44.086 488.852 42.370 C 488.151 40.436 488.595 37.563 488.194 35.546 C 487.979 34.467 487.621 33.025 487.162 32.024 C 486.870 31.388 486.031 30.740 485.919 30.049 C 485.867 29.731 485.873 29.207 486.113 28.992 C 486.602 28.554 487.686 28.859 488.300 29.095 C 489.348 29.497 490.616 30.563 491.107 31.574 C 491.838 33.076 491.391 35.478 491.236 37.141 C 491.118 38.414 489.776 40.186 490.378 41.314 C 490.740 41.992 491.939 42.699 492.671 42.461 C 495.637 41.496 494.950 35.203 494.197 32.176 C 493.951 31.187 492.916 30.173 492.394 29.298 C 491.631 28.021 490.633 26.306 489.950 24.984 C 489.559 24.229 488.562 23.255 488.735 22.422 C 488.929 21.489 490.977 21.321 491.151 20.390 C 491.239 19.919 490.743 19.346 490.521 18.921 C 489.987 17.901 488.771 16.800 488.437 15.699 C 488.217 14.971 487.932 13.806 488.343 13.167 C 488.801 12.457 490.456 12.814 490.964 12.140 C 491.438 11.511 491.047 10.294 491.234 9.529 C 491.396 8.865 491.648 7.951 492.062 7.409 C 492.582 6.727 493.554 5.974 494.377 5.735 Z"/>
	</g>
</svg>
