<?xml version="1.0" encoding="utf-8"?>
<!-- Generator: Moho 12.2 build 21774 -->
<!DOCTYPE svg PUBLIC "-//W3C//DTD SVG 1.1//EN" "http://www.w3.org/Graphics/SVG/1.1/DTD/svg11.dtd">
<svg version="1.1" id="Frame_0" xmlns="http://www.w3.org/2000/svg" xmlns:xlink="http://www.w3.org/1999/xlink" width="450px" height="350px">
<g id="Layer_1">
<path fill="#FBF264" fill-rule="evenodd" stroke="#444" d="M 21.227 190.824 C 21.227 190.824 20.583 189.366 20.583 189.366 C 20.583 189.365 21.702 188.992 21.702 188.992 C 21.702 188.992 21.227 190.824 21.227 190.824 M 23.604 196.072 C 23.603 196.071 21.747 192.701 21.747 192.701 C 21.747 192.700 22.559 191.506 22.785 190.935 C 23.083 190.184 23.359 188.304 23.359 188.304 C 23.360 188.303 24.769 187.421 25.309 186.959 C 25.794 186.545 26.779 185.421 26.779 185.421 C 26.779 185.422 25.082 190.104 24.507 192.158 C 24.181 193.318 23.604 196.071 23.604 196.072 M 14.126 190.209 C 15.322 190.191 17.936 189.378 17.936 189.378 C 17.936 189.378 15.892 186.675 14.813 185.715 C 13.332 184.399 11.205 182.603 9.289 182.099 C 7.955 181.748 5.846 181.532 4.697 182.294 C 4.068 182.712 3.581 183.746 3.475 184.493 C 3.352 185.359 3.653 186.614 4.159 187.326 C 4.921 188.398 6.677 189.150 7.921 189.574 C 9.692 190.177 12.255 190.238 14.126 190.209 M 23.098 160.849 C 23.098 160.849 21.430 160.955 21.429 160.955 C 21.430 160.955 21.906 158.995 21.906 158.995 C 21.906 158.995 23.098 160.849 23.098 160.849 M 18.837 157.329 C 19.077 156.352 19.297 154.007 19.297 154.007 C 19.297 154.007 21.058 156.861 21.058 156.861 C 21.058 156.862 20.622 158.600 20.384 159.330 C 20.085 160.246 19.236 162.327 19.236 162.328 C 19.236 162.328 17.910 163.136 17.384 163.542 C 16.869 163.941 15.775 165.000 15.774 165.000 C 15.775 164.999 16.816 162.725 17.219 161.731 C 17.747 160.427 18.500 158.695 18.837 157.329 M 27.982 160.080 C 27.232 160.120 25.371 160.384 25.370 160.384 C 25.371 160.385 28.982 164.121 30.776 165.425 C 31.878 166.226 33.380 167.441 34.723 167.672 C 35.907 167.876 37.848 167.878 38.671 167.004 C 39.166 166.478 39.095 165.357 39.096 164.635 C 39.097 163.988 39.099 163.042 38.732 162.510 C 37.761 161.100 35.240 160.453 33.569 160.080 C 31.933 159.715 29.656 159.993 27.982 160.080 M 26.746 178.823 C 26.745 178.823 12.847 174.779 12.847 174.778 C 12.847 174.778 15.413 170.940 15.414 170.940 C 15.414 170.939 18.606 163.831 18.607 163.830 C 18.606 163.831 12.908 169.657 10.244 171.908 C 7.945 173.850 2.181 177.873 2.180 177.873 C 2.181 177.872 8.596 171.855 10.836 168.845 C 12.265 166.924 13.889 164.138 14.841 161.941 C 16.240 158.714 18.118 150.686 18.118 150.685 C 18.118 150.684 15.462 143.097 14.716 139.741 C 13.705 135.194 12.975 128.998 12.691 124.349 C 12.332 118.467 12.931 104.710 12.931 104.708 C 12.932 104.711 13.637 119.429 14.292 125.708 C 14.682 129.451 15.259 134.449 16.034 138.132 C 16.687 141.239 18.887 148.321 18.887 148.322 C 18.888 148.321 20.115 142.846 20.458 140.468 C 21.292 134.696 21.850 126.921 22.005 121.092 C 22.192 114.087 21.705 104.742 21.344 97.744 C 20.881 88.787 19.235 76.902 19.071 67.935 C 18.930 60.227 19.022 49.898 20.043 42.257 C 21.013 35.008 25.528 18.507 25.528 18.504 C 25.528 18.507 21.863 36.702 21.280 44.618 C 20.800 51.136 21.227 59.874 21.517 66.404 C 21.960 76.361 24.040 89.551 24.203 99.516 C 24.405 111.952 23.660 128.584 22.077 140.921 C 21.696 143.893 20.218 150.731 20.218 150.732 C 20.218 150.733 22.073 154.954 22.074 154.954 C 22.074 154.952 25.189 138.977 26.226 132.080 C 26.838 128.010 27.659 122.571 27.892 118.462 C 28.198 113.082 27.910 105.885 27.679 100.501 C 27.148 88.102 24.412 59.267 24.412 59.263 C 24.412 59.268 29.258 91.933 30.081 106.048 C 30.314 110.039 30.413 115.383 30.194 119.376 C 29.849 125.650 28.833 133.999 27.598 140.161 C 26.570 145.291 22.970 156.975 22.970 156.976 C 22.970 156.977 24.147 159.253 24.147 159.253 C 24.147 159.253 25.961 158.558 26.779 158.436 C 29.298 158.060 32.831 158.014 35.263 158.772 C 36.886 159.278 39.127 160.319 40.114 161.705 C 41.003 162.953 41.635 165.215 41.227 166.693 C 40.881 167.942 39.438 169.241 38.309 169.878 C 37.523 170.322 36.270 170.632 35.372 170.536 C 32.351 170.214 28.942 167.429 26.568 165.533 C 25.345 164.556 22.978 161.747 22.978 161.747 C 22.978 161.747 21.342 161.980 21.342 161.980 C 21.341 161.981 16.132 170.848 16.131 170.848 C 16.132 170.849 30.772 174.982 30.774 174.982 C 30.773 174.983 27.341 179.120 27.341 179.121 C 25.960 181.248 23.680 186.738 23.679 186.739 C 23.680 186.738 27.782 182.702 29.614 181.050 C 32.710 178.257 40.240 172.094 40.241 172.093 C 40.241 172.094 37.274 175.232 36.074 176.641 C 34.538 178.444 32.452 180.839 31.183 182.840 C 29.788 185.041 28.307 188.209 27.325 190.624 C 26.389 192.927 24.775 198.509 24.774 198.510 C 24.775 198.511 27.608 206.520 28.363 210.072 C 29.329 214.615 29.816 220.819 30.116 225.453 C 30.518 231.647 30.386 246.140 30.386 246.142 C 30.386 246.140 29.474 229.499 28.750 222.395 C 28.363 218.608 27.993 213.515 27.096 209.816 C 26.475 207.254 24.187 201.525 24.187 201.525 C 24.187 201.526 22.334 211.943 21.925 216.454 C 21.202 224.414 21.074 235.099 21.294 243.088 C 21.514 251.080 23.134 261.665 23.389 269.656 C 23.784 282.058 24.145 298.699 22.593 311.010 C 21.787 317.399 17.931 331.960 17.931 331.962 C 17.931 331.960 20.448 316.748 20.897 310.163 C 21.611 299.681 21.049 285.643 20.702 275.142 C 20.386 265.576 18.795 252.867 18.790 243.296 C 18.784 231.884 19.249 216.586 21.108 205.326 C 21.482 203.063 22.941 197.904 22.942 197.904 C 22.941 197.903 21.015 194.907 21.015 194.906 C 21.014 194.910 16.182 219.782 15.489 230.594 C 14.902 239.738 15.530 251.990 16.179 261.131 C 16.766 269.401 19.436 288.570 19.436 288.573 C 19.436 288.569 13.255 261.355 12.655 249.461 C 12.053 237.521 13.317 221.469 15.481 209.711 C 16.430 204.554 20.257 192.900 20.258 192.898 C 20.258 192.898 18.478 190.435 18.478 190.434 C 18.478 190.434 16.502 191.242 15.605 191.376 C 13.071 191.755 9.491 191.758 7.078 190.898 C 5.635 190.383 3.841 189.191 2.865 188.010 C 2.164 187.162 1.303 185.775 1.338 184.675 C 1.386 183.167 2.685 181.270 3.861 180.324 C 4.875 179.507 6.677 178.924 7.979 178.949 C 10.023 178.989 12.610 180.373 14.270 181.567 C 16.498 183.171 20.188 188.545 20.189 188.546 C 20.189 188.546 21.624 187.953 21.624 187.953 C 21.625 187.952 26.746 178.824 26.746 178.823 Z"/>
<path fill="#FBF264" fill-rule="evenodd" stroke="#444" d="M 428.772 190.819 C 428.772 190.818 429.417 189.360 429.417 189.360 C 429.417 189.360 428.297 188.987 428.297 188.987 C 428.297 188.987 428.772 190.818 428.772 190.819 M 426.396 196.066 C 426.396 196.065 428.252 192.695 428.253 192.695 C 428.252 192.695 427.441 191.500 427.214 190.929 C 426.916 190.178 426.640 188.298 426.640 188.298 C 426.640 188.298 425.231 187.415 424.691 186.953 C 424.205 186.539 423.221 185.415 423.220 185.415 C 423.221 185.416 424.917 190.098 425.493 192.152 C 425.818 193.312 426.396 196.065 426.396 196.066 M 435.874 190.203 C 434.678 190.185 432.064 189.373 432.063 189.373 C 432.064 189.372 434.108 186.669 435.187 185.709 C 436.667 184.394 438.795 182.597 440.711 182.093 C 442.044 181.743 444.154 181.526 445.303 182.289 C 445.932 182.706 446.419 183.740 446.524 184.487 C 446.647 185.353 446.347 186.608 445.840 187.321 C 445.079 188.392 443.323 189.145 442.079 189.568 C 440.307 190.171 437.745 190.232 435.874 190.203 M 426.902 160.843 C 426.902 160.843 428.570 160.949 428.570 160.949 C 428.570 160.949 428.094 158.990 428.093 158.989 C 428.093 158.990 426.902 160.843 426.902 160.843 M 431.163 157.324 C 430.923 156.347 430.703 154.002 430.703 154.001 C 430.703 154.002 428.942 156.855 428.941 156.856 C 428.941 156.856 429.378 158.594 429.616 159.324 C 429.914 160.240 430.763 162.321 430.763 162.322 C 430.764 162.322 432.090 163.130 432.616 163.536 C 433.131 163.935 434.225 164.994 434.225 164.994 C 434.225 164.994 433.184 162.719 432.781 161.725 C 432.253 160.421 431.499 158.690 431.163 157.324 M 422.018 160.075 C 422.767 160.114 424.629 160.378 424.629 160.378 C 424.629 160.379 421.018 164.116 419.224 165.419 C 418.122 166.220 416.619 167.435 415.276 167.666 C 414.093 167.870 412.152 167.873 411.329 166.998 C 410.834 166.473 410.905 165.351 410.904 164.630 C 410.902 163.983 410.901 163.037 411.268 162.504 C 412.239 161.094 414.760 160.447 416.430 160.075 C 418.066 159.710 420.344 159.987 422.018 160.075 M 423.253 178.817 C 423.255 178.817 437.152 174.773 437.152 174.772 C 437.152 174.772 434.586 170.935 434.586 170.934 C 434.586 170.934 431.393 163.825 431.393 163.824 C 431.394 163.825 437.091 169.651 439.756 171.903 C 442.054 173.844 447.818 177.867 447.819 177.868 C 447.818 177.867 441.404 171.849 439.164 168.839 C 437.735 166.918 436.111 164.132 435.158 161.935 C 433.759 158.708 431.882 150.681 431.882 150.680 C 431.882 150.678 434.538 143.091 435.284 139.735 C 436.294 135.189 437.025 128.992 437.309 124.343 C 437.668 118.462 437.068 104.705 437.068 104.703 C 437.068 104.705 436.362 119.423 435.708 125.702 C 435.318 129.445 434.741 134.443 433.966 138.126 C 433.313 141.233 431.113 148.315 431.112 148.316 C 431.112 148.315 429.885 142.840 429.542 140.462 C 428.708 134.691 428.150 126.915 427.994 121.086 C 427.808 114.081 428.295 104.736 428.656 97.738 C 429.119 88.781 430.765 76.896 430.928 67.929 C 431.069 60.221 430.978 49.892 429.956 42.251 C 428.987 35.002 424.472 18.501 424.471 18.498 C 424.472 18.501 428.137 36.696 428.720 44.612 C 429.200 51.131 428.773 59.869 428.483 66.398 C 428.040 76.355 425.959 89.545 425.797 99.510 C 425.595 111.946 426.340 128.579 427.923 140.916 C 428.304 143.887 429.781 150.725 429.782 150.726 C 429.781 150.727 427.926 154.948 427.926 154.949 C 427.926 154.946 424.810 138.971 423.774 132.074 C 423.162 128.004 422.341 122.566 422.107 118.456 C 421.802 113.076 422.090 105.879 422.320 100.495 C 422.852 88.096 425.588 59.261 425.588 59.257 C 425.588 59.262 420.742 91.928 419.919 106.042 C 419.686 110.034 419.586 115.377 419.806 119.370 C 420.151 125.644 421.167 133.993 422.402 140.155 C 423.429 145.285 427.029 156.969 427.030 156.971 C 427.030 156.971 425.853 159.247 425.853 159.248 C 425.853 159.247 424.038 158.552 423.221 158.430 C 420.702 158.054 417.169 158.009 414.737 158.766 C 413.113 159.272 410.873 160.314 409.886 161.699 C 408.997 162.948 408.364 165.209 408.773 166.687 C 409.118 167.936 410.562 169.235 411.691 169.872 C 412.477 170.316 413.730 170.626 414.628 170.531 C 417.648 170.208 421.058 167.423 423.432 165.527 C 424.655 164.550 427.021 161.741 427.022 161.741 C 427.022 161.741 428.658 161.974 428.658 161.974 C 428.658 161.975 433.868 170.842 433.869 170.843 C 433.867 170.843 419.227 174.976 419.226 174.977 C 419.226 174.977 422.658 179.115 422.659 179.115 C 424.039 181.242 426.320 186.732 426.320 186.733 C 426.320 186.732 422.217 182.696 420.386 181.044 C 417.290 178.251 409.759 172.088 409.758 172.087 C 409.759 172.088 412.725 175.226 413.926 176.635 C 415.462 178.438 417.548 180.834 418.816 182.834 C 420.212 185.035 421.693 188.204 422.674 190.618 C 423.611 192.921 425.225 198.503 425.225 198.504 C 425.225 198.505 422.392 206.514 421.637 210.066 C 420.671 214.609 420.184 220.813 419.883 225.447 C 419.482 231.642 419.613 246.134 419.613 246.136 C 419.613 246.134 420.526 229.493 421.250 222.389 C 421.636 218.603 422.007 213.509 422.904 209.810 C 423.525 207.248 425.813 201.520 425.813 201.519 C 425.813 201.520 427.665 211.937 428.075 216.449 C 428.797 224.408 428.925 235.093 428.706 243.082 C 428.486 251.074 426.866 261.659 426.611 269.650 C 426.216 282.052 425.855 298.693 427.407 311.005 C 428.213 317.393 432.068 331.954 432.069 331.957 C 432.068 331.954 429.552 316.742 429.103 310.157 C 428.388 299.675 428.951 285.637 429.298 275.137 C 429.614 265.571 431.204 252.861 431.210 243.290 C 431.216 231.878 430.751 216.580 428.891 205.320 C 428.518 203.057 427.058 197.899 427.058 197.898 C 427.058 197.898 428.985 194.901 428.985 194.900 C 428.986 194.904 433.818 219.776 434.511 230.588 C 435.097 239.733 434.470 251.985 433.821 261.125 C 433.234 269.395 430.564 288.565 430.563 288.567 C 430.564 288.564 436.745 261.349 437.345 249.455 C 437.947 237.515 436.682 221.463 434.519 209.705 C 433.570 204.548 429.742 192.894 429.742 192.892 C 429.742 192.892 431.521 190.429 431.521 190.429 C 431.522 190.429 433.498 191.236 434.395 191.370 C 436.929 191.749 440.508 191.753 442.922 190.892 C 444.365 190.378 446.158 189.186 447.134 188.004 C 447.835 187.156 448.697 185.769 448.662 184.669 C 448.614 183.161 447.314 181.265 446.139 180.318 C 445.125 179.501 443.323 178.918 442.021 178.944 C 439.977 178.984 437.389 180.367 435.730 181.561 C 433.502 183.165 429.811 188.539 429.811 188.540 C 429.811 188.540 428.376 187.947 428.375 187.947 C 428.375 187.946 423.254 178.818 423.253 178.817 Z"/>
</g>
</svg>
