<?xml version="1.0" encoding="utf-8"?>
<!-- Generator: Moho 12.2 build 21774 -->
<!DOCTYPE svg PUBLIC "-//W3C//DTD SVG 1.1//EN" "http://www.w3.org/Graphics/SVG/1.1/DTD/svg11.dtd">
<svg version="1.1" id="Frame_0" xmlns="http://www.w3.org/2000/svg" xmlns:xlink="http://www.w3.org/1999/xlink" width="100px" height="100px">
<g id="Layer_1">
<path fill="none" stroke="#ffffff" stroke-width="4" stroke-linecap="round" stroke-linejoin="round" d="M 36.396 49.856 C 36.396 57.614 42.448 63.614 49.658 63.614 C 56.868 63.614 62.920 57.614 62.920 49.856 C 62.920 42.097 56.868 36.097 49.658 36.097 C 42.448 36.097 36.396 42.097 36.396 49.856 M 11.620 43.046 C 11.621 43.047 12.322 55.198 12.322 55.200 C 12.322 55.200 17.280 55.575 18.870 56.828 C 20.862 58.397 22.730 61.871 22.616 64.404 C 22.491 67.183 17.698 72.261 17.697 72.262 C 17.698 72.263 27.279 80.909 27.280 80.910 C 27.281 80.909 32.272 76.103 35.027 75.950 C 37.119 75.834 39.941 77.331 41.379 78.855 C 43.708 81.324 45.043 89.556 45.043 89.558 C 45.045 89.557 57.196 88.856 57.197 88.856 C 57.197 88.855 56.756 81.842 58.455 79.623 C 59.563 78.177 62.115 77.086 63.934 77.012 C 67.323 76.874 74.258 81.610 74.259 81.611 C 74.260 81.610 81.972 72.964 81.972 72.963 C 81.972 72.962 77.179 67.335 77.055 64.366 C 76.964 62.192 78.278 59.135 79.914 57.701 C 81.973 55.897 88.750 55.434 88.750 55.433 C 88.750 55.432 88.750 44.683 88.750 44.682 C 88.749 44.682 81.349 43.130 79.336 40.839 C 77.876 39.178 76.898 35.961 77.233 33.776 C 77.611 31.304 81.972 26.919 81.972 26.919 C 81.971 26.918 73.092 18.272 73.091 18.271 C 73.090 18.271 66.966 23.654 63.754 23.531 C 61.547 23.447 58.693 21.543 57.463 19.709 C 56.076 17.640 56.262 11.494 56.262 11.493 C 56.261 11.493 43.409 11.025 43.407 11.025 C 43.407 11.026 44.385 18.894 42.353 21.189 C 40.495 23.286 35.993 24.059 33.274 23.383 C 31.076 22.837 27.515 18.505 27.514 18.505 C 27.513 18.505 18.633 26.217 18.632 26.218 C 18.633 26.218 22.851 31.657 22.934 34.440 C 23.007 36.886 21.634 40.441 19.685 41.921 C 17.740 43.399 11.621 43.046 11.620 43.046 "/>
</g>
</svg>
