<?xml version="1.0" encoding="utf-8"?>
<!-- Generator: Moho 12.2 build 21774 -->
<!DOCTYPE svg PUBLIC "-//W3C//DTD SVG 1.1//EN" "http://www.w3.org/Graphics/SVG/1.1/DTD/svg11.dtd">
<svg version="1.1" id="Frame_0" xmlns="http://www.w3.org/2000/svg" xmlns:xlink="http://www.w3.org/1999/xlink" width="180px" height="100px">
<g id="Всё">
<g id="Layer_8">
<g id="корона">
<clipPath id="e6f86555-a9c2-4a5d-8cd4-ee2ec3f5b2c0">
<path fill="#c69c54" fill-rule="evenodd" stroke="none" d="M 88.308 98.175 C 77.824 97.829 63.578 99.089 53.377 96.645 C 51.140 96.109 46.449 96.075 46.262 93.781 C 46.183 92.802 48.560 92.444 48.575 91.462 C 48.583 90.994 47.809 90.644 47.655 90.202 C 47.378 89.403 47.320 88.159 47.655 87.382 C 47.888 86.844 48.819 86.545 49.037 86.001 C 49.268 85.424 49.367 84.415 48.979 83.929 C 48.590 83.441 47.429 83.829 46.965 83.411 C 45.524 82.114 46.248 78.901 45.474 77.124 C 44.490 74.860 42.290 72.323 40.851 70.317 C 39.585 68.551 37.151 66.606 36.484 64.538 C 35.740 62.226 36.744 56.454 36.741 56.447 C 36.737 56.437 28.977 52.326 28.177 49.020 C 27.141 44.736 31.084 38.754 34.168 35.605 C 37.071 32.640 46.641 29.651 46.652 29.644 C 46.656 29.641 49.096 27.239 50.400 26.613 C 53.379 25.182 57.955 24.422 61.249 24.695 C 67.074 25.178 73.709 30.443 79.402 31.769 C 80.950 32.129 84.661 32.383 84.665 32.379 C 84.672 32.374 84.509 26.000 85.003 23.328 C 85.159 22.484 85.958 21.448 85.851 20.597 C 85.796 20.157 85.065 19.735 85.145 19.298 C 85.212 18.928 85.935 18.805 86.070 18.455 C 86.175 18.183 86.159 17.729 85.999 17.485 C 85.390 16.557 83.601 16.178 82.496 16.290 C 82.206 16.319 81.798 16.474 81.615 16.701 C 81.228 17.183 81.175 18.139 81.321 18.739 C 81.454 19.284 82.293 19.716 82.398 20.267 C 82.460 20.589 82.393 21.082 82.191 21.341 C 82.083 21.480 81.674 21.619 81.674 21.619 C 81.673 21.618 81.454 21.293 81.350 21.161 C 80.000 19.469 76.506 18.061 76.414 15.898 C 76.377 15.042 77.194 13.964 77.876 13.445 C 78.684 12.830 80.139 12.656 81.152 12.593 C 82.222 12.527 83.701 12.662 84.694 13.065 C 86.059 13.619 88.584 16.058 88.588 16.056 C 88.590 16.055 89.111 14.297 88.827 13.620 C 88.397 12.591 86.401 12.379 85.830 11.421 C 85.170 10.314 84.807 8.350 85.297 7.158 C 85.650 6.299 86.988 5.799 87.662 5.160 C 88.457 4.406 89.573 3.421 90.160 2.496 C 90.429 2.071 90.815 0.956 90.817 0.956 C 90.818 0.956 91.161 2.072 91.420 2.496 C 91.991 3.430 93.122 4.406 93.918 5.160 C 94.592 5.799 95.929 6.299 96.282 7.158 C 96.772 8.350 96.409 10.314 95.749 11.421 C 95.178 12.379 93.183 12.591 92.752 13.620 C 92.468 14.297 92.989 16.055 92.991 16.056 C 92.995 16.058 95.520 13.619 96.885 13.065 C 97.878 12.662 99.357 12.527 100.427 12.593 C 101.441 12.656 102.896 12.830 103.704 13.445 C 104.385 13.964 105.202 15.042 105.166 15.898 C 105.073 18.061 101.579 19.469 100.230 21.161 C 100.125 21.293 99.906 21.618 99.906 21.619 C 99.905 21.619 99.497 21.480 99.388 21.341 C 99.186 21.082 99.119 20.589 99.181 20.267 C 99.287 19.716 100.125 19.284 100.258 18.739 C 100.405 18.139 100.352 17.183 99.965 16.701 C 99.782 16.474 99.373 16.319 99.083 16.290 C 97.978 16.178 96.189 16.557 95.580 17.485 C 95.420 17.729 95.404 18.183 95.509 18.455 C 95.644 18.805 96.368 18.928 96.435 19.298 C 96.514 19.735 95.784 20.157 95.728 20.597 C 95.621 21.448 96.420 22.484 96.576 23.328 C 97.070 26.000 96.907 32.374 96.914 32.379 C 96.919 32.383 100.630 32.129 102.178 31.769 C 107.870 30.443 114.506 25.178 120.330 24.695 C 123.624 24.422 128.200 25.182 131.180 26.613 C 132.483 27.239 134.923 29.641 134.927 29.644 C 134.939 29.651 144.508 32.640 147.412 35.605 C 150.495 38.754 154.438 44.736 153.402 49.020 C 152.602 52.326 144.842 56.437 144.838 56.447 C 144.835 56.454 145.839 62.226 145.095 64.538 C 144.429 66.606 141.995 68.551 140.728 70.317 C 139.290 72.323 137.090 74.860 136.105 77.124 C 135.332 78.901 136.055 82.114 134.615 83.411 C 134.151 83.829 132.989 83.441 132.600 83.929 C 132.212 84.415 132.311 85.424 132.543 86.001 C 132.761 86.545 133.691 86.844 133.924 87.382 C 134.259 88.159 134.201 89.403 133.924 90.202 C 133.770 90.644 132.996 90.994 133.004 91.462 C 133.020 92.444 135.397 92.802 135.317 93.781 C 135.130 96.075 130.440 96.109 128.202 96.645 C 118.002 99.089 103.756 97.839 93.272 98.175 C 92.503 98.199 91.479 98.236 90.710 98.236 C 89.989 98.235 89.028 98.198 88.308 98.175 Z"/>
</clipPath>
<path fill="#c69c54" fill-rule="evenodd" stroke="none" d="M 88.308 98.175 C 77.824 97.829 63.578 99.089 53.377 96.645 C 51.140 96.109 46.449 96.075 46.262 93.781 C 46.183 92.802 48.560 92.444 48.575 91.462 C 48.583 90.994 47.809 90.644 47.655 90.202 C 47.378 89.403 47.320 88.159 47.655 87.382 C 47.888 86.844 48.819 86.545 49.037 86.001 C 49.268 85.424 49.367 84.415 48.979 83.929 C 48.590 83.441 47.429 83.829 46.965 83.411 C 45.524 82.114 46.248 78.901 45.474 77.124 C 44.490 74.860 42.290 72.323 40.851 70.317 C 39.585 68.551 37.151 66.606 36.484 64.538 C 35.740 62.226 36.744 56.454 36.741 56.447 C 36.737 56.437 28.977 52.326 28.177 49.020 C 27.141 44.736 31.084 38.754 34.168 35.605 C 37.071 32.640 46.641 29.651 46.652 29.644 C 46.656 29.641 49.096 27.239 50.400 26.613 C 53.379 25.182 57.955 24.422 61.249 24.695 C 67.074 25.178 73.709 30.443 79.402 31.769 C 80.950 32.129 84.661 32.383 84.665 32.379 C 84.672 32.374 84.509 26.000 85.003 23.328 C 85.159 22.484 85.958 21.448 85.851 20.597 C 85.796 20.157 85.065 19.735 85.145 19.298 C 85.212 18.928 85.935 18.805 86.070 18.455 C 86.175 18.183 86.159 17.729 85.999 17.485 C 85.390 16.557 83.601 16.178 82.496 16.290 C 82.206 16.319 81.798 16.474 81.615 16.701 C 81.228 17.183 81.175 18.139 81.321 18.739 C 81.454 19.284 82.293 19.716 82.398 20.267 C 82.460 20.589 82.393 21.082 82.191 21.341 C 82.083 21.480 81.674 21.619 81.674 21.619 C 81.673 21.618 81.454 21.293 81.350 21.161 C 80.000 19.469 76.506 18.061 76.414 15.898 C 76.377 15.042 77.194 13.964 77.876 13.445 C 78.684 12.830 80.139 12.656 81.152 12.593 C 82.222 12.527 83.701 12.662 84.694 13.065 C 86.059 13.619 88.584 16.058 88.588 16.056 C 88.590 16.055 89.111 14.297 88.827 13.620 C 88.397 12.591 86.401 12.379 85.830 11.421 C 85.170 10.314 84.807 8.350 85.297 7.158 C 85.650 6.299 86.988 5.799 87.662 5.160 C 88.457 4.406 89.573 3.421 90.160 2.496 C 90.429 2.071 90.815 0.956 90.817 0.956 C 90.818 0.956 91.161 2.072 91.420 2.496 C 91.991 3.430 93.122 4.406 93.918 5.160 C 94.592 5.799 95.929 6.299 96.282 7.158 C 96.772 8.350 96.409 10.314 95.749 11.421 C 95.178 12.379 93.183 12.591 92.752 13.620 C 92.468 14.297 92.989 16.055 92.991 16.056 C 92.995 16.058 95.520 13.619 96.885 13.065 C 97.878 12.662 99.357 12.527 100.427 12.593 C 101.441 12.656 102.896 12.830 103.704 13.445 C 104.385 13.964 105.202 15.042 105.166 15.898 C 105.073 18.061 101.579 19.469 100.230 21.161 C 100.125 21.293 99.906 21.618 99.906 21.619 C 99.905 21.619 99.497 21.480 99.388 21.341 C 99.186 21.082 99.119 20.589 99.181 20.267 C 99.287 19.716 100.125 19.284 100.258 18.739 C 100.405 18.139 100.352 17.183 99.965 16.701 C 99.782 16.474 99.373 16.319 99.083 16.290 C 97.978 16.178 96.189 16.557 95.580 17.485 C 95.420 17.729 95.404 18.183 95.509 18.455 C 95.644 18.805 96.368 18.928 96.435 19.298 C 96.514 19.735 95.784 20.157 95.728 20.597 C 95.621 21.448 96.420 22.484 96.576 23.328 C 97.070 26.000 96.907 32.374 96.914 32.379 C 96.919 32.383 100.630 32.129 102.178 31.769 C 107.870 30.443 114.506 25.178 120.330 24.695 C 123.624 24.422 128.200 25.182 131.180 26.613 C 132.483 27.239 134.923 29.641 134.927 29.644 C 134.939 29.651 144.508 32.640 147.412 35.605 C 150.495 38.754 154.438 44.736 153.402 49.020 C 152.602 52.326 144.842 56.437 144.838 56.447 C 144.835 56.454 145.839 62.226 145.095 64.538 C 144.429 66.606 141.995 68.551 140.728 70.317 C 139.290 72.323 137.090 74.860 136.105 77.124 C 135.332 78.901 136.055 82.114 134.615 83.411 C 134.151 83.829 132.989 83.441 132.600 83.929 C 132.212 84.415 132.311 85.424 132.543 86.001 C 132.761 86.545 133.691 86.844 133.924 87.382 C 134.259 88.159 134.201 89.403 133.924 90.202 C 133.770 90.644 132.996 90.994 133.004 91.462 C 133.020 92.444 135.397 92.802 135.317 93.781 C 135.130 96.075 130.440 96.109 128.202 96.645 C 118.002 99.089 103.756 97.839 93.272 98.175 C 92.503 98.199 91.479 98.236 90.710 98.236 C 89.989 98.235 89.028 98.198 88.308 98.175 Z"/>
</g>
<g id="тень">
<path fill="#f1e196" fill-rule="evenodd" stroke="none" d="M 73.349 96.066 C 75.382 96.091 78.056 95.349 79.991 94.726 C 81.035 94.389 82.249 93.358 83.342 93.264 C 84.658 93.150 86.299 94.175 87.607 94.360 C 91.697 94.940 97.249 94.571 101.378 94.421 C 105.207 94.282 110.634 95.053 114.112 93.446 C 114.830 93.115 116.123 91.743 116.123 91.740 C 116.122 91.736 112.857 91.394 111.451 91.351 C 106.365 91.195 99.588 91.879 94.500 91.949 C 88.711 92.028 80.986 91.509 75.204 91.786 C 73.433 91.871 69.322 92.334 69.319 92.338 C 69.317 92.341 69.105 94.658 69.713 95.328 C 70.460 96.153 72.236 96.053 73.349 96.066 Z" clip-path="url(#e6f86555-a9c2-4a5d-8cd4-ee2ec3f5b2c0)"/>
<path fill="#f1e196" fill-rule="evenodd" stroke="none" d="M 70.898 84.963 C 75.695 84.537 82.132 84.675 86.947 84.697 C 94.121 84.729 103.781 84.129 110.850 85.350 C 113.049 85.729 115.873 86.737 117.985 87.458 C 121.022 88.495 124.934 90.248 127.943 91.364 C 128.407 91.537 129.472 91.923 129.499 91.918 C 129.733 91.870 121.517 86.153 117.823 84.133 C 116.113 83.199 111.908 81.463 111.904 81.458 C 111.902 81.454 111.246 77.564 111.243 77.561 C 111.234 77.552 98.008 76.969 98.004 76.982 C 98.003 76.989 102.825 81.856 102.823 81.863 C 102.820 81.872 96.099 81.908 93.227 82.109 C 81.897 82.905 63.603 78.760 55.670 86.888 C 55.457 87.106 55.140 87.613 55.335 87.847 C 55.670 88.248 56.448 87.341 56.949 87.191 C 61.010 85.980 66.677 85.337 70.898 84.963 Z" clip-path="url(#e6f86555-a9c2-4a5d-8cd4-ee2ec3f5b2c0)"/>
<path fill="#f1e196" fill-rule="evenodd" stroke="none" d="M 139.491 65.813 C 139.488 65.810 139.445 62.718 139.869 61.486 C 141.406 57.028 146.945 52.990 149.272 48.888 C 150.544 46.645 152.647 40.987 152.656 40.987 C 152.671 40.985 152.966 51.775 151.111 55.860 C 150.177 57.917 147.923 60.105 146.213 61.583 C 144.411 63.142 139.497 65.818 139.491 65.813 Z" clip-path="url(#e6f86555-a9c2-4a5d-8cd4-ee2ec3f5b2c0)"/>
<path fill="#f1e196" fill-rule="evenodd" stroke="#000000" stroke-width="1" stroke-linecap="round" stroke-linejoin="round" d="M 134.942 73.018 C 134.980 73.048 136.260 72.984 136.693 72.668 C 137.210 72.291 137.282 71.271 137.700 70.786 C 138.116 70.302 139.462 70.152 139.407 69.516 C 139.336 68.700 136.871 68.509 136.868 68.510 C 136.866 68.510 135.425 69.559 135.116 70.226 C 134.763 70.988 134.882 72.972 134.942 73.018 Z" clip-path="url(#e6f86555-a9c2-4a5d-8cd4-ee2ec3f5b2c0)"/>
<path fill="#f1e196" fill-rule="evenodd" stroke="none" d="M 42.574 64.978 C 40.966 65.703 39.177 60.703 37.708 61.679 C 36.440 62.521 39.704 65.960 38.380 66.712 C 37.197 67.382 35.244 65.324 34.689 64.083 C 33.892 62.301 33.887 58.389 35.695 57.652 C 38.487 56.516 45.322 63.740 42.574 64.978 Z" clip-path="url(#e6f86555-a9c2-4a5d-8cd4-ee2ec3f5b2c0)"/>
<path fill="#f1e196" fill-rule="evenodd" stroke="none" d="M 46.041 70.738 C 45.189 71.594 42.780 71.045 42.070 70.067 C 41.726 69.591 41.800 68.598 42.126 68.110 C 42.711 67.237 44.515 66.411 45.426 66.935 C 46.427 67.512 46.856 69.919 46.041 70.738 Z" clip-path="url(#e6f86555-a9c2-4a5d-8cd4-ee2ec3f5b2c0)"/>
</g>
<g id="Layer_3">
<path fill="#f1e196" fill-rule="evenodd" stroke="none" d="M 93.405 18.377 C 93.400 18.380 88.018 18.529 88.013 18.527 C 88.007 18.525 85.358 14.851 83.611 14.304 C 82.528 13.965 80.525 13.819 79.854 14.733 C 78.614 16.422 82.184 21.312 82.180 21.318 C 82.177 21.322 79.122 22.622 77.885 22.177 C 75.277 21.239 71.865 17.104 72.768 14.483 C 73.818 11.434 79.891 11.217 83.101 11.524 C 84.480 11.655 86.297 14.293 87.333 13.374 C 88.859 12.020 81.786 11.331 81.894 9.294 C 82.183 3.804 100.933 3.736 100.217 9.186 C 100.079 10.233 98.148 10.523 97.286 11.131 C 96.022 12.023 91.925 13.310 93.166 14.232 C 94.066 14.901 95.384 12.737 96.481 12.504 C 99.214 11.926 104.388 11.132 105.732 13.581 C 107.197 16.252 101.085 22.610 101.075 22.607 C 101.068 22.604 103.598 15.692 101.578 14.151 C 99.920 12.887 96.512 14.711 94.884 16.013 C 94.231 16.536 93.407 18.376 93.405 18.377 Z" clip-path="url(#e6f86555-a9c2-4a5d-8cd4-ee2ec3f5b2c0)"/>
</g>
</g>
<g id="шо">
<g id="Layer_2">
<clipPath id="132adb81-49b4-4344-9d48-550613f474fe">
<path fill="#a70627" fill-rule="evenodd" stroke="none" d="M 50.833 78.079 C 50.821 78.069 47.348 67.885 45.625 63.604 C 43.409 58.099 35.513 51.142 37.524 45.559 C 43.375 29.321 76.467 34.216 93.690 33.083 C 104.078 32.399 118.284 32.760 128.299 35.601 C 133.908 37.191 143.975 38.634 145.730 44.194 C 147.498 49.796 138.649 55.969 136.293 61.349 C 134.051 66.470 130.385 79.006 130.371 79.018 C 130.311 79.069 50.893 78.131 50.833 78.079 Z"/>
</clipPath>
<path fill="#a70627" fill-rule="evenodd" stroke="none" d="M 50.833 78.079 C 50.821 78.069 47.348 67.885 45.625 63.604 C 43.409 58.099 35.513 51.142 37.524 45.559 C 43.375 29.321 76.467 34.216 93.690 33.083 C 104.078 32.399 118.284 32.760 128.299 35.601 C 133.908 37.191 143.975 38.634 145.730 44.194 C 147.498 49.796 138.649 55.969 136.293 61.349 C 134.051 66.470 130.385 79.006 130.371 79.018 C 130.311 79.069 50.893 78.131 50.833 78.079 Z"/>
</g>
<g id="Layer_2">
<path fill="#8a0521" fill-rule="evenodd" stroke="none" d="M 100.633 24.648 C 105.993 29.253 108.468 39.617 109.011 46.662 C 109.499 52.984 107.000 61.438 104.740 67.362 C 102.630 72.891 100.197 81.845 94.883 84.448 C 92.624 85.555 88.825 85.090 86.504 84.120 C 82.967 82.641 79.566 78.292 77.468 75.084 C 76.081 72.963 75.030 69.684 74.262 67.269 C 72.301 61.100 69.584 52.641 69.747 46.169 C 69.871 41.252 71.464 34.615 73.780 30.275 C 74.599 28.740 76.003 26.737 77.468 25.798 C 81.831 23.001 89.283 22.131 94.444 22.598 C 96.392 22.774 99.149 23.374 100.633 24.648 Z" clip-path="url(#132adb81-49b4-4344-9d48-550613f474fe)"/>
<path fill="none" stroke="#8a0521" stroke-width="1" stroke-linecap="butt" stroke-linejoin="round" d="M 77.468 25.798 C 76.003 26.737 74.599 28.740 73.780 30.275 " clip-path="url(#132adb81-49b4-4344-9d48-550613f474fe)"/>
<path fill="none" stroke="#8a0521" stroke-width="1" stroke-linecap="butt" stroke-linejoin="round" d="M 74.262 67.269 C 75.030 69.684 76.081 72.963 77.468 75.084 " clip-path="url(#132adb81-49b4-4344-9d48-550613f474fe)"/>
<path fill="none" stroke="#8a0521" stroke-width="1" stroke-linecap="butt" stroke-linejoin="round" d="M 77.468 75.084 C 79.566 78.292 82.967 82.641 86.504 84.120 " clip-path="url(#132adb81-49b4-4344-9d48-550613f474fe)"/>
<path fill="#8a0521" fill-rule="evenodd" stroke="none" d="M 53.023 21.707 C 60.321 20.284 77.466 25.797 77.468 25.798 C 76.003 26.737 74.599 28.740 73.780 30.275 C 73.780 30.275 70.292 29.119 68.775 29.309 C 64.232 29.879 57.819 32.870 55.480 36.807 C 54.463 38.519 54.739 41.424 54.839 43.413 C 54.997 46.579 55.308 51.097 57.051 53.744 C 57.882 55.005 60.195 55.586 61.002 56.862 C 61.445 57.563 61.240 58.858 61.723 59.532 C 63.111 61.467 66.868 61.827 68.655 63.401 C 69.941 64.533 70.448 67.530 72.109 67.948 C 72.766 68.114 74.262 67.269 74.262 67.269 C 75.030 69.684 76.081 72.963 77.468 75.084 C 79.566 78.292 82.967 82.641 86.504 84.120 C 86.501 84.120 68.517 87.495 61.219 85.389 C 55.367 83.701 48.532 78.474 44.429 73.972 C 36.433 65.196 23.119 50.103 26.463 38.712 C 29.128 29.634 43.737 23.518 53.023 21.707 Z" clip-path="url(#132adb81-49b4-4344-9d48-550613f474fe)"/>
<path fill="none" stroke="#8a0521" stroke-width="1" stroke-linecap="butt" stroke-linejoin="round" d="M 100.633 24.648 C 99.149 23.374 96.392 22.774 94.444 22.598 " clip-path="url(#132adb81-49b4-4344-9d48-550613f474fe)"/>
<path fill="none" stroke="#8a0521" stroke-width="1" stroke-linecap="butt" stroke-linejoin="round" d="M 94.883 84.448 C 100.197 81.845 102.630 72.891 104.740 67.362 " clip-path="url(#132adb81-49b4-4344-9d48-550613f474fe)"/>
<path fill="#8a0521" fill-rule="evenodd" stroke="none" d="M 125.935 40.189 C 125.026 35.535 120.814 29.812 116.796 27.294 C 112.632 24.685 100.634 24.648 100.633 24.648 C 99.149 23.374 96.392 22.774 94.444 22.598 C 94.449 22.598 134.184 16.445 144.030 27.700 C 152.928 37.871 151.818 62.112 143.476 72.745 C 134.219 84.542 94.887 84.447 94.883 84.448 C 100.197 81.845 102.630 72.891 104.740 67.362 C 104.740 67.362 109.296 64.845 111.372 64.048 C 113.096 63.386 115.843 63.522 117.300 62.386 C 118.671 61.316 119.445 58.932 120.201 57.366 C 120.650 56.435 121.007 55.086 121.487 54.171 C 122.080 53.041 123.339 51.803 123.848 50.633 C 125.121 47.702 126.547 43.325 125.935 40.189 Z" clip-path="url(#132adb81-49b4-4344-9d48-550613f474fe)"/>
</g>
</g>
<g id="оно">
<g id="узоры_2">
<clipPath id="13bc0c15-3125-4d9f-8c05-3bd4a3e38863">
<path fill="#f1e196" fill-rule="evenodd" stroke="none" d="M 85.080 31.277 C 85.447 28.622 85.461 24.632 87.210 22.601 C 88.107 21.558 89.970 20.455 91.337 20.605 C 93.203 20.810 95.191 23.029 96.085 24.680 C 97.081 26.519 96.821 29.511 96.939 31.600 C 96.961 31.976 96.949 32.479 96.948 32.855 C 96.947 32.948 96.947 33.072 96.945 33.164 C 96.941 33.326 96.940 33.543 96.926 33.704 C 96.289 41.153 94.911 51.091 92.944 58.304 M 88.490 58.521 C 87.917 57.274 86.381 46.469 85.776 41.263 C 85.455 38.498 85.022 34.797 85.034 32.014 C 85.034 31.792 85.050 31.496 85.080 31.277 C 85.080 31.277 80.134 31.731 78.104 31.218 C 76.065 30.703 73.895 28.625 71.906 27.938 C 68.584 26.789 63.842 25.720 60.341 26.042 C 57.694 26.286 54.273 27.617 51.964 28.933 C 50.345 29.856 48.319 31.418 47.179 32.891 C 45.959 34.466 44.912 36.052 44.380 38.911 C 44.108 40.368 44.283 41.301 44.500 42.292 C 45.417 46.475 48.908 51.260 50.675 55.160 C 51.755 57.542 54.106 63.170 54.115 63.170 C 54.127 63.169 54.665 54.754 53.992 51.238 C 53.291 47.571 48.751 43.289 49.500 39.631 C 50.508 34.708 56.779 29.298 61.662 28.115 C 66.095 27.041 71.777 31.661 76.307 32.195 C 78.907 32.502 85.033 32.014 85.034 32.014 Z"/>
<path fill="none" stroke="#f1e196" stroke-width="1" stroke-linecap="butt" stroke-linejoin="round" d="M 88.490 58.521 C 87.917 57.274 86.381 46.469 85.776 41.263 "/>
<path fill="none" stroke="#f1e196" stroke-width="1" stroke-linecap="butt" stroke-linejoin="round" d="M 85.776 41.263 C 85.455 38.498 85.022 34.797 85.034 32.014 "/>
<path fill="none" stroke="#f1e196" stroke-width="1" stroke-linecap="butt" stroke-linejoin="round" d="M 85.034 32.014 C 85.034 31.792 85.050 31.496 85.080 31.277 "/>
<path fill="none" stroke="#f1e196" stroke-width="1" stroke-linecap="butt" stroke-linejoin="round" d="M 85.080 31.277 C 85.447 28.622 85.461 24.632 87.210 22.601 "/>
<path fill="none" stroke="#f1e196" stroke-width="1" stroke-linecap="butt" stroke-linejoin="round" d="M 87.210 22.601 C 88.107 21.558 89.970 20.455 91.337 20.605 "/>
<path fill="none" stroke="#f1e196" stroke-width="1" stroke-linecap="butt" stroke-linejoin="round" d="M 91.337 20.605 C 93.203 20.810 95.191 23.029 96.085 24.680 "/>
<path fill="none" stroke="#f1e196" stroke-width="1" stroke-linecap="butt" stroke-linejoin="round" d="M 96.085 24.680 C 97.081 26.519 96.821 29.511 96.939 31.600 "/>
<path fill="none" stroke="#f1e196" stroke-width="1" stroke-linecap="butt" stroke-linejoin="round" d="M 96.939 31.600 C 96.961 31.976 96.949 32.479 96.948 32.855 "/>
<path fill="none" stroke="#f1e196" stroke-width="1" stroke-linecap="butt" stroke-linejoin="round" d="M 96.948 32.855 C 96.947 32.948 96.947 33.072 96.945 33.164 "/>
<path fill="none" stroke="#f1e196" stroke-width="1" stroke-linecap="butt" stroke-linejoin="round" d="M 96.945 33.164 C 96.941 33.326 96.940 33.543 96.926 33.704 "/>
<path fill="none" stroke="#f1e196" stroke-width="1" stroke-linecap="butt" stroke-linejoin="round" d="M 96.926 33.704 C 96.289 41.153 94.911 51.091 92.944 58.304 "/>
<path fill="#f1e196" fill-rule="evenodd" stroke="none" d="M 88.490 58.521 C 87.917 57.274 86.381 46.469 85.776 41.263 C 85.455 38.498 85.022 34.797 85.034 32.014 C 85.034 31.792 85.050 31.496 85.080 31.277 C 85.447 28.622 85.461 24.632 87.210 22.601 C 88.107 21.558 89.970 20.455 91.337 20.605 C 93.203 20.810 95.191 23.029 96.085 24.680 C 97.081 26.519 96.821 29.511 96.939 31.600 C 96.961 31.976 96.949 32.479 96.948 32.855 C 96.947 32.948 96.947 33.072 96.945 33.164 C 96.941 33.326 96.940 33.543 96.926 33.704 C 96.289 41.153 94.911 51.091 92.944 58.304 C 92.750 59.014 92.727 60.199 92.121 60.617 C 91.604 60.973 90.591 60.894 90.028 60.617 C 89.329 60.272 88.575 58.707 88.490 58.521 Z"/>
<path fill="none" stroke="#f1e196" stroke-width="1" stroke-linecap="butt" stroke-linejoin="round" d="M 96.939 31.600 C 96.961 31.976 96.949 32.479 96.948 32.855 "/>
<path fill="none" stroke="#f1e196" stroke-width="1" stroke-linecap="butt" stroke-linejoin="round" d="M 96.948 32.855 C 96.947 32.948 96.947 33.072 96.945 33.164 "/>
<path fill="#f1e196" fill-rule="evenodd" stroke="none" d="M 98.229 32.210 C 97.813 32.111 96.940 31.600 96.939 31.600 C 96.961 31.976 96.949 32.479 96.948 32.855 C 96.947 32.948 96.947 33.072 96.945 33.164 C 96.945 33.165 101.340 33.676 103.202 33.423 C 107.649 32.816 112.820 27.917 117.285 28.373 C 117.986 28.444 118.795 29.028 119.421 29.350 C 121.239 30.284 123.870 31.334 125.300 32.795 C 127.251 34.787 129.384 38.217 129.688 40.989 C 130.184 45.510 125.525 50.889 125.003 55.408 C 124.759 57.518 124.652 60.490 125.404 62.476 C 125.495 62.716 125.818 62.940 125.875 63.191 C 126.062 64.012 124.627 65.353 125.244 65.926 C 126.543 67.132 128.318 63.090 129.242 61.577 C 129.784 60.690 130.283 59.366 130.505 58.351 C 130.778 57.095 130.321 55.295 130.715 54.072 C 131.302 52.251 133.606 50.580 134.297 48.796 C 135.318 46.162 135.967 42.234 135.466 39.454 C 135.289 38.469 134.614 37.268 134.086 36.418 C 133.109 34.846 131.465 32.963 130.106 31.707 C 128.057 29.815 125.145 27.233 122.493 26.369 C 120.564 25.741 117.733 25.764 115.737 26.121 C 111.455 26.888 106.789 31.226 102.529 32.103 C 101.265 32.363 99.485 32.507 98.229 32.210 Z"/>
<path fill="none" stroke="#fff5f6" stroke-width="1" stroke-linecap="butt" stroke-linejoin="round" d="M 44.500 42.292 C 44.283 41.301 44.108 40.368 44.380 38.911 "/>
<path fill="none" stroke="#fff5f6" stroke-width="1" stroke-linecap="butt" stroke-linejoin="round" d="M 44.380 38.911 C 44.912 36.052 45.959 34.466 47.179 32.891 "/>
<path fill="#fff5f6" fill-rule="evenodd" stroke="none" d="M 42.635 40.477 C 43.415 40.509 44.500 42.292 44.500 42.292 C 44.283 41.301 44.108 40.368 44.380 38.911 C 44.912 36.052 45.959 34.466 47.179 32.891 C 47.177 32.892 37.559 37.001 34.941 40.427 C 33.721 42.023 32.524 44.745 32.722 46.744 C 33.127 50.849 39.061 54.205 40.542 58.056 C 40.954 59.128 41.204 60.675 41.220 61.823 C 41.232 62.671 40.691 63.784 40.822 64.621 C 41.426 68.483 47.545 75.769 47.557 75.774 C 47.559 75.774 49.762 75.468 49.763 75.467 C 49.773 75.456 47.542 65.234 45.654 61.201 C 43.998 57.664 39.190 54.218 38.399 50.394 C 38.013 48.527 38.398 45.809 39.230 44.093 C 39.879 42.752 41.146 40.415 42.635 40.477 Z"/>
<path fill="none" stroke="#fff5f6" stroke-width="1" stroke-linecap="butt" stroke-linejoin="round" d="M 134.086 36.418 C 133.109 34.846 131.465 32.963 130.106 31.707 "/>
<path fill="#fff5f6" fill-rule="evenodd" stroke="none" d="M 144.184 44.023 C 143.179 40.366 134.087 36.419 134.086 36.418 C 133.109 34.846 131.465 32.963 130.106 31.707 C 130.107 31.708 137.203 32.591 139.682 34.229 C 143.614 36.828 148.818 42.231 148.913 46.944 C 149.011 51.837 141.236 55.794 139.796 60.471 C 139.251 62.241 140.281 64.973 139.463 66.635 C 138.743 68.096 136.126 68.767 135.382 70.216 C 134.795 71.357 135.552 73.369 134.882 74.464 C 134.143 75.671 130.939 77.051 130.935 77.049 C 130.928 77.045 132.216 71.898 132.881 69.723 C 133.699 67.045 134.885 63.498 135.951 60.908 C 138.095 55.697 145.676 49.458 144.184 44.023 Z"/>
</clipPath>
<path fill="#f1e196" fill-rule="evenodd" stroke="none" d="M 85.080 31.277 C 85.447 28.622 85.461 24.632 87.210 22.601 C 88.107 21.558 89.970 20.455 91.337 20.605 C 93.203 20.810 95.191 23.029 96.085 24.680 C 97.081 26.519 96.821 29.511 96.939 31.600 C 96.961 31.976 96.949 32.479 96.948 32.855 C 96.947 32.948 96.947 33.072 96.945 33.164 C 96.941 33.326 96.940 33.543 96.926 33.704 C 96.289 41.153 94.911 51.091 92.944 58.304 M 88.490 58.521 C 87.917 57.274 86.381 46.469 85.776 41.263 C 85.455 38.498 85.022 34.797 85.034 32.014 C 85.034 31.792 85.050 31.496 85.080 31.277 C 85.080 31.277 80.134 31.731 78.104 31.218 C 76.065 30.703 73.895 28.625 71.906 27.938 C 68.584 26.789 63.842 25.720 60.341 26.042 C 57.694 26.286 54.273 27.617 51.964 28.933 C 50.345 29.856 48.319 31.418 47.179 32.891 C 45.959 34.466 44.912 36.052 44.380 38.911 C 44.108 40.368 44.283 41.301 44.500 42.292 C 45.417 46.475 48.908 51.260 50.675 55.160 C 51.755 57.542 54.106 63.170 54.115 63.170 C 54.127 63.169 54.665 54.754 53.992 51.238 C 53.291 47.571 48.751 43.289 49.500 39.631 C 50.508 34.708 56.779 29.298 61.662 28.115 C 66.095 27.041 71.777 31.661 76.307 32.195 C 78.907 32.502 85.033 32.014 85.034 32.014 Z"/>
<path fill="none" stroke="#f1e196" stroke-width="1" stroke-linecap="butt" stroke-linejoin="round" d="M 88.490 58.521 C 87.917 57.274 86.381 46.469 85.776 41.263 "/>
<path fill="none" stroke="#f1e196" stroke-width="1" stroke-linecap="butt" stroke-linejoin="round" d="M 85.776 41.263 C 85.455 38.498 85.022 34.797 85.034 32.014 "/>
<path fill="none" stroke="#f1e196" stroke-width="1" stroke-linecap="butt" stroke-linejoin="round" d="M 85.034 32.014 C 85.034 31.792 85.050 31.496 85.080 31.277 "/>
<path fill="none" stroke="#f1e196" stroke-width="1" stroke-linecap="butt" stroke-linejoin="round" d="M 85.080 31.277 C 85.447 28.622 85.461 24.632 87.210 22.601 "/>
<path fill="none" stroke="#f1e196" stroke-width="1" stroke-linecap="butt" stroke-linejoin="round" d="M 87.210 22.601 C 88.107 21.558 89.970 20.455 91.337 20.605 "/>
<path fill="none" stroke="#f1e196" stroke-width="1" stroke-linecap="butt" stroke-linejoin="round" d="M 91.337 20.605 C 93.203 20.810 95.191 23.029 96.085 24.680 "/>
<path fill="none" stroke="#f1e196" stroke-width="1" stroke-linecap="butt" stroke-linejoin="round" d="M 96.085 24.680 C 97.081 26.519 96.821 29.511 96.939 31.600 "/>
<path fill="none" stroke="#f1e196" stroke-width="1" stroke-linecap="butt" stroke-linejoin="round" d="M 96.939 31.600 C 96.961 31.976 96.949 32.479 96.948 32.855 "/>
<path fill="none" stroke="#f1e196" stroke-width="1" stroke-linecap="butt" stroke-linejoin="round" d="M 96.948 32.855 C 96.947 32.948 96.947 33.072 96.945 33.164 "/>
<path fill="none" stroke="#f1e196" stroke-width="1" stroke-linecap="butt" stroke-linejoin="round" d="M 96.945 33.164 C 96.941 33.326 96.940 33.543 96.926 33.704 "/>
<path fill="none" stroke="#f1e196" stroke-width="1" stroke-linecap="butt" stroke-linejoin="round" d="M 96.926 33.704 C 96.289 41.153 94.911 51.091 92.944 58.304 "/>
<path fill="#f1e196" fill-rule="evenodd" stroke="none" d="M 88.490 58.521 C 87.917 57.274 86.381 46.469 85.776 41.263 C 85.455 38.498 85.022 34.797 85.034 32.014 C 85.034 31.792 85.050 31.496 85.080 31.277 C 85.447 28.622 85.461 24.632 87.210 22.601 C 88.107 21.558 89.970 20.455 91.337 20.605 C 93.203 20.810 95.191 23.029 96.085 24.680 C 97.081 26.519 96.821 29.511 96.939 31.600 C 96.961 31.976 96.949 32.479 96.948 32.855 C 96.947 32.948 96.947 33.072 96.945 33.164 C 96.941 33.326 96.940 33.543 96.926 33.704 C 96.289 41.153 94.911 51.091 92.944 58.304 C 92.750 59.014 92.727 60.199 92.121 60.617 C 91.604 60.973 90.591 60.894 90.028 60.617 C 89.329 60.272 88.575 58.707 88.490 58.521 Z"/>
<path fill="none" stroke="#f1e196" stroke-width="1" stroke-linecap="butt" stroke-linejoin="round" d="M 96.939 31.600 C 96.961 31.976 96.949 32.479 96.948 32.855 "/>
<path fill="none" stroke="#f1e196" stroke-width="1" stroke-linecap="butt" stroke-linejoin="round" d="M 96.948 32.855 C 96.947 32.948 96.947 33.072 96.945 33.164 "/>
<path fill="#f1e196" fill-rule="evenodd" stroke="none" d="M 98.229 32.210 C 97.813 32.111 96.940 31.600 96.939 31.600 C 96.961 31.976 96.949 32.479 96.948 32.855 C 96.947 32.948 96.947 33.072 96.945 33.164 C 96.945 33.165 101.340 33.676 103.202 33.423 C 107.649 32.816 112.820 27.917 117.285 28.373 C 117.986 28.444 118.795 29.028 119.421 29.350 C 121.239 30.284 123.870 31.334 125.300 32.795 C 127.251 34.787 129.384 38.217 129.688 40.989 C 130.184 45.510 125.525 50.889 125.003 55.408 C 124.759 57.518 124.652 60.490 125.404 62.476 C 125.495 62.716 125.818 62.940 125.875 63.191 C 126.062 64.012 124.627 65.353 125.244 65.926 C 126.543 67.132 128.318 63.090 129.242 61.577 C 129.784 60.690 130.283 59.366 130.505 58.351 C 130.778 57.095 130.321 55.295 130.715 54.072 C 131.302 52.251 133.606 50.580 134.297 48.796 C 135.318 46.162 135.967 42.234 135.466 39.454 C 135.289 38.469 134.614 37.268 134.086 36.418 C 133.109 34.846 131.465 32.963 130.106 31.707 C 128.057 29.815 125.145 27.233 122.493 26.369 C 120.564 25.741 117.733 25.764 115.737 26.121 C 111.455 26.888 106.789 31.226 102.529 32.103 C 101.265 32.363 99.485 32.507 98.229 32.210 Z"/>
<path fill="none" stroke="#fff5f6" stroke-width="1" stroke-linecap="butt" stroke-linejoin="round" d="M 44.500 42.292 C 44.283 41.301 44.108 40.368 44.380 38.911 "/>
<path fill="none" stroke="#fff5f6" stroke-width="1" stroke-linecap="butt" stroke-linejoin="round" d="M 44.380 38.911 C 44.912 36.052 45.959 34.466 47.179 32.891 "/>
<path fill="#fff5f6" fill-rule="evenodd" stroke="none" d="M 42.635 40.477 C 43.415 40.509 44.500 42.292 44.500 42.292 C 44.283 41.301 44.108 40.368 44.380 38.911 C 44.912 36.052 45.959 34.466 47.179 32.891 C 47.177 32.892 37.559 37.001 34.941 40.427 C 33.721 42.023 32.524 44.745 32.722 46.744 C 33.127 50.849 39.061 54.205 40.542 58.056 C 40.954 59.128 41.204 60.675 41.220 61.823 C 41.232 62.671 40.691 63.784 40.822 64.621 C 41.426 68.483 47.545 75.769 47.557 75.774 C 47.559 75.774 49.762 75.468 49.763 75.467 C 49.773 75.456 47.542 65.234 45.654 61.201 C 43.998 57.664 39.190 54.218 38.399 50.394 C 38.013 48.527 38.398 45.809 39.230 44.093 C 39.879 42.752 41.146 40.415 42.635 40.477 Z"/>
<path fill="none" stroke="#fff5f6" stroke-width="1" stroke-linecap="butt" stroke-linejoin="round" d="M 134.086 36.418 C 133.109 34.846 131.465 32.963 130.106 31.707 "/>
<path fill="#fff5f6" fill-rule="evenodd" stroke="none" d="M 144.184 44.023 C 143.179 40.366 134.087 36.419 134.086 36.418 C 133.109 34.846 131.465 32.963 130.106 31.707 C 130.107 31.708 137.203 32.591 139.682 34.229 C 143.614 36.828 148.818 42.231 148.913 46.944 C 149.011 51.837 141.236 55.794 139.796 60.471 C 139.251 62.241 140.281 64.973 139.463 66.635 C 138.743 68.096 136.126 68.767 135.382 70.216 C 134.795 71.357 135.552 73.369 134.882 74.464 C 134.143 75.671 130.939 77.051 130.935 77.049 C 130.928 77.045 132.216 71.898 132.881 69.723 C 133.699 67.045 134.885 63.498 135.951 60.908 C 138.095 55.697 145.676 49.458 144.184 44.023 Z"/>
</g>
<g id="Layer_2">
<path fill="#c69c54" fill-rule="evenodd" stroke="none" d="M 129.859 62.007 C 129.848 62.006 127.197 54.748 128.235 51.839 C 128.508 51.072 130.049 49.823 130.050 49.821 C 130.050 49.819 129.841 48.461 130.048 47.934 C 130.209 47.527 131.025 46.850 131.026 46.849 C 131.026 46.847 130.978 45.371 131.076 44.748 C 131.198 43.977 131.830 42.261 131.830 42.258 C 131.830 42.256 131.334 41.084 131.211 40.555 C 131.069 39.943 130.993 38.475 130.992 38.473 C 130.992 38.472 130.103 37.758 129.956 37.315 C 129.854 37.010 130.094 36.557 130.018 36.245 C 129.923 35.859 129.326 35.116 129.325 35.115 C 129.323 35.114 128.029 34.585 127.696 34.119 C 127.358 33.646 127.278 32.230 127.276 32.228 C 127.275 32.227 126.013 31.854 125.669 31.441 C 125.336 31.042 125.196 29.778 125.195 29.776 C 125.193 29.775 123.539 29.546 123.030 29.094 C 122.637 28.745 122.277 27.515 122.275 27.514 C 122.274 27.514 121.518 27.884 121.182 27.824 C 120.799 27.756 120.145 27.046 120.143 27.046 C 120.142 27.046 119.362 27.557 118.983 27.545 C 118.660 27.534 118.017 27.067 118.016 27.067 C 118.014 27.067 116.823 27.816 116.244 27.835 C 115.807 27.849 114.864 27.371 114.863 27.371 C 114.860 27.372 113.542 28.630 112.833 28.921 C 112.226 29.170 110.667 29.216 110.665 29.217 C 110.662 29.218 108.968 30.460 108.137 30.787 C 107.454 31.057 105.832 31.256 105.740 31.278 C 105.590 31.315 103.101 32.166 101.930 32.374 C 100.758 32.581 98.884 33.420 97.974 32.653 C 97.653 32.383 97.477 31.698 97.616 31.303 C 100.733 22.431 119.709 17.625 127.716 22.555 C 135.948 27.623 134.997 44.729 133.425 54.266 C 133.009 56.789 129.867 62.007 129.859 62.007 Z" clip-path="url(#13bc0c15-3125-4d9f-8c05-3bd4a3e38863)"/>
<path fill="#c69c54" fill-rule="evenodd" stroke="none" d="M 57.163 64.422 C 57.173 64.418 57.308 56.693 55.377 54.282 C 54.868 53.646 53.004 52.970 53.002 52.968 C 53.001 52.966 52.755 51.614 52.387 51.184 C 52.102 50.851 51.110 50.478 51.109 50.477 C 51.107 50.476 50.671 49.065 50.375 48.509 C 50.008 47.820 48.850 46.404 48.849 46.401 C 48.848 46.399 48.934 45.130 48.877 44.589 C 48.812 43.965 48.404 42.552 48.404 42.550 C 48.404 42.549 49.011 41.584 49.006 41.117 C 49.002 40.796 48.627 40.446 48.597 40.126 C 48.560 39.730 48.883 38.833 48.883 38.832 C 48.884 38.830 49.934 37.907 50.097 37.358 C 50.262 36.801 49.875 35.436 49.876 35.434 C 49.877 35.433 50.888 34.640 51.138 34.165 C 51.338 33.786 51.424 32.765 51.424 32.764 C 51.426 32.763 52.853 32.350 53.165 31.849 C 53.472 31.357 53.225 29.919 53.226 29.918 C 53.228 29.917 54.514 30.309 54.989 30.072 C 55.616 29.758 56.151 28.043 56.153 28.042 C 56.154 28.042 57.153 28.492 57.544 28.323 C 57.982 28.134 58.360 26.958 58.362 26.958 C 58.363 26.957 59.631 27.382 60.174 27.282 C 60.596 27.205 61.412 26.570 61.413 26.570 C 61.414 26.570 62.028 27.069 62.350 27.108 C 62.742 27.156 63.608 26.725 63.610 26.724 C 63.612 26.724 65.073 27.053 65.693 27.219 C 66.221 27.361 67.375 27.713 67.441 27.739 C 67.563 27.786 69.507 28.889 70.456 29.232 C 74.628 30.743 83.380 36.153 84.945 32.205 C 86.042 29.436 80.458 26.117 77.606 24.870 C 68.990 21.103 52.258 19.160 46.300 26.435 C 40.176 33.914 46.662 49.771 51.264 58.272 C 52.482 60.520 57.156 64.426 57.163 64.422 Z" clip-path="url(#13bc0c15-3125-4d9f-8c05-3bd4a3e38863)"/>
<path fill="#c69c54" fill-rule="evenodd" stroke="none" d="M 90.837 16.719 C 92.219 16.732 94.833 23.392 94.876 37.515 C 94.915 50.793 92.540 57.064 91.241 57.098 C 89.942 57.132 86.856 51.001 86.596 37.717 C 86.317 23.438 89.440 16.706 90.837 16.719 Z" clip-path="url(#13bc0c15-3125-4d9f-8c05-3bd4a3e38863)"/>
</g>
</g>
<g id="оно_2">
<g id="узоры">
<clipPath id="4a14a96f-5cf1-46fc-851d-0bd09f836b45">
<path fill="#f1e196" fill-rule="evenodd" stroke="none" d="M 73.263 73.779 C 73.262 73.778 71.929 73.837 71.929 73.837 C 71.929 73.838 71.705 74.296 71.552 74.446 C 70.192 75.778 67.706 76.989 65.809 77.144 C 64.982 77.211 63.848 76.918 63.111 76.535 C 62.401 76.165 61.131 74.746 61.131 74.744 C 61.131 74.743 61.715 74.202 61.850 73.898 C 62.068 73.408 62.142 72.644 62.033 72.119 C 61.949 71.718 61.382 70.921 61.382 70.919 C 61.382 70.915 62.939 67.449 64.063 67.900 C 65.140 68.332 63.905 70.611 64.010 71.766 C 64.075 72.489 64.009 73.570 64.454 74.142 C 64.673 74.423 65.495 74.711 65.496 74.710 C 65.499 74.709 65.607 72.311 65.993 71.375 C 66.542 70.042 69.129 68.981 68.910 67.556 C 68.752 66.529 67.190 65.732 66.210 65.386 C 64.816 64.893 62.532 64.707 61.282 65.498 C 59.820 66.422 58.795 70.703 58.791 70.700 C 58.788 70.698 58.912 68.299 59.086 67.285 C 59.383 65.552 61.210 63.275 60.607 61.623 C 59.869 59.599 56.272 59.049 54.597 57.693 C 53.280 56.626 50.575 53.726 50.570 53.729 C 50.567 53.731 50.955 56.252 50.986 57.342 C 51.024 58.654 50.419 60.431 50.722 61.708 C 51.182 63.640 54.200 67.335 54.204 67.341 C 54.206 67.344 56.689 70.550 56.687 70.554 C 56.684 70.561 51.931 65.555 49.527 66.258 C 49.030 66.403 48.523 67.082 48.431 67.592 C 47.951 70.240 52.835 75.409 52.842 75.404 C 52.844 75.402 52.850 73.714 52.930 72.996 C 53.033 72.079 53.504 69.977 53.507 69.976 C 53.509 69.975 55.152 71.480 55.153 71.482 C 55.153 71.483 55.050 72.265 55.048 72.602 C 55.043 73.288 55.108 74.209 55.258 74.879 C 55.329 75.193 55.679 75.580 55.608 75.894 C 55.384 76.897 53.893 77.809 52.877 77.960 C 52.223 78.058 51.382 77.560 50.776 77.295 C 49.784 76.861 48.362 76.298 47.659 75.474 C 46.624 74.260 47.322 71.133 45.873 70.466 C 45.603 70.342 44.893 70.607 44.893 70.606 C 44.890 70.605 45.016 68.512 44.437 67.945 C 44.342 67.852 44.150 67.814 44.017 67.805 C 43.755 67.787 43.162 67.998 43.162 67.998 C 43.159 67.996 43.170 65.987 42.846 65.211 C 42.102 63.425 39.575 62.038 38.560 60.391 C 37.927 59.363 37.023 56.674 37.019 56.674 C 37.015 56.675 36.334 59.296 36.273 60.449 C 36.200 61.853 36.183 63.814 36.723 65.111 C 37.719 67.507 40.962 69.458 42.496 71.550 C 43.279 72.619 44.304 74.092 44.790 75.325 C 45.132 76.192 45.102 77.497 45.456 78.359 C 45.713 78.986 46.638 80.282 46.640 80.284 C 46.648 80.288 53.004 80.126 55.367 78.928 C 55.894 78.661 56.515 78.123 56.859 77.643 C 57.314 77.006 57.796 75.209 57.799 75.210 C 57.801 75.211 57.827 76.795 57.718 77.462 C 57.640 77.939 57.272 79.009 57.273 79.011 C 57.274 79.013 58.901 79.312 59.606 79.288 C 60.086 79.272 61.183 79.012 61.184 79.011 C 61.185 79.008 59.934 77.672 59.680 76.950 C 59.503 76.445 59.563 75.170 59.564 75.169 C 59.568 75.167 61.503 77.783 62.731 78.318 C 63.971 78.858 65.904 78.736 67.234 78.492 C 69.356 78.104 73.790 75.550 73.792 75.543 C 73.792 75.542 73.343 74.494 73.343 74.493 C 73.343 74.493 73.264 73.780 73.263 73.779 Z"/>
<path fill="none" stroke="#deb9ab" stroke-width="1" stroke-linecap="butt" stroke-linejoin="round" d="M 73.263 73.779 C 73.262 73.778 71.929 73.837 71.929 73.837 "/>
<path fill="#deb9ab" fill-rule="evenodd" stroke="none" d="M 73.263 73.779 C 73.262 73.778 71.929 73.837 71.929 73.837 C 71.929 73.834 70.803 71.196 70.804 71.193 C 70.805 71.191 73.261 70.384 73.263 70.386 C 73.266 70.388 73.261 73.777 73.263 73.779 Z"/>
<path fill="none" stroke="#f1e196" stroke-width="1" stroke-linecap="butt" stroke-linejoin="round" d="M 73.792 75.543 C 73.792 75.542 73.343 74.494 73.343 74.493 "/>
<path fill="none" stroke="#f1e196" stroke-width="1" stroke-linecap="butt" stroke-linejoin="round" d="M 73.343 74.493 C 73.343 74.493 73.264 73.780 73.263 73.779 "/>
<path fill="#f1e196" fill-rule="evenodd" stroke="none" d="M 75.473 76.705 C 74.934 76.414 73.792 75.544 73.792 75.543 C 73.792 75.542 73.343 74.494 73.343 74.493 C 73.343 74.493 73.264 73.780 73.263 73.779 C 73.264 73.780 74.779 73.883 74.780 73.882 C 74.780 73.882 75.738 74.707 76.213 74.960 C 77.789 75.800 80.121 76.774 81.905 76.699 C 83.389 76.637 85.398 75.887 86.525 74.920 C 86.919 74.582 87.477 73.477 87.476 73.475 C 87.476 73.474 86.433 73.483 86.161 73.184 C 85.707 72.684 85.613 71.439 86.061 70.933 C 86.316 70.645 87.326 70.714 87.327 70.712 C 87.327 70.711 86.470 69.929 86.192 69.521 C 85.968 69.191 85.946 68.555 85.624 68.319 C 84.627 67.590 82.270 67.324 81.505 68.295 C 81.221 68.656 81.436 69.389 81.582 69.824 C 81.858 70.648 83.126 71.305 83.296 72.157 C 83.422 72.786 82.847 74.249 82.845 74.249 C 82.843 74.250 81.935 72.947 81.497 72.426 C 80.658 71.427 79.097 70.446 78.472 69.300 C 77.947 68.340 77.226 66.419 77.604 65.758 C 78.456 64.267 83.507 63.818 85.776 64.790 C 87.260 65.426 89.193 68.947 89.197 68.943 C 89.199 68.941 88.736 66.811 88.334 65.975 C 87.354 63.944 83.490 62.206 83.809 59.973 C 84.112 57.842 88.233 57.353 89.517 55.626 C 90.332 54.531 91.216 51.407 91.220 51.406 C 91.226 51.406 92.474 55.012 93.458 56.287 C 94.197 57.245 95.821 57.914 96.546 58.884 C 96.935 59.404 97.535 60.198 97.466 60.844 C 97.311 62.284 94.937 63.138 94.155 64.357 C 93.373 65.576 92.338 68.827 92.342 68.830 C 92.346 68.833 94.853 65.682 96.416 65.188 C 98.652 64.482 103.208 64.214 104.142 66.364 C 104.821 67.926 102.394 69.955 101.378 71.321 C 100.803 72.095 99.178 73.660 99.175 73.659 C 99.174 73.659 98.683 72.414 98.694 71.853 C 98.715 70.763 100.469 69.353 99.899 68.424 C 99.298 67.442 97.071 67.365 96.088 67.966 C 95.336 68.426 94.959 70.677 94.959 70.680 C 94.959 70.682 95.335 72.491 95.109 73.220 C 95.018 73.516 94.503 73.762 94.526 74.070 C 94.645 75.676 97.559 76.544 99.149 76.796 C 100.475 77.007 102.294 76.410 103.533 75.891 C 104.590 75.448 106.720 73.788 106.721 73.784 C 106.722 73.781 105.706 70.989 105.707 70.986 C 105.709 70.984 108.470 70.573 108.472 70.575 C 108.475 70.577 108.524 73.772 108.524 73.775 C 108.524 73.777 108.461 75.628 108.460 75.630 C 108.456 75.637 103.071 78.257 100.578 78.262 C 98.298 78.267 94.981 77.517 93.345 75.929 C 92.759 75.360 92.224 73.451 92.221 73.451 C 92.215 73.450 92.263 79.328 92.259 79.332 C 92.257 79.333 90.069 79.302 90.067 79.301 C 90.063 79.297 89.840 73.537 89.836 73.533 C 89.836 73.533 89.247 73.308 89.246 73.309 C 89.245 73.309 89.206 74.426 89.004 74.848 C 88.659 75.570 87.817 76.322 87.151 76.765 C 86.229 77.377 84.782 77.847 83.694 78.052 C 82.318 78.311 80.402 78.347 79.025 78.088 C 77.901 77.877 76.479 77.248 75.473 76.705 Z"/>
<path fill="none" stroke="#f9d2c3" stroke-width="1" stroke-linecap="butt" stroke-linejoin="round" d="M 73.263 73.779 C 73.261 73.777 73.266 70.388 73.263 70.386 "/>
<path fill="none" stroke="#f9d2c3" stroke-width="1" stroke-linecap="butt" stroke-linejoin="round" d="M 74.780 73.882 C 74.779 73.883 73.264 73.780 73.263 73.779 "/>
<path fill="#f9d2c3" fill-rule="evenodd" stroke="none" d="M 73.263 73.779 C 73.261 73.777 73.266 70.388 73.263 70.386 C 73.264 70.386 75.466 70.601 75.467 70.603 C 75.469 70.606 74.783 73.880 74.780 73.882 C 74.779 73.883 73.264 73.780 73.263 73.779 Z"/>
<path fill="none" stroke="#deb9ab" stroke-width="1" stroke-linecap="butt" stroke-linejoin="round" d="M 108.524 73.775 C 108.524 73.772 108.475 70.577 108.472 70.575 "/>
<path fill="none" stroke="#deb9ab" stroke-width="1" stroke-linecap="butt" stroke-linejoin="round" d="M 108.472 70.575 C 108.470 70.573 105.709 70.984 105.707 70.986 "/>
<path fill="none" stroke="#deb9ab" stroke-width="1" stroke-linecap="butt" stroke-linejoin="round" d="M 105.707 70.986 C 105.706 70.989 106.722 73.781 106.721 73.784 "/>
<path fill="#deb9ab" fill-rule="evenodd" stroke="none" d="M 106.721 73.784 C 106.721 73.784 107.983 73.767 108.524 73.775 C 108.524 73.772 108.475 70.577 108.472 70.575 C 108.470 70.573 105.709 70.984 105.707 70.986 C 105.706 70.989 106.722 73.781 106.721 73.784 Z"/>
<path fill="none" stroke="#f9d2c3" stroke-width="1" stroke-linecap="butt" stroke-linejoin="round" d="M 108.472 70.575 C 108.475 70.577 108.524 73.772 108.524 73.775 "/>
<path fill="#f9d2c3" fill-rule="evenodd" stroke="none" d="M 110.553 70.624 C 110.552 70.622 108.472 70.575 108.472 70.575 C 108.475 70.577 108.524 73.772 108.524 73.775 C 109.029 73.783 110.204 73.835 110.205 73.834 C 110.208 73.832 110.555 70.626 110.553 70.624 Z"/>
<path fill="none" stroke="#f1e196" stroke-width="1" stroke-linecap="butt" stroke-linejoin="round" d="M 108.460 75.630 C 108.461 75.628 108.524 73.777 108.524 73.775 "/>
<path fill="none" stroke="#f1e196" stroke-width="1" stroke-linecap="butt" stroke-linejoin="round" d="M 108.524 73.775 C 109.029 73.783 110.204 73.835 110.205 73.834 "/>
<path fill="#f1e196" fill-rule="evenodd" stroke="none" d="M 111.885 77.959 C 110.712 77.550 108.460 75.630 108.460 75.630 C 108.461 75.628 108.524 73.777 108.524 73.775 C 109.029 73.783 110.204 73.835 110.205 73.834 C 110.205 73.834 110.524 74.728 110.773 75.041 C 111.104 75.456 111.711 75.867 112.181 76.115 C 113.081 76.589 114.408 77.065 115.424 77.102 C 116.489 77.141 117.998 76.899 118.885 76.309 C 119.480 75.914 120.332 74.419 120.330 74.417 C 120.330 74.417 119.657 74.500 119.469 74.320 C 119.024 73.893 119.082 72.761 119.447 72.264 C 119.598 72.058 120.082 72.137 120.229 71.928 C 120.369 71.730 120.353 71.355 120.284 71.122 C 119.896 69.806 118.373 67.295 117.110 67.829 C 115.636 68.452 118.133 71.562 117.772 73.120 C 117.682 73.503 117.406 73.980 117.140 74.270 C 116.969 74.454 116.452 74.745 116.451 74.745 C 116.449 74.745 115.844 73.153 115.466 72.533 C 114.801 71.440 112.955 70.505 112.753 69.242 C 112.605 68.321 113.100 66.948 113.777 66.308 C 115.173 64.990 118.252 64.360 120.047 65.039 C 120.913 65.366 121.711 66.502 122.100 67.342 C 122.671 68.574 122.620 71.836 122.624 71.838 C 122.625 71.839 123.323 71.757 123.323 71.756 C 123.327 71.753 123.329 68.444 123.063 67.057 C 122.735 65.340 120.683 63.218 121.181 61.541 C 121.441 60.665 122.626 59.926 123.420 59.472 C 124.983 58.577 127.528 58.541 129.218 57.919 C 129.719 57.735 130.838 57.184 130.839 57.185 C 130.844 57.187 130.776 60.948 130.236 62.441 C 129.469 64.562 126.883 66.579 126.010 68.659 C 125.676 69.456 125.349 71.461 125.351 71.463 C 125.355 71.467 126.653 67.893 127.936 67.052 C 129.085 66.299 131.473 65.518 132.478 66.455 C 133.409 67.323 132.727 69.494 132.299 70.692 C 131.825 72.018 130.253 73.265 129.456 74.426 C 129.199 74.801 128.652 75.708 128.650 75.708 C 128.649 75.708 128.119 75.375 127.997 75.147 C 127.656 74.511 127.877 73.466 127.897 72.745 C 127.917 71.988 128.829 70.542 128.139 70.231 C 127.421 69.908 126.394 72.189 126.394 72.192 C 126.394 72.193 127.246 72.512 127.405 72.835 C 127.655 73.341 127.552 74.317 127.134 74.697 C 126.771 75.028 125.504 74.815 125.503 74.816 C 125.501 74.820 126.982 77.742 128.165 78.336 C 128.754 78.631 129.763 78.769 130.356 78.483 C 131.396 77.981 131.402 75.868 132.326 75.175 C 132.914 74.734 134.174 75.018 134.675 74.479 C 135.551 73.538 134.693 71.374 135.298 70.240 C 135.970 68.982 138.100 68.291 138.845 67.075 C 139.491 66.020 139.274 64.147 139.927 63.097 C 140.389 62.353 141.539 61.812 142.073 61.118 C 142.688 60.320 143.626 58.142 143.629 58.143 C 143.632 58.143 144.413 59.789 144.530 60.552 C 144.748 61.966 144.797 64.028 144.156 65.307 C 143.721 66.177 142.437 66.797 141.786 67.520 C 140.172 69.309 137.768 71.702 137.044 73.999 C 136.793 74.799 137.482 76.153 136.939 76.791 C 136.702 77.069 136.112 77.009 135.780 77.160 C 135.082 77.478 134.316 78.207 133.620 78.530 C 132.578 79.014 131.102 79.627 129.953 79.638 C 128.598 79.651 126.722 79.159 125.617 78.374 C 125.260 78.120 124.893 77.631 124.696 77.239 C 124.393 76.638 124.182 75.056 124.180 75.056 C 124.178 75.057 124.168 76.378 124.160 76.944 C 124.148 77.849 124.762 79.330 124.111 79.959 C 123.449 80.598 121.618 80.608 121.042 79.890 C 120.808 79.599 120.989 79.011 121.074 78.648 C 121.224 78.011 121.904 77.334 122.045 76.696 C 122.144 76.245 122.029 75.157 122.028 75.156 C 122.025 75.154 120.668 77.717 119.619 78.249 C 117.548 79.299 114.078 78.721 111.885 77.959 Z"/>
</clipPath>
<path fill="#f1e196" fill-rule="evenodd" stroke="none" d="M 73.263 73.779 C 73.262 73.778 71.929 73.837 71.929 73.837 C 71.929 73.838 71.705 74.296 71.552 74.446 C 70.192 75.778 67.706 76.989 65.809 77.144 C 64.982 77.211 63.848 76.918 63.111 76.535 C 62.401 76.165 61.131 74.746 61.131 74.744 C 61.131 74.743 61.715 74.202 61.850 73.898 C 62.068 73.408 62.142 72.644 62.033 72.119 C 61.949 71.718 61.382 70.921 61.382 70.919 C 61.382 70.915 62.939 67.449 64.063 67.900 C 65.140 68.332 63.905 70.611 64.010 71.766 C 64.075 72.489 64.009 73.570 64.454 74.142 C 64.673 74.423 65.495 74.711 65.496 74.710 C 65.499 74.709 65.607 72.311 65.993 71.375 C 66.542 70.042 69.129 68.981 68.910 67.556 C 68.752 66.529 67.190 65.732 66.210 65.386 C 64.816 64.893 62.532 64.707 61.282 65.498 C 59.820 66.422 58.795 70.703 58.791 70.700 C 58.788 70.698 58.912 68.299 59.086 67.285 C 59.383 65.552 61.210 63.275 60.607 61.623 C 59.869 59.599 56.272 59.049 54.597 57.693 C 53.280 56.626 50.575 53.726 50.570 53.729 C 50.567 53.731 50.955 56.252 50.986 57.342 C 51.024 58.654 50.419 60.431 50.722 61.708 C 51.182 63.640 54.200 67.335 54.204 67.341 C 54.206 67.344 56.689 70.550 56.687 70.554 C 56.684 70.561 51.931 65.555 49.527 66.258 C 49.030 66.403 48.523 67.082 48.431 67.592 C 47.951 70.240 52.835 75.409 52.842 75.404 C 52.844 75.402 52.850 73.714 52.930 72.996 C 53.033 72.079 53.504 69.977 53.507 69.976 C 53.509 69.975 55.152 71.480 55.153 71.482 C 55.153 71.483 55.050 72.265 55.048 72.602 C 55.043 73.288 55.108 74.209 55.258 74.879 C 55.329 75.193 55.679 75.580 55.608 75.894 C 55.384 76.897 53.893 77.809 52.877 77.960 C 52.223 78.058 51.382 77.560 50.776 77.295 C 49.784 76.861 48.362 76.298 47.659 75.474 C 46.624 74.260 47.322 71.133 45.873 70.466 C 45.603 70.342 44.893 70.607 44.893 70.606 C 44.890 70.605 45.016 68.512 44.437 67.945 C 44.342 67.852 44.150 67.814 44.017 67.805 C 43.755 67.787 43.162 67.998 43.162 67.998 C 43.159 67.996 43.170 65.987 42.846 65.211 C 42.102 63.425 39.575 62.038 38.560 60.391 C 37.927 59.363 37.023 56.674 37.019 56.674 C 37.015 56.675 36.334 59.296 36.273 60.449 C 36.200 61.853 36.183 63.814 36.723 65.111 C 37.719 67.507 40.962 69.458 42.496 71.550 C 43.279 72.619 44.304 74.092 44.790 75.325 C 45.132 76.192 45.102 77.497 45.456 78.359 C 45.713 78.986 46.638 80.282 46.640 80.284 C 46.648 80.288 53.004 80.126 55.367 78.928 C 55.894 78.661 56.515 78.123 56.859 77.643 C 57.314 77.006 57.796 75.209 57.799 75.210 C 57.801 75.211 57.827 76.795 57.718 77.462 C 57.640 77.939 57.272 79.009 57.273 79.011 C 57.274 79.013 58.901 79.312 59.606 79.288 C 60.086 79.272 61.183 79.012 61.184 79.011 C 61.185 79.008 59.934 77.672 59.680 76.950 C 59.503 76.445 59.563 75.170 59.564 75.169 C 59.568 75.167 61.503 77.783 62.731 78.318 C 63.971 78.858 65.904 78.736 67.234 78.492 C 69.356 78.104 73.790 75.550 73.792 75.543 C 73.792 75.542 73.343 74.494 73.343 74.493 C 73.343 74.493 73.264 73.780 73.263 73.779 Z"/>
<path fill="none" stroke="#deb9ab" stroke-width="1" stroke-linecap="butt" stroke-linejoin="round" d="M 73.263 73.779 C 73.262 73.778 71.929 73.837 71.929 73.837 "/>
<path fill="#deb9ab" fill-rule="evenodd" stroke="none" d="M 73.263 73.779 C 73.262 73.778 71.929 73.837 71.929 73.837 C 71.929 73.834 70.803 71.196 70.804 71.193 C 70.805 71.191 73.261 70.384 73.263 70.386 C 73.266 70.388 73.261 73.777 73.263 73.779 Z"/>
<path fill="none" stroke="#f1e196" stroke-width="1" stroke-linecap="butt" stroke-linejoin="round" d="M 73.792 75.543 C 73.792 75.542 73.343 74.494 73.343 74.493 "/>
<path fill="none" stroke="#f1e196" stroke-width="1" stroke-linecap="butt" stroke-linejoin="round" d="M 73.343 74.493 C 73.343 74.493 73.264 73.780 73.263 73.779 "/>
<path fill="#f1e196" fill-rule="evenodd" stroke="none" d="M 75.473 76.705 C 74.934 76.414 73.792 75.544 73.792 75.543 C 73.792 75.542 73.343 74.494 73.343 74.493 C 73.343 74.493 73.264 73.780 73.263 73.779 C 73.264 73.780 74.779 73.883 74.780 73.882 C 74.780 73.882 75.738 74.707 76.213 74.960 C 77.789 75.800 80.121 76.774 81.905 76.699 C 83.389 76.637 85.398 75.887 86.525 74.920 C 86.919 74.582 87.477 73.477 87.476 73.475 C 87.476 73.474 86.433 73.483 86.161 73.184 C 85.707 72.684 85.613 71.439 86.061 70.933 C 86.316 70.645 87.326 70.714 87.327 70.712 C 87.327 70.711 86.470 69.929 86.192 69.521 C 85.968 69.191 85.946 68.555 85.624 68.319 C 84.627 67.590 82.270 67.324 81.505 68.295 C 81.221 68.656 81.436 69.389 81.582 69.824 C 81.858 70.648 83.126 71.305 83.296 72.157 C 83.422 72.786 82.847 74.249 82.845 74.249 C 82.843 74.250 81.935 72.947 81.497 72.426 C 80.658 71.427 79.097 70.446 78.472 69.300 C 77.947 68.340 77.226 66.419 77.604 65.758 C 78.456 64.267 83.507 63.818 85.776 64.790 C 87.260 65.426 89.193 68.947 89.197 68.943 C 89.199 68.941 88.736 66.811 88.334 65.975 C 87.354 63.944 83.490 62.206 83.809 59.973 C 84.112 57.842 88.233 57.353 89.517 55.626 C 90.332 54.531 91.216 51.407 91.220 51.406 C 91.226 51.406 92.474 55.012 93.458 56.287 C 94.197 57.245 95.821 57.914 96.546 58.884 C 96.935 59.404 97.535 60.198 97.466 60.844 C 97.311 62.284 94.937 63.138 94.155 64.357 C 93.373 65.576 92.338 68.827 92.342 68.830 C 92.346 68.833 94.853 65.682 96.416 65.188 C 98.652 64.482 103.208 64.214 104.142 66.364 C 104.821 67.926 102.394 69.955 101.378 71.321 C 100.803 72.095 99.178 73.660 99.175 73.659 C 99.174 73.659 98.683 72.414 98.694 71.853 C 98.715 70.763 100.469 69.353 99.899 68.424 C 99.298 67.442 97.071 67.365 96.088 67.966 C 95.336 68.426 94.959 70.677 94.959 70.680 C 94.959 70.682 95.335 72.491 95.109 73.220 C 95.018 73.516 94.503 73.762 94.526 74.070 C 94.645 75.676 97.559 76.544 99.149 76.796 C 100.475 77.007 102.294 76.410 103.533 75.891 C 104.590 75.448 106.720 73.788 106.721 73.784 C 106.722 73.781 105.706 70.989 105.707 70.986 C 105.709 70.984 108.470 70.573 108.472 70.575 C 108.475 70.577 108.524 73.772 108.524 73.775 C 108.524 73.777 108.461 75.628 108.460 75.630 C 108.456 75.637 103.071 78.257 100.578 78.262 C 98.298 78.267 94.981 77.517 93.345 75.929 C 92.759 75.360 92.224 73.451 92.221 73.451 C 92.215 73.450 92.263 79.328 92.259 79.332 C 92.257 79.333 90.069 79.302 90.067 79.301 C 90.063 79.297 89.840 73.537 89.836 73.533 C 89.836 73.533 89.247 73.308 89.246 73.309 C 89.245 73.309 89.206 74.426 89.004 74.848 C 88.659 75.570 87.817 76.322 87.151 76.765 C 86.229 77.377 84.782 77.847 83.694 78.052 C 82.318 78.311 80.402 78.347 79.025 78.088 C 77.901 77.877 76.479 77.248 75.473 76.705 Z"/>
<path fill="none" stroke="#f9d2c3" stroke-width="1" stroke-linecap="butt" stroke-linejoin="round" d="M 73.263 73.779 C 73.261 73.777 73.266 70.388 73.263 70.386 "/>
<path fill="none" stroke="#f9d2c3" stroke-width="1" stroke-linecap="butt" stroke-linejoin="round" d="M 74.780 73.882 C 74.779 73.883 73.264 73.780 73.263 73.779 "/>
<path fill="#f9d2c3" fill-rule="evenodd" stroke="none" d="M 73.263 73.779 C 73.261 73.777 73.266 70.388 73.263 70.386 C 73.264 70.386 75.466 70.601 75.467 70.603 C 75.469 70.606 74.783 73.880 74.780 73.882 C 74.779 73.883 73.264 73.780 73.263 73.779 Z"/>
<path fill="none" stroke="#deb9ab" stroke-width="1" stroke-linecap="butt" stroke-linejoin="round" d="M 108.524 73.775 C 108.524 73.772 108.475 70.577 108.472 70.575 "/>
<path fill="none" stroke="#deb9ab" stroke-width="1" stroke-linecap="butt" stroke-linejoin="round" d="M 108.472 70.575 C 108.470 70.573 105.709 70.984 105.707 70.986 "/>
<path fill="none" stroke="#deb9ab" stroke-width="1" stroke-linecap="butt" stroke-linejoin="round" d="M 105.707 70.986 C 105.706 70.989 106.722 73.781 106.721 73.784 "/>
<path fill="#deb9ab" fill-rule="evenodd" stroke="none" d="M 106.721 73.784 C 106.721 73.784 107.983 73.767 108.524 73.775 C 108.524 73.772 108.475 70.577 108.472 70.575 C 108.470 70.573 105.709 70.984 105.707 70.986 C 105.706 70.989 106.722 73.781 106.721 73.784 Z"/>
<path fill="none" stroke="#f9d2c3" stroke-width="1" stroke-linecap="butt" stroke-linejoin="round" d="M 108.472 70.575 C 108.475 70.577 108.524 73.772 108.524 73.775 "/>
<path fill="#f9d2c3" fill-rule="evenodd" stroke="none" d="M 110.553 70.624 C 110.552 70.622 108.472 70.575 108.472 70.575 C 108.475 70.577 108.524 73.772 108.524 73.775 C 109.029 73.783 110.204 73.835 110.205 73.834 C 110.208 73.832 110.555 70.626 110.553 70.624 Z"/>
<path fill="none" stroke="#f1e196" stroke-width="1" stroke-linecap="butt" stroke-linejoin="round" d="M 108.460 75.630 C 108.461 75.628 108.524 73.777 108.524 73.775 "/>
<path fill="none" stroke="#f1e196" stroke-width="1" stroke-linecap="butt" stroke-linejoin="round" d="M 108.524 73.775 C 109.029 73.783 110.204 73.835 110.205 73.834 "/>
<path fill="#f1e196" fill-rule="evenodd" stroke="none" d="M 111.885 77.959 C 110.712 77.550 108.460 75.630 108.460 75.630 C 108.461 75.628 108.524 73.777 108.524 73.775 C 109.029 73.783 110.204 73.835 110.205 73.834 C 110.205 73.834 110.524 74.728 110.773 75.041 C 111.104 75.456 111.711 75.867 112.181 76.115 C 113.081 76.589 114.408 77.065 115.424 77.102 C 116.489 77.141 117.998 76.899 118.885 76.309 C 119.480 75.914 120.332 74.419 120.330 74.417 C 120.330 74.417 119.657 74.500 119.469 74.320 C 119.024 73.893 119.082 72.761 119.447 72.264 C 119.598 72.058 120.082 72.137 120.229 71.928 C 120.369 71.730 120.353 71.355 120.284 71.122 C 119.896 69.806 118.373 67.295 117.110 67.829 C 115.636 68.452 118.133 71.562 117.772 73.120 C 117.682 73.503 117.406 73.980 117.140 74.270 C 116.969 74.454 116.452 74.745 116.451 74.745 C 116.449 74.745 115.844 73.153 115.466 72.533 C 114.801 71.440 112.955 70.505 112.753 69.242 C 112.605 68.321 113.100 66.948 113.777 66.308 C 115.173 64.990 118.252 64.360 120.047 65.039 C 120.913 65.366 121.711 66.502 122.100 67.342 C 122.671 68.574 122.620 71.836 122.624 71.838 C 122.625 71.839 123.323 71.757 123.323 71.756 C 123.327 71.753 123.329 68.444 123.063 67.057 C 122.735 65.340 120.683 63.218 121.181 61.541 C 121.441 60.665 122.626 59.926 123.420 59.472 C 124.983 58.577 127.528 58.541 129.218 57.919 C 129.719 57.735 130.838 57.184 130.839 57.185 C 130.844 57.187 130.776 60.948 130.236 62.441 C 129.469 64.562 126.883 66.579 126.010 68.659 C 125.676 69.456 125.349 71.461 125.351 71.463 C 125.355 71.467 126.653 67.893 127.936 67.052 C 129.085 66.299 131.473 65.518 132.478 66.455 C 133.409 67.323 132.727 69.494 132.299 70.692 C 131.825 72.018 130.253 73.265 129.456 74.426 C 129.199 74.801 128.652 75.708 128.650 75.708 C 128.649 75.708 128.119 75.375 127.997 75.147 C 127.656 74.511 127.877 73.466 127.897 72.745 C 127.917 71.988 128.829 70.542 128.139 70.231 C 127.421 69.908 126.394 72.189 126.394 72.192 C 126.394 72.193 127.246 72.512 127.405 72.835 C 127.655 73.341 127.552 74.317 127.134 74.697 C 126.771 75.028 125.504 74.815 125.503 74.816 C 125.501 74.820 126.982 77.742 128.165 78.336 C 128.754 78.631 129.763 78.769 130.356 78.483 C 131.396 77.981 131.402 75.868 132.326 75.175 C 132.914 74.734 134.174 75.018 134.675 74.479 C 135.551 73.538 134.693 71.374 135.298 70.240 C 135.970 68.982 138.100 68.291 138.845 67.075 C 139.491 66.020 139.274 64.147 139.927 63.097 C 140.389 62.353 141.539 61.812 142.073 61.118 C 142.688 60.320 143.626 58.142 143.629 58.143 C 143.632 58.143 144.413 59.789 144.530 60.552 C 144.748 61.966 144.797 64.028 144.156 65.307 C 143.721 66.177 142.437 66.797 141.786 67.520 C 140.172 69.309 137.768 71.702 137.044 73.999 C 136.793 74.799 137.482 76.153 136.939 76.791 C 136.702 77.069 136.112 77.009 135.780 77.160 C 135.082 77.478 134.316 78.207 133.620 78.530 C 132.578 79.014 131.102 79.627 129.953 79.638 C 128.598 79.651 126.722 79.159 125.617 78.374 C 125.260 78.120 124.893 77.631 124.696 77.239 C 124.393 76.638 124.182 75.056 124.180 75.056 C 124.178 75.057 124.168 76.378 124.160 76.944 C 124.148 77.849 124.762 79.330 124.111 79.959 C 123.449 80.598 121.618 80.608 121.042 79.890 C 120.808 79.599 120.989 79.011 121.074 78.648 C 121.224 78.011 121.904 77.334 122.045 76.696 C 122.144 76.245 122.029 75.157 122.028 75.156 C 122.025 75.154 120.668 77.717 119.619 78.249 C 117.548 79.299 114.078 78.721 111.885 77.959 Z"/>
</g>
<g id="Layer_2">
<path fill="#c69c54" fill-rule="evenodd" stroke="none" d="M 79.153 70.444 C 79.158 70.445 81.747 68.129 83.123 68.147 C 84.605 68.166 87.306 70.772 87.310 70.769 C 87.314 70.765 85.990 67.224 84.715 66.376 C 82.825 65.117 78.423 63.734 77.182 65.636 C 76.330 66.942 79.148 70.442 79.153 70.444 Z" clip-path="url(#4a14a96f-5cf1-46fc-851d-0bd09f836b45)"/>
<path fill="#c69c54" fill-rule="evenodd" stroke="none" d="M 89.719 70.616 C 89.717 70.614 90.839 68.229 90.655 67.175 C 90.319 65.251 87.431 63.845 86.610 62.073 C 86.265 61.330 85.753 60.205 85.976 59.417 C 86.358 58.067 88.557 57.378 89.486 56.326 C 90.109 55.621 91.274 53.753 91.278 53.752 C 91.294 53.751 90.939 65.389 91.434 70.341 C 91.442 70.423 91.478 70.612 91.478 70.612 C 91.477 70.613 89.720 70.617 89.719 70.616 Z" clip-path="url(#4a14a96f-5cf1-46fc-851d-0bd09f836b45)"/>
<path fill="#c69c54" fill-rule="evenodd" stroke="none" d="M 65.523 78.535 C 65.525 78.539 68.478 78.826 69.749 78.849 C 74.533 78.938 85.679 78.042 85.676 78.026 C 85.675 78.017 79.769 76.391 77.403 75.276 C 75.986 74.608 72.953 72.553 72.948 72.553 C 72.938 72.553 65.519 78.527 65.523 78.535 Z" clip-path="url(#4a14a96f-5cf1-46fc-851d-0bd09f836b45)"/>
<path fill="#c69c54" fill-rule="evenodd" stroke="none" d="M 48.344 71.172 C 49.603 72.763 55.103 71.231 55.106 71.225 C 55.109 71.220 53.980 67.181 52.542 66.388 C 51.618 65.878 49.835 65.785 49.027 66.463 C 47.934 67.381 47.458 70.053 48.344 71.172 Z" clip-path="url(#4a14a96f-5cf1-46fc-851d-0bd09f836b45)"/>
<path fill="#c69c54" fill-rule="evenodd" stroke="none" d="M 57.556 70.535 C 57.560 70.533 58.007 67.821 58.253 66.668 C 58.562 65.218 59.953 63.264 59.445 61.871 C 58.547 59.414 52.000 57.342 51.992 57.346 C 51.980 57.354 57.543 70.541 57.556 70.535 Z" clip-path="url(#4a14a96f-5cf1-46fc-851d-0bd09f836b45)"/>
<path fill="#c69c54" fill-rule="evenodd" stroke="none" d="M 60.517 70.943 C 62.071 71.099 63.604 69.003 64.892 68.120 C 65.726 67.548 67.669 67.153 67.621 66.144 C 67.526 64.140 62.891 63.467 61.149 64.462 C 59.600 65.348 58.665 68.512 59.387 70.143 C 59.556 70.523 60.104 70.901 60.517 70.943 Z" clip-path="url(#4a14a96f-5cf1-46fc-851d-0bd09f836b45)"/>
<path fill="#c69c54" fill-rule="evenodd" stroke="none" d="M 55.306 76.144 C 55.308 76.149 52.861 79.849 51.169 80.415 C 48.183 81.413 43.358 80.139 40.923 78.144 C 37.337 75.206 35.571 68.393 35.257 63.768 C 35.102 61.477 34.707 57.259 36.778 56.266 C 43.395 53.095 44.318 73.228 51.062 76.119 C 52.232 76.620 55.304 76.140 55.306 76.144 Z" clip-path="url(#4a14a96f-5cf1-46fc-851d-0bd09f836b45)"/>
</g>
<g id="Layer_3">
<path fill="#c69c54" fill-rule="evenodd" stroke="none" d="M 85.531 71.023 C 85.534 71.020 89.034 71.430 90.543 71.446 C 92.118 71.462 95.779 71.107 95.782 71.111 C 95.782 71.111 95.782 71.276 95.782 71.276 C 95.779 71.281 92.167 71.702 90.611 71.699 C 89.065 71.696 85.480 71.263 85.478 71.259 C 85.478 71.258 85.530 71.023 85.531 71.023 Z" clip-path="url(#4a14a96f-5cf1-46fc-851d-0bd09f836b45)"/>
<path fill="#c69c54" fill-rule="evenodd" stroke="none" d="M 85.702 70.471 C 85.705 70.467 89.205 70.878 90.715 70.893 C 92.289 70.910 95.950 70.554 95.953 70.559 C 95.953 70.559 95.953 70.724 95.953 70.724 C 95.950 70.728 92.338 71.150 90.782 71.147 C 89.236 71.143 85.651 70.711 85.649 70.706 C 85.649 70.706 85.702 70.471 85.702 70.471 Z" clip-path="url(#4a14a96f-5cf1-46fc-851d-0bd09f836b45)"/>
<path fill="#c69c54" fill-rule="evenodd" stroke="none" d="M 85.526 71.633 C 85.529 71.630 89.029 72.040 90.538 72.056 C 92.113 72.073 95.774 71.717 95.777 71.721 C 95.777 71.721 95.777 71.886 95.777 71.886 C 95.774 71.891 92.162 72.312 90.606 72.309 C 89.060 72.306 85.475 71.874 85.473 71.869 C 85.473 71.869 85.525 71.633 85.526 71.633 Z" clip-path="url(#4a14a96f-5cf1-46fc-851d-0bd09f836b45)"/>
<path fill="#c69c54" fill-rule="evenodd" stroke="none" d="M 85.526 72.232 C 85.529 72.229 89.029 72.639 90.538 72.655 C 92.113 72.671 95.774 72.316 95.777 72.320 C 95.777 72.320 95.777 72.485 95.777 72.485 C 95.774 72.490 92.162 72.911 90.606 72.908 C 89.060 72.905 85.475 72.472 85.473 72.468 C 85.473 72.468 85.525 72.232 85.526 72.232 Z" clip-path="url(#4a14a96f-5cf1-46fc-851d-0bd09f836b45)"/>
<path fill="#c69c54" fill-rule="evenodd" stroke="none" d="M 85.543 72.655 C 85.547 72.651 89.047 73.062 90.556 73.078 C 92.131 73.094 95.792 72.739 95.795 72.743 C 95.795 72.743 95.795 72.908 95.795 72.908 C 95.792 72.912 92.180 73.334 90.623 73.331 C 89.078 73.328 85.493 72.895 85.490 72.891 C 85.490 72.890 85.543 72.655 85.543 72.655 Z" clip-path="url(#4a14a96f-5cf1-46fc-851d-0bd09f836b45)"/>
<path fill="#c69c54" fill-rule="evenodd" stroke="none" d="M 85.631 73.254 C 85.635 73.250 89.135 73.661 90.644 73.677 C 92.219 73.693 95.880 73.338 95.883 73.342 C 95.883 73.342 95.883 73.507 95.883 73.507 C 95.880 73.511 92.268 73.933 90.711 73.930 C 89.166 73.927 85.581 73.494 85.579 73.489 C 85.578 73.489 85.631 73.254 85.631 73.254 Z" clip-path="url(#4a14a96f-5cf1-46fc-851d-0bd09f836b45)"/>
<path fill="#c69c54" fill-rule="evenodd" stroke="none" d="M 53.783 71.748 C 53.786 71.744 56.935 72.019 58.283 71.929 C 59.701 71.835 62.943 71.102 62.946 71.106 C 62.946 71.106 62.955 71.321 62.955 71.321 C 62.952 71.325 59.759 72.144 58.356 72.255 C 56.977 72.364 53.750 72.063 53.748 72.059 C 53.748 72.059 53.783 71.748 53.783 71.748 Z" clip-path="url(#4a14a96f-5cf1-46fc-851d-0bd09f836b45)"/>
<path fill="#c69c54" fill-rule="evenodd" stroke="none" d="M 53.908 71.014 C 53.911 71.011 57.060 71.286 58.408 71.196 C 59.826 71.101 63.068 70.369 63.071 70.372 C 63.071 70.372 63.080 70.588 63.080 70.588 C 63.077 70.592 59.884 71.411 58.481 71.521 C 57.102 71.630 53.875 71.330 53.873 71.326 C 53.873 71.325 53.908 71.014 53.908 71.014 Z" clip-path="url(#4a14a96f-5cf1-46fc-851d-0bd09f836b45)"/>
<path fill="#c69c54" fill-rule="evenodd" stroke="none" d="M 53.810 72.544 C 53.813 72.541 56.962 72.816 58.310 72.726 C 59.727 72.631 62.970 71.899 62.973 71.902 C 62.973 71.903 62.981 72.118 62.981 72.118 C 62.979 72.122 59.786 72.941 58.383 73.051 C 57.003 73.160 53.777 72.860 53.775 72.856 C 53.774 72.855 53.810 72.545 53.810 72.544 Z" clip-path="url(#4a14a96f-5cf1-46fc-851d-0bd09f836b45)"/>
<path fill="#c69c54" fill-rule="evenodd" stroke="none" d="M 53.840 73.326 C 53.843 73.322 56.992 73.597 58.340 73.507 C 59.757 73.413 63.000 72.680 63.003 72.684 C 63.003 72.684 63.011 72.899 63.011 72.899 C 63.009 72.904 59.816 73.722 58.413 73.833 C 57.033 73.942 53.807 73.641 53.805 73.637 C 53.805 73.637 53.840 73.326 53.840 73.326 Z" clip-path="url(#4a14a96f-5cf1-46fc-851d-0bd09f836b45)"/>
<path fill="#c69c54" fill-rule="evenodd" stroke="none" d="M 53.877 73.876 C 53.880 73.873 57.029 74.148 58.377 74.058 C 59.794 73.963 63.037 73.231 63.040 73.234 C 63.040 73.235 63.049 73.450 63.048 73.450 C 63.046 73.454 59.853 74.273 58.450 74.383 C 57.071 74.492 53.844 74.192 53.842 74.188 C 53.842 74.187 53.877 73.876 53.877 73.876 Z" clip-path="url(#4a14a96f-5cf1-46fc-851d-0bd09f836b45)"/>
<path fill="#c69c54" fill-rule="evenodd" stroke="none" d="M 53.986 74.651 C 53.989 74.648 57.138 74.923 58.486 74.833 C 59.903 74.738 63.146 74.006 63.149 74.009 C 63.149 74.010 63.158 74.225 63.157 74.225 C 63.155 74.229 59.962 75.048 58.559 75.158 C 57.179 75.267 53.953 74.967 53.951 74.963 C 53.951 74.962 53.986 74.651 53.986 74.651 Z" clip-path="url(#4a14a96f-5cf1-46fc-851d-0bd09f836b45)"/>
<path fill="#c69c54" fill-rule="evenodd" stroke="none" d="M 101.575 75.073 C 101.343 76.114 103.113 77.095 104.024 77.649 C 105.597 78.606 108.129 79.206 109.970 79.176 C 112.529 79.133 117.988 79.188 118.112 76.632 C 118.257 73.613 111.466 74.071 108.462 73.742 C 107.863 73.676 107.051 73.722 106.454 73.802 C 104.955 74.001 101.904 73.597 101.575 75.073 Z" clip-path="url(#4a14a96f-5cf1-46fc-851d-0bd09f836b45)"/>
<path fill="#c69c54" fill-rule="evenodd" stroke="none" d="M 124.874 69.038 C 126.991 69.065 128.841 64.207 127.569 62.514 C 126.656 61.298 123.454 61.382 122.501 62.568 C 121.560 63.739 122.817 66.140 123.513 67.472 C 123.801 68.023 124.251 69.030 124.874 69.038 Z" clip-path="url(#4a14a96f-5cf1-46fc-851d-0bd09f836b45)"/>
<path fill="#c69c54" fill-rule="evenodd" stroke="none" d="M 120.280 68.998 C 120.800 69.544 122.029 70.803 122.029 70.803 C 121.932 69.696 122.007 67.916 121.153 67.204 C 120.504 66.664 118.723 66.177 118.350 66.935 C 117.975 67.695 119.695 68.384 120.280 68.998 Z" clip-path="url(#4a14a96f-5cf1-46fc-851d-0bd09f836b45)"/>
<path fill="#c69c54" fill-rule="evenodd" stroke="none" d="M 126.056 72.353 C 126.059 72.356 128.203 69.614 129.309 70.062 C 130.192 70.421 130.097 73.139 130.100 73.140 C 130.105 73.141 133.185 69.255 132.111 67.991 C 131.408 67.164 129.434 67.713 128.503 68.271 C 127.278 69.005 126.052 72.351 126.056 72.353 Z" clip-path="url(#4a14a96f-5cf1-46fc-851d-0bd09f836b45)"/>
<path fill="#c69c54" fill-rule="evenodd" stroke="none" d="M 146.141 59.147 C 145.652 59.194 145.279 59.914 144.982 60.306 C 144.783 60.570 144.634 60.997 144.436 61.261 C 142.798 63.451 139.386 65.292 137.821 67.536 C 136.794 69.008 136.563 71.655 135.365 72.992 C 134.422 74.046 132.388 74.497 131.342 75.447 C 129.714 76.925 126.087 79.403 127.045 81.381 C 128.602 84.598 135.931 81.233 138.719 78.996 C 143.678 75.017 152.469 58.535 146.141 59.147 Z" clip-path="url(#4a14a96f-5cf1-46fc-851d-0bd09f836b45)"/>
</g>
</g>
<g id="Layer_5">
<path fill="#a70627" fill-rule="evenodd" stroke="none" d="M 90.215 82.652 C 92.690 82.652 93.652 83.840 93.652 84.878 C 93.652 85.915 92.690 87.103 90.215 87.103 C 87.741 87.103 86.779 85.915 86.779 84.878 C 86.779 83.840 87.741 82.652 90.215 82.652 Z"/>
<path fill="#fff5f6" fill-rule="evenodd" stroke="none" d="M 73.707 83.224 C 75.765 83.224 76.664 84.283 76.664 85.235 C 76.664 86.186 75.765 87.245 73.707 87.245 C 71.650 87.245 70.751 86.186 70.751 85.235 C 70.751 84.283 71.650 83.224 73.707 83.224 Z"/>
<path fill="#a70627" fill-rule="evenodd" stroke="none" d="M 59.487 84.052 C 61.193 84.052 62.000 84.976 62.000 85.826 C 62.000 86.676 61.193 87.600 59.487 87.600 C 57.782 87.600 56.974 86.676 56.974 85.826 C 56.974 84.976 57.782 84.052 59.487 84.052 Z"/>
<path fill="#fff5f6" fill-rule="evenodd" stroke="none" d="M 51.357 86.062 C 52.184 86.062 52.835 86.717 52.835 87.511 C 52.835 88.305 52.184 88.960 51.357 88.960 C 50.531 88.960 49.879 88.305 49.879 87.511 C 49.879 86.717 50.531 86.062 51.357 86.062 Z"/>
<path fill="#fff5f6" fill-rule="evenodd" stroke="none" d="M 106.639 83.431 C 109.248 83.431 110.038 84.496 110.038 85.370 C 110.038 86.243 109.248 87.308 106.639 87.308 C 104.030 87.308 103.240 86.243 103.240 85.370 C 103.240 84.496 104.030 83.431 106.639 83.431 Z"/>
<path fill="#a70627" fill-rule="evenodd" stroke="none" d="M 121.847 84.690 C 123.541 84.690 124.239 85.531 124.239 86.276 C 124.239 87.021 123.541 87.862 121.847 87.862 C 120.153 87.862 119.455 87.021 119.455 86.276 C 119.455 85.531 120.153 84.690 121.847 84.690 Z"/>
<path fill="#fff5f6" fill-rule="evenodd" stroke="none" d="M 129.930 86.135 C 131.304 86.135 131.776 86.751 131.776 87.277 C 131.776 87.802 131.304 88.418 129.930 88.418 C 128.557 88.418 128.085 87.802 128.085 87.277 C 128.085 86.751 128.557 86.135 129.930 86.135 Z"/>
</g>
<g id="Layer_5">
<path fill="#fff5f6" fill-rule="evenodd" stroke="none" d="M 131.667 50.873 C 132.606 50.873 133.324 51.598 133.324 52.455 C 133.324 53.311 132.606 54.037 131.667 54.036 C 130.729 54.036 130.011 53.311 130.011 52.455 C 130.011 51.598 130.729 50.873 131.667 50.873 Z"/>
<path fill="#fff5f6" fill-rule="evenodd" stroke="none" d="M 133.724 47.904 C 134.970 47.904 135.841 48.801 135.841 49.789 C 135.841 50.776 134.970 51.673 133.724 51.673 C 132.478 51.673 131.607 50.776 131.607 49.789 C 131.607 48.801 132.478 47.904 133.724 47.904 Z"/>
<path fill="#fff5f6" fill-rule="evenodd" stroke="none" d="M 135.492 43.019 C 137.209 43.019 138.493 44.323 138.493 45.834 C 138.493 47.344 137.209 48.649 135.492 48.649 C 133.775 48.649 132.491 47.344 132.491 45.834 C 132.491 44.323 133.775 43.019 135.492 43.019 Z"/>
<path fill="#fff5f6" fill-rule="evenodd" stroke="none" d="M 135.306 37.064 C 136.954 37.064 138.400 38.481 138.400 40.414 C 138.400 42.346 136.954 43.763 135.306 43.763 C 133.657 43.763 132.212 42.346 132.212 40.414 C 132.212 38.481 133.657 37.064 135.306 37.064 Z"/>
<path fill="#fff5f6" fill-rule="evenodd" stroke="none" d="M 133.701 32.597 C 135.336 32.597 136.678 33.934 136.678 35.621 C 136.678 37.308 135.336 38.646 133.701 38.646 C 132.065 38.646 130.723 37.308 130.723 35.621 C 130.723 33.934 132.065 32.597 133.701 32.597 Z"/>
<path fill="#fff5f6" fill-rule="evenodd" stroke="none" d="M 132.049 29.340 C 133.976 29.340 135.329 30.733 135.329 32.271 C 135.329 33.810 133.976 35.203 132.049 35.203 C 130.122 35.203 128.769 33.810 128.769 32.271 C 128.769 30.733 130.122 29.340 132.049 29.340 Z"/>
<path fill="#fff5f6" fill-rule="evenodd" stroke="none" d="M 128.885 26.269 C 130.250 26.269 131.374 27.388 131.374 28.805 C 131.374 30.222 130.250 31.341 128.885 31.341 C 127.520 31.341 126.396 30.222 126.396 28.805 C 126.396 27.388 127.520 26.269 128.885 26.269 Z"/>
<path fill="#fff5f6" fill-rule="evenodd" stroke="none" d="M 125.256 24.734 C 126.604 24.734 127.559 25.715 127.559 26.804 C 127.559 27.894 126.604 28.875 125.256 28.875 C 123.908 28.875 122.953 27.894 122.953 26.804 C 122.953 25.715 123.908 24.734 125.256 24.734 Z"/>
<path fill="#fff5f6" fill-rule="evenodd" stroke="none" d="M 121.929 23.850 C 122.917 23.850 123.651 24.596 123.651 25.455 C 123.651 26.314 122.917 27.060 121.929 27.060 C 120.941 27.060 120.208 26.314 120.208 25.455 C 120.208 24.596 120.941 23.850 121.929 23.850 Z"/>
<path fill="#fff5f6" fill-rule="evenodd" stroke="none" d="M 118.997 23.240 C 119.854 23.240 120.567 23.948 120.567 24.855 C 120.567 25.762 119.854 26.471 118.997 26.471 C 118.139 26.471 117.426 25.762 117.426 24.855 C 117.426 23.948 118.139 23.240 118.997 23.240 Z"/>
<path fill="#fff5f6" fill-rule="evenodd" stroke="none" d="M 116.442 23.539 C 117.440 23.539 118.196 24.305 118.196 25.201 C 118.196 26.098 117.440 26.864 116.442 26.864 C 115.444 26.864 114.688 26.098 114.688 25.201 C 114.688 24.305 115.444 23.539 116.442 23.539 Z"/>
<path fill="#fff5f6" fill-rule="evenodd" stroke="none" d="M 113.540 23.722 C 114.432 23.722 115.159 24.448 115.159 25.359 C 115.160 26.269 114.432 26.995 113.540 26.995 C 112.647 26.995 111.920 26.269 111.920 25.359 C 111.920 24.448 112.647 23.722 113.540 23.722 Z"/>
<path fill="#fff5f6" fill-rule="evenodd" stroke="none" d="M 111.207 25.148 C 111.949 25.148 112.600 25.786 112.600 26.654 C 112.600 27.523 111.949 28.161 111.207 28.161 C 110.464 28.161 109.814 27.523 109.814 26.654 C 109.814 25.786 110.464 25.148 111.207 25.148 Z"/>
<path fill="#fff5f6" fill-rule="evenodd" stroke="none" d="M 109.338 26.595 C 110.097 26.595 110.702 27.202 110.702 27.945 C 110.702 28.689 110.097 29.295 109.338 29.295 C 108.580 29.295 107.975 28.689 107.975 27.945 C 107.975 27.202 108.580 26.595 109.338 26.595 Z"/>
<path fill="#fff5f6" fill-rule="evenodd" stroke="none" d="M 107.543 28.080 C 108.161 28.080 108.623 28.549 108.623 29.093 C 108.623 29.636 108.161 30.105 107.543 30.105 C 106.925 30.105 106.463 29.636 106.463 29.093 C 106.463 28.549 106.925 28.080 107.543 28.080 Z"/>
<path fill="#fff5f6" fill-rule="evenodd" stroke="none" d="M 49.345 51.453 C 48.410 51.530 47.754 52.311 47.823 53.165 C 47.893 54.018 48.667 54.683 49.603 54.606 C 50.538 54.530 51.195 53.748 51.125 52.895 C 51.055 52.042 50.281 51.377 49.345 51.453 Z"/>
<path fill="#fff5f6" fill-rule="evenodd" stroke="none" d="M 47.054 48.662 C 45.812 48.763 45.017 49.728 45.098 50.712 C 45.178 51.696 46.119 52.519 47.361 52.418 C 48.603 52.317 49.398 51.352 49.318 50.368 C 49.237 49.384 48.296 48.561 47.054 48.662 Z"/>
<path fill="#fff5f6" fill-rule="evenodd" stroke="none" d="M 44.895 43.937 C 43.183 44.076 42.010 45.481 42.133 46.986 C 42.256 48.492 43.642 49.687 45.353 49.548 C 47.064 49.408 48.237 48.003 48.115 46.498 C 47.992 44.993 46.606 43.797 44.895 43.937 Z"/>
<path fill="#fff5f6" fill-rule="evenodd" stroke="none" d="M 44.595 37.986 C 42.952 38.120 41.627 39.651 41.784 41.577 C 41.941 43.502 43.498 44.798 45.141 44.664 C 46.784 44.529 48.109 42.999 47.952 41.073 C 47.795 39.147 46.238 37.852 44.595 37.986 Z"/>
<path fill="#fff5f6" fill-rule="evenodd" stroke="none" d="M 45.832 33.404 C 44.202 33.537 42.973 34.979 43.110 36.660 C 43.247 38.342 44.694 39.565 46.324 39.432 C 47.954 39.299 49.183 37.857 49.046 36.175 C 48.908 34.494 47.462 33.270 45.832 33.404 Z"/>
<path fill="#fff5f6" fill-rule="evenodd" stroke="none" d="M 47.213 30.023 C 45.293 30.180 44.057 31.678 44.182 33.211 C 44.307 34.745 45.770 36.023 47.690 35.866 C 49.610 35.709 50.846 34.211 50.721 32.678 C 50.595 31.144 49.133 29.866 47.213 30.023 Z"/>
<path fill="#fff5f6" fill-rule="evenodd" stroke="none" d="M 50.116 26.705 C 48.756 26.816 47.726 28.023 47.842 29.435 C 47.957 30.847 49.168 31.871 50.529 31.760 C 51.890 31.649 52.919 30.442 52.804 29.030 C 52.688 27.618 51.477 26.594 50.116 26.705 Z"/>
<path fill="#fff5f6" fill-rule="evenodd" stroke="none" d="M 53.608 24.879 C 52.265 24.989 51.393 26.044 51.481 27.130 C 51.570 28.216 52.602 29.116 53.945 29.007 C 55.289 28.897 56.161 27.842 56.072 26.756 C 55.984 25.670 54.952 24.770 53.608 24.879 Z"/>
<path fill="#fff5f6" fill-rule="evenodd" stroke="none" d="M 56.852 23.728 C 55.867 23.808 55.197 24.611 55.267 25.468 C 55.337 26.324 56.129 27.008 57.113 26.927 C 58.098 26.847 58.768 26.043 58.699 25.187 C 58.629 24.331 57.837 23.647 56.852 23.728 Z"/>
<path fill="#fff5f6" fill-rule="evenodd" stroke="none" d="M 59.725 22.881 C 58.871 22.950 58.217 23.715 58.291 24.619 C 58.365 25.523 59.134 26.171 59.988 26.101 C 60.843 26.031 61.496 25.267 61.422 24.363 C 61.348 23.459 60.580 22.811 59.725 22.881 Z"/>
<path fill="#fff5f6" fill-rule="evenodd" stroke="none" d="M 62.296 22.971 C 61.301 23.052 60.610 23.877 60.683 24.770 C 60.756 25.664 61.572 26.366 62.567 26.285 C 63.561 26.204 64.253 25.378 64.180 24.485 C 64.107 23.591 63.291 22.889 62.296 22.971 Z"/>
<path fill="#fff5f6" fill-rule="evenodd" stroke="none" d="M 65.204 22.918 C 64.314 22.990 63.648 23.773 63.722 24.680 C 63.796 25.587 64.581 26.252 65.470 26.179 C 66.359 26.106 67.026 25.324 66.951 24.416 C 66.877 23.509 66.093 22.845 65.204 22.918 Z"/>
<path fill="#fff5f6" fill-rule="evenodd" stroke="none" d="M 67.645 24.149 C 66.905 24.209 66.308 24.898 66.379 25.764 C 66.449 26.629 67.150 27.212 67.890 27.152 C 68.630 27.091 69.227 26.402 69.156 25.537 C 69.085 24.671 68.385 24.088 67.645 24.149 Z"/>
<path fill="#fff5f6" fill-rule="evenodd" stroke="none" d="M 69.625 25.439 C 68.869 25.501 68.315 26.154 68.376 26.895 C 68.436 27.636 69.088 28.192 69.844 28.130 C 70.600 28.068 71.154 27.414 71.093 26.673 C 71.033 25.932 70.381 25.377 69.625 25.439 Z"/>
<path fill="#fff5f6" fill-rule="evenodd" stroke="none" d="M 71.535 26.773 C 70.919 26.823 70.497 27.329 70.541 27.870 C 70.585 28.411 71.084 28.841 71.700 28.791 C 72.316 28.741 72.738 28.235 72.694 27.694 C 72.650 27.153 72.151 26.723 71.535 26.773 Z"/>
<path fill="#fff5f6" fill-rule="evenodd" stroke="none" d="M 91.110 49.556 C 92.378 49.556 93.456 50.621 93.456 52.016 C 93.456 53.411 92.378 54.475 91.110 54.476 C 89.841 54.476 88.764 53.411 88.764 52.016 C 88.764 50.621 89.841 49.556 91.110 49.556 Z"/>
<path fill="#fff5f6" fill-rule="evenodd" stroke="none" d="M 90.947 45.288 C 92.420 45.288 93.521 46.406 93.521 47.699 C 93.521 48.992 92.420 50.110 90.947 50.110 C 89.474 50.110 88.373 48.992 88.373 47.699 C 88.373 46.406 89.474 45.288 90.947 45.288 Z"/>
<path fill="#fff5f6" fill-rule="evenodd" stroke="none" d="M 90.882 41.346 C 92.479 41.346 93.651 42.541 93.651 43.904 C 93.651 45.266 92.479 46.461 90.882 46.461 C 89.284 46.461 88.113 45.266 88.113 43.904 C 88.113 42.541 89.284 41.346 90.882 41.346 Z"/>
<path fill="#fff5f6" fill-rule="evenodd" stroke="none" d="M 90.670 36.101 C 92.395 36.101 93.912 37.587 93.912 39.620 C 93.912 41.652 92.395 43.138 90.670 43.138 C 88.945 43.138 87.429 41.652 87.429 39.620 C 87.429 37.588 88.945 36.101 90.670 36.101 Z"/>
<path fill="#fff5f6" fill-rule="evenodd" stroke="none" d="M 90.792 30.889 C 92.852 30.889 94.356 32.424 94.356 34.167 C 94.356 35.910 92.852 37.445 90.792 37.445 C 88.733 37.445 87.229 35.910 87.229 34.167 C 87.229 32.424 88.733 30.889 90.792 30.889 Z"/>
<path fill="#fff5f6" fill-rule="evenodd" stroke="none" d="M 90.990 25.387 C 93.049 25.387 94.596 26.957 94.596 28.781 C 94.596 30.606 93.049 32.176 90.990 32.176 C 88.931 32.176 87.384 30.606 87.384 28.781 C 87.384 26.957 88.931 25.387 90.990 25.387 Z"/>
<path fill="#fff5f6" fill-rule="evenodd" stroke="none" d="M 90.640 21.652 C 92.071 21.652 93.214 22.798 93.214 24.204 C 93.214 25.609 92.071 26.755 90.640 26.755 C 89.208 26.755 88.066 25.609 88.066 24.204 C 88.066 22.798 89.208 21.652 90.640 21.652 Z"/>
<path fill="#fff5f6" fill-rule="evenodd" stroke="none" d="M 90.625 19.424 C 91.699 19.424 92.544 20.274 92.544 21.302 C 92.544 22.331 91.699 23.181 90.625 23.181 C 89.550 23.181 88.705 22.331 88.705 21.302 C 88.705 20.274 89.550 19.424 90.625 19.424 Z"/>
</g>
</g>
</svg>
