<?xml version="1.0" encoding="utf-8"?>
<!-- Generator: Moho 12.2 build 21774 -->
<!DOCTYPE svg PUBLIC "-//W3C//DTD SVG 1.1//EN" "http://www.w3.org/Graphics/SVG/1.1/DTD/svg11.dtd">
<svg version="1.1" id="Frame_0" xmlns="http://www.w3.org/2000/svg" xmlns:xlink="http://www.w3.org/1999/xlink" width="100px" height="100px">
<g id="Layer_1">
<path fill="#ffffff" fill-rule="evenodd" stroke="none" d="M 90.644 23.123 C 90.642 23.125 67.918 45.933 67.916 45.935 C 67.916 45.935 64.686 42.826 64.685 42.826 C 64.688 42.824 87.331 20.550 87.334 20.548 C 87.334 20.548 87.735 20.077 87.805 19.828 C 87.951 19.314 88.023 18.452 87.668 18.051 C 87.300 17.634 86.373 17.504 85.850 17.692 C 85.642 17.767 85.331 18.218 85.331 18.218 C 85.329 18.220 62.768 40.659 62.765 40.661 C 62.765 40.661 59.454 37.350 59.454 37.350 C 59.456 37.348 81.895 15.032 81.897 15.029 C 81.897 15.029 82.233 14.520 82.291 14.269 C 82.398 13.813 82.483 13.091 82.212 12.709 C 81.895 12.264 81.057 12.037 80.511 12.057 C 80.286 12.065 79.813 12.331 79.812 12.331 C 79.810 12.334 57.371 35.140 57.369 35.143 C 57.369 35.142 54.303 32.199 54.303 32.199 C 54.305 32.197 76.619 9.757 76.621 9.755 C 76.622 9.755 78.118 8.604 78.870 8.336 C 80.587 7.722 83.141 7.454 84.928 7.822 C 86.545 8.155 88.588 9.265 89.799 10.389 C 90.771 11.292 91.792 12.844 92.187 14.110 C 92.756 15.936 92.817 18.653 92.270 20.486 C 92.005 21.377 90.644 23.123 90.644 23.123 M 18.001 73.284 C 18.000 73.286 7.332 88.981 7.331 88.982 C 7.332 88.983 10.765 92.661 10.765 92.661 C 10.767 92.660 26.830 82.483 26.831 82.482 C 26.831 82.482 28.058 76.719 28.058 76.718 C 28.059 76.717 40.934 63.965 40.935 63.963 C 40.935 63.963 36.398 59.303 36.397 59.303 C 36.396 59.304 23.399 72.302 23.397 72.303 C 23.397 72.303 18.002 73.284 18.001 73.284 M 75.057 81.468 C 75.057 84.949 77.911 87.458 81.094 87.458 C 84.276 87.458 87.130 84.949 87.130 81.468 C 87.130 77.988 84.276 75.479 81.094 75.479 C 77.911 75.479 75.057 77.988 75.057 81.468 M 32.207 27.358 C 32.206 27.359 26.607 32.743 26.606 32.743 C 26.606 32.744 24.743 33.793 23.862 33.789 C 23.119 33.787 22.202 33.263 21.543 32.920 C 20.953 32.612 19.714 31.667 19.713 31.666 C 19.712 31.665 9.375 21.113 9.374 21.112 C 9.374 21.112 7.835 25.533 7.765 27.511 C 7.688 29.688 8.163 32.670 9.063 34.653 C 10.566 37.964 13.897 41.826 16.863 43.930 C 18.286 44.939 20.550 45.693 22.227 46.174 C 24.511 46.828 30.052 47.391 30.053 47.391 C 30.057 47.395 69.468 86.159 69.471 86.163 C 69.472 86.164 72.959 90.534 75.033 91.603 C 77.111 92.673 80.408 93.425 82.701 92.976 C 85.063 92.513 87.851 90.451 89.471 88.672 C 90.634 87.395 91.863 85.290 92.180 83.592 C 92.587 81.418 92.094 78.300 91.179 76.286 C 90.064 73.830 85.196 69.578 85.196 69.577 C 85.192 69.573 47.289 31.239 47.285 31.236 C 47.285 31.235 47.525 25.836 46.959 23.621 C 46.132 20.386 44.182 16.136 41.876 13.722 C 39.686 11.428 35.770 9.305 32.718 8.438 C 30.187 7.719 26.521 7.515 23.954 8.093 C 22.859 8.340 20.575 9.695 20.575 9.695 C 20.576 9.696 31.559 20.464 31.561 20.465 C 31.561 20.466 32.445 21.536 32.695 22.069 C 33.069 22.869 33.506 24.046 33.409 24.924 C 33.320 25.733 32.207 27.358 32.207 27.358 Z"/>
</g>
</svg>
