<?xml version="1.0" encoding="utf-8"?>
<!-- Generator: Moho 12.2 build 21774 -->
<!DOCTYPE svg PUBLIC "-//W3C//DTD SVG 1.1//EN" "http://www.w3.org/Graphics/SVG/1.1/DTD/svg11.dtd">
<svg version="1.1" id="Frame_0" xmlns="http://www.w3.org/2000/svg" xmlns:xlink="http://www.w3.org/1999/xlink" width="30px" height="30px">
	<g id="Layer_4">
		<path fill="none" stroke="#ffffff" stroke-width="1" stroke-linecap="round" stroke-linejoin="round" d="M 19.938 23.644 C 18.720 25.281 14.843 28.149 14.843 28.149 C 14.842 28.149 10.814 25.183 9.607 23.452 C 7.959 21.090 6.828 17.288 6.189 14.480 C 5.719 12.411 5.543 7.439 5.543 7.439 C 5.544 7.438 8.712 5.462 10.034 4.562 C 11.516 3.552 14.873 1.056 14.873 1.056 C 14.874 1.056 18.105 3.457 19.528 4.433 C 20.959 5.416 24.384 7.580 24.385 7.580 C 24.385 7.581 23.960 13.832 23.223 16.395 C 22.563 18.690 21.363 21.728 19.938 23.644 "/>
		<path fill="#ffffff" fill-rule="evenodd" stroke="none" d="M 15.208 25.965 C 15.208 25.965 11.764 23.367 10.737 21.865 C 9.402 19.914 8.480 16.795 7.972 14.486 C 7.570 12.660 7.468 8.277 7.468 8.277 C 7.468 8.276 9.841 6.852 10.845 6.222 C 12.034 5.476 14.770 3.678 14.771 3.678 C 14.771 3.678 17.365 5.568 18.539 6.282 C 19.671 6.970 22.437 8.354 22.438 8.354 C 22.437 8.355 22.079 13.332 21.539 15.390 C 21.010 17.403 20.038 20.056 18.928 21.817 C 18.037 23.231 15.208 25.965 15.208 25.965 Z"/>
	</g>
</svg>
