<?xml version="1.0" encoding="utf-8"?>
<!-- Generator: Moho 12.2 build 21774 -->
<!DOCTYPE svg PUBLIC "-//W3C//DTD SVG 1.1//EN" "http://www.w3.org/Graphics/SVG/1.1/DTD/svg11.dtd">
<svg version="1.1" id="Frame_0" xmlns="http://www.w3.org/2000/svg" xmlns:xlink="http://www.w3.org/1999/xlink" width="30px" height="30px">
<path fill="#fbf264" fill-rule="evenodd" stroke="#000000" stroke-width="0" stroke-linecap="round" stroke-linejoin="round" d="M 14.943 2.054 C 14.943 2.055 11.793 11.943 11.793 11.944 C 11.792 11.944 1.415 12.004 1.413 12.004 C 1.414 12.004 9.845 18.055 9.845 18.056 C 9.845 18.057 6.695 27.945 6.695 27.946 C 6.696 27.945 15.056 21.797 15.057 21.797 C 15.058 21.797 23.488 27.849 23.489 27.849 C 23.488 27.848 20.225 17.997 20.225 17.996 C 20.225 17.996 28.586 11.848 28.587 11.847 C 28.585 11.847 18.208 11.907 18.207 11.907 C 18.207 11.906 14.944 2.055 14.943 2.054 Z"/>
</svg>
