<?xml version="1.0" encoding="utf-8"?>
<!-- Generator: Moho 12.2 build 21774 -->
<!DOCTYPE svg PUBLIC "-//W3C//DTD SVG 1.1//EN" "http://www.w3.org/Graphics/SVG/1.1/DTD/svg11.dtd">
<svg version="1.1" id="Frame_0" xmlns="http://www.w3.org/2000/svg" xmlns:xlink="http://www.w3.org/1999/xlink" width="30px" height="30px">
<g id="Layer_1">
<path fill="#ffffff" fill-rule="evenodd" stroke="none" d="M 6.401 10.293 C 6.401 10.293 8.909 7.774 8.909 7.774 C 8.909 7.774 8.501 9.870 8.501 9.870 C 8.501 9.870 6.401 10.293 6.401 10.293 M 7.578 8.145 C 7.578 8.145 6.886 8.873 6.886 8.873 C 6.886 8.872 3.024 5.496 3.024 5.496 C 3.024 5.496 2.845 5.225 2.827 5.091 C 2.810 4.971 2.844 4.803 2.894 4.693 C 2.929 4.618 3.067 4.477 3.067 4.477 C 3.067 4.477 3.208 4.375 3.276 4.345 C 3.386 4.296 3.543 4.237 3.663 4.240 C 3.806 4.244 4.114 4.391 4.114 4.391 C 4.114 4.391 7.578 8.145 7.578 8.145 M 9.000 10.226 C 8.999 10.226 5.079 11.157 5.079 11.157 C 5.079 11.156 6.545 9.521 6.545 9.520 C 6.545 9.520 2.427 5.938 2.427 5.938 C 2.427 5.938 2.076 5.405 2.040 5.142 C 2.007 4.907 2.073 4.576 2.173 4.360 C 2.241 4.212 2.511 3.935 2.511 3.935 C 2.511 3.935 2.790 3.735 2.923 3.675 C 3.139 3.579 3.448 3.463 3.685 3.469 C 3.965 3.476 4.571 3.765 4.571 3.765 C 4.571 3.766 8.181 7.743 8.182 7.743 C 8.182 7.743 9.648 6.305 9.649 6.304 C 9.649 6.305 9.000 10.225 9.000 10.226 M 9.559 10.612 C 9.560 10.614 24.896 25.922 24.897 25.923 C 24.897 25.923 23.697 23.109 23.697 23.109 C 23.696 23.107 9.807 9.761 9.806 9.760 C 9.806 9.760 10.219 9.290 10.219 9.290 C 10.220 9.291 24.230 22.712 24.232 22.714 C 24.232 22.714 26.426 27.910 26.426 27.911 C 26.426 27.911 21.372 25.744 21.372 25.744 C 21.370 25.743 7.812 11.505 7.810 11.504 C 7.810 11.503 8.260 11.088 8.260 11.088 C 8.262 11.089 21.869 25.126 21.870 25.127 C 21.871 25.127 24.488 26.396 24.488 26.396 C 24.486 26.395 9.243 10.921 9.241 10.920 C 9.241 10.920 9.559 10.612 9.559 10.612 Z"/>
</g>
<g id="Layer_2">
<path fill="#ffffff" fill-rule="evenodd" stroke="none" d="M 13.793 18.709 C 13.793 18.709 13.298 18.213 13.298 18.213 C 13.298 18.213 6.595 25.127 6.595 25.127 C 6.595 25.127 3.978 26.396 3.978 26.396 C 3.978 26.396 12.649 17.594 12.650 17.593 C 12.650 17.593 12.293 17.214 12.293 17.214 C 12.292 17.215 3.568 25.923 3.568 25.923 C 3.568 25.923 4.769 23.109 4.769 23.109 C 4.769 23.109 11.630 16.515 11.631 16.514 C 11.631 16.514 11.135 16.102 11.135 16.102 C 11.135 16.103 4.234 22.714 4.234 22.714 C 4.234 22.714 2.040 27.910 2.040 27.911 C 2.040 27.911 7.094 25.744 7.094 25.744 C 7.094 25.744 13.793 18.709 13.793 18.709 M 14.711 12.677 C 14.711 12.677 15.184 13.100 15.184 13.100 C 15.185 13.099 18.660 9.760 18.660 9.760 C 18.660 9.760 18.247 9.290 18.247 9.290 C 18.246 9.290 14.712 12.676 14.711 12.677 M 15.933 13.581 C 15.933 13.581 16.234 13.955 16.234 13.956 C 16.234 13.955 19.253 10.949 19.253 10.949 C 19.253 10.949 18.907 10.612 18.907 10.612 C 18.907 10.612 15.933 13.580 15.933 13.581 M 22.064 10.293 C 22.064 10.293 19.557 7.774 19.557 7.774 C 19.557 7.774 19.964 9.870 19.964 9.870 C 19.965 9.870 22.064 10.293 22.064 10.293 M 20.887 8.145 C 20.887 8.145 21.579 8.873 21.579 8.873 C 21.580 8.872 25.442 5.496 25.442 5.496 C 25.442 5.496 25.620 5.225 25.639 5.091 C 25.656 4.971 25.622 4.803 25.571 4.693 C 25.537 4.618 25.399 4.477 25.399 4.477 C 25.399 4.477 25.257 4.375 25.190 4.345 C 25.080 4.296 24.923 4.237 24.802 4.240 C 24.660 4.244 24.352 4.391 24.352 4.391 C 24.351 4.391 20.888 8.145 20.887 8.145 M 19.466 10.226 C 19.466 10.226 23.387 11.157 23.387 11.157 C 23.387 11.156 21.920 9.521 21.920 9.520 C 21.921 9.520 26.039 5.938 26.039 5.938 C 26.039 5.938 26.389 5.405 26.426 5.142 C 26.459 4.907 26.392 4.576 26.293 4.360 C 26.225 4.212 25.954 3.935 25.954 3.935 C 25.954 3.935 25.676 3.735 25.543 3.675 C 25.327 3.579 25.018 3.463 24.781 3.469 C 24.501 3.476 23.895 3.765 23.895 3.765 C 23.895 3.766 20.284 7.743 20.284 7.743 C 20.284 7.743 18.817 6.305 18.817 6.304 C 18.817 6.305 19.466 10.225 19.466 10.226 M 16.863 14.535 C 16.863 14.535 17.326 15.000 17.326 15.000 C 17.326 15.000 20.655 11.504 20.655 11.504 C 20.655 11.503 20.205 11.088 20.205 11.088 C 20.205 11.088 16.863 14.535 16.863 14.535 Z"/>
</g>
</svg>
