<?xml version="1.0" encoding="utf-8"?>
<!-- Generator: Moho 12.2 build 21774 -->
<!DOCTYPE svg PUBLIC "-//W3C//DTD SVG 1.1//EN" "http://www.w3.org/Graphics/SVG/1.1/DTD/svg11.dtd">
<svg version="1.1" id="Frame_0" xmlns="http://www.w3.org/2000/svg" xmlns:xlink="http://www.w3.org/1999/xlink" width="100px" height="100px">
	<g id="Dragon">
		<path fill="#507039" fill-rule="evenodd" stroke="#000000" stroke-width="1" stroke-linecap="round" stroke-linejoin="round" d="M 36.904 35.580 C 36.527 34.274 38.549 32.845 39.468 31.844 C 40.165 31.085 41.087 29.800 42.106 29.646 C 42.800 29.541 43.865 29.903 44.303 30.452 C 44.841 31.125 44.286 32.505 44.596 33.309 C 44.710 33.605 45.182 34.188 45.182 34.188 C 45.183 34.188 46.108 32.327 46.647 31.624 C 47.102 31.032 47.674 30.011 48.406 29.866 C 48.863 29.775 49.512 30.081 49.871 30.379 C 50.537 30.931 50.885 32.133 51.189 32.943 C 51.476 33.706 51.849 35.580 51.849 35.580 C 51.849 35.580 54.169 34.899 55.145 34.554 C 56.104 34.216 57.418 32.796 58.295 33.309 C 59.213 33.846 58.674 35.764 58.735 36.825 C 58.760 37.264 58.735 38.290 58.735 38.290 C 58.735 38.290 60.681 37.917 61.519 37.778 C 62.549 37.606 63.931 37.099 64.962 37.265 C 65.389 37.333 66.056 37.480 66.280 37.851 C 66.970 38.991 65.577 40.880 65.255 42.173 C 65.107 42.768 64.742 44.151 64.742 44.151 C 64.742 44.151 66.205 43.423 66.866 43.199 C 67.593 42.952 68.592 42.557 69.357 42.612 C 69.634 42.632 70.071 42.682 70.236 42.906 C 70.751 43.604 70.134 44.964 69.797 45.763 C 69.510 46.443 68.332 47.740 68.332 47.740 C 68.332 47.740 69.468 47.017 70.016 46.861 C 70.673 46.675 71.667 46.429 72.287 46.715 C 72.627 46.871 72.946 47.323 73.093 47.667 C 73.413 48.416 73.429 49.586 73.240 50.378 C 72.964 51.529 71.553 52.622 71.189 53.748 C 71.141 53.895 71.115 54.260 71.115 54.260 C 71.116 54.260 73.551 54.459 74.412 54.993 C 74.835 55.256 75.438 55.745 75.511 56.238 C 75.604 56.870 74.962 57.647 74.558 58.143 C 74.084 58.726 73.117 59.155 72.580 59.681 C 72.336 59.922 71.848 60.560 71.848 60.560 C 71.848 60.560 73.038 60.456 73.533 60.560 C 74.389 60.742 76.085 60.935 76.170 61.806 C 76.258 62.698 74.478 63.037 73.753 63.564 C 73.269 63.916 72.441 64.219 72.141 64.736 C 71.830 65.271 71.638 66.237 71.921 66.787 C 72.326 67.574 73.809 67.636 74.558 68.106 C 74.931 68.339 75.645 68.554 75.730 68.985 C 75.881 69.739 74.832 70.609 74.192 71.036 C 73.292 71.637 71.587 71.258 70.676 71.842 C 70.216 72.137 69.504 73.234 69.504 73.234 C 69.504 73.234 70.918 73.012 71.408 73.307 C 71.990 73.657 72.424 74.611 72.507 75.285 C 72.614 76.148 71.701 78.069 71.701 78.069 C 71.702 78.068 72.661 75.277 73.386 74.259 C 73.639 73.905 73.986 73.323 74.412 73.234 C 75.153 73.079 76.225 73.730 76.683 74.333 C 77.341 75.199 77.196 77.922 77.196 77.922 C 77.196 77.922 77.607 73.804 77.928 72.062 C 78.117 71.040 77.770 69.081 78.734 68.692 C 79.888 68.226 82.103 71.109 82.104 71.109 C 82.104 71.109 81.975 68.629 82.177 67.593 C 82.334 66.788 82.371 65.342 83.129 65.029 C 83.650 64.814 84.522 65.260 84.888 65.688 C 85.719 66.664 85.327 69.937 85.327 69.937 C 85.327 69.937 86.554 67.995 87.378 67.520 C 87.942 67.195 88.952 66.734 89.503 67.080 C 90.004 67.395 89.991 68.394 90.016 68.985 C 90.067 70.221 89.738 71.933 89.137 73.014 C 88.978 73.300 88.404 73.820 88.404 73.820 C 88.404 73.820 86.430 71.188 85.181 71.183 C 84.038 71.178 82.921 72.659 82.177 73.527 C 81.122 74.759 80.857 77.247 79.613 78.289 C 77.993 79.645 74.981 80.497 72.873 80.340 C 71.460 80.234 69.382 79.583 68.551 78.435 C 67.377 76.812 68.101 73.770 68.185 71.769 C 68.295 69.173 69.301 65.793 69.430 63.198 C 69.538 61.045 69.769 58.080 69.137 56.019 C 68.673 54.501 67.288 52.810 66.427 51.477 C 64.749 48.878 62.796 45.107 60.489 43.046 C 57.843 40.682 53.486 38.419 50.078 37.431 C 46.732 36.461 41.978 36.717 38.496 36.612 C 37.935 36.595 37.062 36.127 36.904 35.580 Z"/>
		<path fill="#a6750c" fill-rule="evenodd" stroke="#000000" stroke-width="2" stroke-linecap="round" stroke-linejoin="round" d="M 68.251 52.885 C 68.252 52.885 71.152 52.406 72.183 51.738 C 74.048 50.530 75.684 47.861 76.770 45.922 C 77.769 44.138 78.313 41.401 79.145 39.534 C 79.212 39.383 79.391 39.042 79.391 39.042 C 79.391 39.042 81.434 39.677 82.340 39.779 C 85.249 40.109 89.164 39.461 92.087 39.288 C 93.193 39.222 95.772 39.042 95.773 39.042 C 95.773 39.042 94.521 39.596 94.053 39.943 C 92.543 41.062 90.799 42.715 89.483 44.452 C 89.001 45.088 88.565 45.761 88.237 46.414 C 87.481 47.922 87.009 51.901 87.009 51.902 C 87.008 51.902 84.327 50.553 83.077 50.509 C 82.072 50.474 80.490 50.599 79.834 51.362 C 79.339 51.938 79.473 53.867 79.473 53.868 C 79.473 53.868 77.655 52.708 76.768 52.668 C 75.131 52.595 73.198 54.041 71.692 54.687 C 71.146 54.921 69.890 55.506 69.890 55.506 C 69.889 55.506 68.251 52.885 68.251 52.885 Z"/>
		<path fill="none" stroke="#000000" stroke-width="0" stroke-linecap="round" stroke-linejoin="round" d="M 76.770 45.922 C 77.671 48.571 78.572 51.219 79.473 53.868 M 79.391 39.042 C 81.930 43.329 84.469 47.615 87.009 51.902 M 82.340 39.779 C 84.721 41.337 87.102 42.894 89.483 44.452 M 79.391 39.042 C 79.391 39.042 81.434 39.677 82.340 39.779 "/>
		<g id="EyeZP">
			<clipPath id="ec09d576-d529-4b5f-b1c4-ae82fd090ca4">
				<path fill="#d4b461" fill-rule="evenodd" stroke="none" d="M 10.567 75.495 C 8.890 75.055 7.764 74.388 6.976 73.427 C 5.649 71.810 4.977 69.288 5.018 66.736 C 5.040 65.422 5.522 64.245 6.011 63.286 C 6.816 61.706 7.905 60.360 9.736 58.699 C 10.461 58.040 10.962 57.251 11.656 57.359 C 16.176 58.063 15.069 66.647 15.027 72.230 C 15.017 73.462 15.213 74.930 14.407 75.538 C 13.967 75.869 13.123 75.551 12.573 75.545 C 11.971 75.539 11.379 75.707 10.567 75.495 Z"/>
			</clipPath>
			<path fill="#d4b461" fill-rule="evenodd" stroke="#000000" stroke-width="1" stroke-linecap="round" stroke-linejoin="round" d="M 10.567 75.495 C 8.890 75.055 7.764 74.388 6.976 73.427 C 5.649 71.810 4.977 69.288 5.018 66.736 C 5.040 65.422 5.522 64.245 6.011 63.286 C 6.816 61.706 7.905 60.360 9.736 58.699 C 10.461 58.040 10.962 57.251 11.656 57.359 C 16.176 58.063 15.069 66.647 15.027 72.230 C 15.017 73.462 15.213 74.930 14.407 75.538 C 13.967 75.869 13.123 75.551 12.573 75.545 C 11.971 75.539 11.379 75.707 10.567 75.495 Z"/>
			<path fill="#0e0e0e" fill-rule="evenodd" stroke="#000000" stroke-width="0" stroke-linecap="round" stroke-linejoin="round" d="M 7.779 73.983 C 7.328 73.603 7.087 73.269 6.863 72.910 C 6.266 71.952 5.757 70.761 5.475 69.412 C 5.221 68.202 5.201 67.040 5.343 66.037 C 5.432 65.410 5.697 64.591 5.978 64.022 C 6.271 63.430 6.888 62.245 7.247 62.221 C 7.829 62.182 8.859 64.169 9.303 65.146 C 9.932 66.529 10.319 68.231 10.442 70.082 C 10.511 71.135 10.608 72.185 10.217 72.957 C 9.913 73.558 8.863 74.447 8.544 74.455 C 8.417 74.458 8.066 74.226 7.779 73.983 Z" clip-path="url(#ec09d576-d529-4b5f-b1c4-ae82fd090ca4)"/>
			<path fill="#ffffff" fill-rule="evenodd" stroke="none" d="M 5.888 66.268 C 5.697 66.296 5.643 66.152 5.643 66.075 C 5.643 65.997 5.697 65.853 5.888 65.881 C 6.036 65.904 6.036 66.014 6.036 66.075 C 6.036 66.135 6.036 66.246 5.888 66.268 M 6.936 65.468 C 6.861 65.618 6.745 65.802 6.537 65.860 C 6.339 65.808 6.329 65.702 6.285 65.653 C 6.229 65.593 6.103 65.568 6.059 65.499 C 6.012 65.425 5.989 65.323 6.014 65.210 C 6.086 64.888 6.219 64.617 6.537 64.560 C 6.697 64.531 6.842 64.636 6.919 64.737 C 7.000 64.844 6.992 65.002 6.988 65.180 C 6.986 65.296 6.976 65.390 6.936 65.468 M 6.537 65.860 C 6.483 65.875 6.431 65.866 6.395 65.843 Z" clip-path="url(#ec09d576-d529-4b5f-b1c4-ae82fd090ca4)"/>
		</g>
		<path fill="#63300e" fill-rule="evenodd" stroke="#000000" stroke-width="2" stroke-linecap="round" stroke-linejoin="round" d="M 16.702 56.062 C 16.075 54.370 12.979 53.974 11.736 52.664 C 10.983 51.871 10.280 50.562 9.776 49.593 C 9.179 48.447 8.898 46.655 8.142 45.607 C 7.890 45.258 7.511 44.512 7.096 44.626 C 6.665 44.745 6.748 45.619 6.704 46.064 C 6.593 47.202 7.011 48.714 7.096 49.854 C 7.158 50.676 7.063 51.791 7.227 52.599 C 7.427 53.584 8.016 54.808 8.403 55.736 C 8.836 56.772 9.231 58.289 9.972 59.134 C 10.617 59.870 11.865 60.415 12.716 60.898 C 13.402 61.288 14.322 62.330 15.069 62.074 C 16.684 61.520 17.352 57.815 16.702 56.062 Z"/>
		<path fill="#7371c6" fill-rule="evenodd" stroke="#000000" stroke-width="1" stroke-linecap="round" stroke-linejoin="round" d="M 46.596 87.254 C 46.597 87.254 53.342 87.608 53.343 87.608 C 53.343 87.608 52.434 89.797 52.185 90.779 C 52.051 91.304 52.087 92.055 51.898 92.563 C 51.766 92.918 51.248 93.647 51.248 93.647 C 51.248 93.647 50.832 93.667 50.680 93.588 C 50.386 93.436 49.997 92.722 49.997 92.722 C 49.997 92.722 49.981 93.228 49.848 93.381 C 49.719 93.531 49.235 93.620 49.235 93.620 C 49.235 93.620 48.790 93.502 48.663 93.363 C 48.471 93.152 48.392 92.450 48.392 92.450 C 48.392 92.450 47.958 92.903 47.746 93.066 C 47.427 93.311 46.596 93.756 46.596 93.756 C 46.596 93.756 46.380 92.599 46.351 92.097 C 46.268 90.645 46.596 87.255 46.596 87.254 M 23.250 86.075 C 23.250 86.075 27.532 88.087 27.533 88.087 C 27.533 88.087 26.543 89.772 26.048 90.446 C 25.369 91.371 23.559 93.351 23.559 93.351 C 23.559 93.351 23.097 93.402 22.958 93.285 C 22.814 93.164 22.785 92.680 22.785 92.680 C 22.785 92.680 22.527 92.422 22.527 92.422 C 22.527 92.422 21.753 93.557 21.753 93.557 C 21.753 93.557 21.363 93.643 21.236 93.554 C 20.976 93.371 20.979 92.525 20.979 92.525 C 20.979 92.525 20.256 92.885 19.922 92.968 C 19.718 93.019 19.225 93.041 19.224 93.041 C 19.224 93.041 19.303 92.334 19.429 92.061 C 19.658 91.569 20.277 91.115 20.585 90.667 C 21.058 89.979 21.512 88.953 21.932 88.231 C 22.314 87.576 23.250 86.075 23.250 86.075 Z"/>
		<path fill="#a6750c" fill-rule="evenodd" stroke="#000000" stroke-width="2" stroke-linecap="round" stroke-linejoin="round" d="M 37.769 37.652 C 37.769 37.651 37.146 33.622 37.032 31.880 C 36.969 30.920 37.044 29.634 36.998 28.673 C 36.942 27.532 36.826 26.131 36.692 24.850 C 36.630 24.249 36.544 23.689 36.499 23.178 C 36.472 22.865 36.456 22.446 36.417 22.134 C 36.332 21.460 36.322 20.626 36.235 19.793 C 36.150 18.976 35.982 18.163 35.569 17.589 C 35.395 17.348 35.054 17.050 34.758 17.019 C 34.332 16.976 33.782 17.346 33.473 17.643 C 32.459 18.616 32.097 20.621 31.586 21.930 C 31.364 22.500 31.130 23.155 30.899 23.832 C 30.570 24.795 30.248 25.799 29.983 26.638 C 29.836 27.104 29.649 27.729 29.522 28.201 C 29.441 28.503 29.345 28.820 29.249 29.158 C 28.968 30.139 28.659 31.233 28.423 32.290 C 28.271 32.974 28.149 33.647 28.087 34.260 C 27.953 35.595 28.193 38.731 28.193 38.731 C 28.194 38.731 29.262 39.386 29.781 39.468 C 32.136 39.841 37.768 37.652 37.769 37.652 Z"/>
		<path fill="none" stroke="#000000" stroke-width="0" stroke-linecap="round" stroke-linejoin="round" d="M 31.586 21.930 C 33.136 21.218 34.685 20.505 36.235 19.793 C 36.322 20.626 36.332 21.460 36.417 22.134 C 34.578 22.700 32.738 23.266 30.899 23.832 C 30.570 24.795 30.248 25.799 29.983 26.638 C 32.219 26.042 34.456 25.446 36.692 24.850 C 36.826 26.131 36.942 27.532 36.998 28.673 C 34.415 28.834 31.832 28.996 29.249 29.158 C 28.968 30.139 28.659 31.233 28.423 32.290 C 31.293 32.153 34.162 32.017 37.032 31.880 C 36.969 30.920 37.044 29.634 36.998 28.673 M 31.586 21.930 C 31.364 22.500 31.130 23.155 30.899 23.832 "/>
		<path fill="#9fc782" fill-rule="evenodd" stroke="#000000" stroke-width="2" stroke-linecap="round" stroke-linejoin="round" d="M 44.515 33.532 C 46.900 33.621 50.124 33.833 52.407 34.528 C 54.701 35.227 57.558 36.782 59.548 38.119 C 61.341 39.324 63.594 41.185 64.985 42.837 C 66.492 44.626 67.928 47.441 69.002 49.519 C 69.842 51.142 70.914 53.349 71.464 55.092 C 72.000 56.793 72.449 59.148 72.618 60.924 C 72.829 63.134 72.772 66.117 72.544 68.326 C 72.351 70.190 71.711 72.618 71.348 74.457 C 71.192 75.242 70.327 76.446 70.824 77.074 C 71.106 77.429 71.866 77.287 72.319 77.298 C 73.699 77.330 75.679 77.378 76.880 76.700 C 77.796 76.183 78.424 74.793 79.123 74.008 C 80.095 72.919 81.342 71.398 82.488 70.494 C 83.207 69.927 84.193 68.839 85.105 68.924 C 85.489 68.960 85.854 69.426 86.152 69.672 C 87.109 70.460 88.365 71.568 89.110 72.561 C 89.508 73.093 90.026 73.853 90.186 74.499 C 90.295 74.937 90.493 75.674 90.186 76.006 C 89.482 76.768 87.690 75.263 86.741 75.683 C 85.511 76.227 84.845 78.189 84.157 79.344 C 83.255 80.858 82.877 83.434 81.573 84.619 C 80.369 85.712 78.079 86.125 76.512 86.557 C 74.240 87.184 71.110 87.650 68.761 87.849 C 65.671 88.112 61.505 87.495 58.425 87.849 C 55.062 88.236 50.780 89.872 47.443 90.433 C 44.336 90.955 40.147 91.612 36.999 91.510 C 34.579 91.431 31.332 90.975 29.032 90.218 C 26.122 89.261 22.273 87.520 19.988 85.481 C 17.794 83.524 15.811 80.000 14.467 77.386 C 13.852 76.188 13.148 74.511 12.853 73.197 C 11.951 69.195 11.885 63.616 12.285 59.533 C 12.580 56.525 13.335 52.479 14.569 49.721 C 15.976 46.578 18.716 42.730 21.221 40.368 C 22.868 38.815 25.476 37.162 27.553 36.262 C 30.451 35.007 40.755 32.740 37.800 33.854 C 37.658 33.908 42.499 33.457 44.515 33.532 Z"/>
		<g id="Mouth">
			<clipPath id="cbeb7503-795b-4693-8540-9664d33eec9a">
				<path fill="#a85923" fill-rule="evenodd" stroke="none" d="M 30.422 82.399 C 30.485 82.482 30.743 82.528 30.743 82.528 C 30.743 82.528 31.814 82.540 32.244 82.403 C 32.744 82.244 33.392 81.892 33.745 81.503 C 34.058 81.157 34.375 80.566 34.420 80.102 C 34.466 79.631 34.291 78.964 34.020 78.576 C 33.783 78.236 33.294 77.887 32.894 77.776 C 32.439 77.649 31.779 77.781 31.324 77.909 C 31.055 77.984 30.484 78.308 30.484 78.308 C 30.484 78.308 30.602 77.482 30.618 77.125 C 30.642 76.593 30.749 75.851 30.568 75.349 C 30.349 74.742 29.726 74.072 29.217 73.673 C 28.837 73.375 28.247 72.921 27.767 72.973 C 27.132 73.042 26.599 73.903 26.141 74.349 C 25.901 74.582 25.391 75.174 25.391 75.174 C 25.390 75.174 24.906 73.805 24.590 73.273 C 24.306 72.796 23.879 72.162 23.439 71.823 C 23.030 71.506 22.381 71.134 21.864 71.122 C 21.348 71.110 20.625 71.381 20.263 71.747 C 20.040 71.973 19.895 72.408 19.850 72.723 C 19.714 73.673 20.404 75.873 20.405 75.874 C 20.404 75.873 19.249 74.423 18.610 73.965 C 18.279 73.727 17.789 73.311 17.386 73.373 C 16.967 73.438 16.542 73.965 16.361 74.349 C 15.995 75.122 16.124 76.365 16.311 77.200 C 16.441 77.783 16.680 78.647 17.161 79.001 C 17.353 79.142 17.756 79.332 17.937 79.176 C 18.096 79.040 17.943 78.684 17.912 78.476 C 17.810 77.802 17.330 76.978 17.262 76.300 C 17.201 75.693 17.437 74.274 17.437 74.274 C 17.437 74.274 18.522 74.859 18.862 75.249 C 19.155 75.586 19.184 76.302 19.537 76.575 C 19.776 76.760 20.216 76.881 20.513 76.825 C 20.804 76.770 21.176 76.511 21.313 76.250 C 21.485 75.924 21.365 75.388 21.313 75.024 C 21.244 74.528 20.879 73.923 20.838 73.423 C 20.830 73.326 20.837 73.192 20.863 73.098 C 20.938 72.826 21.064 72.404 21.313 72.273 C 21.663 72.090 22.261 72.296 22.614 72.473 C 22.951 72.641 23.308 73.033 23.514 73.348 C 23.751 73.710 23.819 74.314 24.015 74.699 C 24.182 75.028 24.431 75.463 24.690 75.725 C 24.876 75.912 25.151 76.227 25.416 76.225 C 25.811 76.222 26.147 75.663 26.441 75.400 C 26.900 74.990 27.892 73.949 27.892 73.949 C 27.892 73.949 28.569 74.423 28.817 74.674 C 29.096 74.956 29.505 75.345 29.617 75.725 C 29.793 76.318 29.403 77.157 29.392 77.775 C 29.388 78.024 29.352 78.370 29.442 78.601 C 29.549 78.874 29.785 79.273 30.068 79.352 C 30.499 79.471 31.007 78.872 31.444 78.776 C 31.849 78.687 32.825 78.723 32.825 78.723 C 32.825 78.723 33.177 79.335 33.244 79.627 C 33.295 79.846 33.354 80.168 33.269 80.377 C 33.082 80.836 32.451 81.236 31.994 81.427 C 31.735 81.535 31.345 81.507 31.068 81.552 C 30.872 81.585 30.545 81.525 30.418 81.678 C 30.280 81.844 30.292 82.226 30.422 82.399 Z"/>
			</clipPath>
			<path fill="#a85923" fill-rule="evenodd" stroke="none" d="M 30.422 82.399 C 30.485 82.482 30.743 82.528 30.743 82.528 C 30.743 82.528 31.814 82.540 32.244 82.403 C 32.744 82.244 33.392 81.892 33.745 81.503 C 34.058 81.157 34.375 80.566 34.420 80.102 C 34.466 79.631 34.291 78.964 34.020 78.576 C 33.783 78.236 33.294 77.887 32.894 77.776 C 32.439 77.649 31.779 77.781 31.324 77.909 C 31.055 77.984 30.484 78.308 30.484 78.308 C 30.484 78.308 30.602 77.482 30.618 77.125 C 30.642 76.593 30.749 75.851 30.568 75.349 C 30.349 74.742 29.726 74.072 29.217 73.673 C 28.837 73.375 28.247 72.921 27.767 72.973 C 27.132 73.042 26.599 73.903 26.141 74.349 C 25.901 74.582 25.391 75.174 25.391 75.174 C 25.390 75.174 24.906 73.805 24.590 73.273 C 24.306 72.796 23.879 72.162 23.439 71.823 C 23.030 71.506 22.381 71.134 21.864 71.122 C 21.348 71.110 20.625 71.381 20.263 71.747 C 20.040 71.973 19.895 72.408 19.850 72.723 C 19.714 73.673 20.404 75.873 20.405 75.874 C 20.404 75.873 19.249 74.423 18.610 73.965 C 18.279 73.727 17.789 73.311 17.386 73.373 C 16.967 73.438 16.542 73.965 16.361 74.349 C 15.995 75.122 16.124 76.365 16.311 77.200 C 16.441 77.783 16.680 78.647 17.161 79.001 C 17.353 79.142 17.756 79.332 17.937 79.176 C 18.096 79.040 17.943 78.684 17.912 78.476 C 17.810 77.802 17.330 76.978 17.262 76.300 C 17.201 75.693 17.437 74.274 17.437 74.274 C 17.437 74.274 18.522 74.859 18.862 75.249 C 19.155 75.586 19.184 76.302 19.537 76.575 C 19.776 76.760 20.216 76.881 20.513 76.825 C 20.804 76.770 21.176 76.511 21.313 76.250 C 21.485 75.924 21.365 75.388 21.313 75.024 C 21.244 74.528 20.879 73.923 20.838 73.423 C 20.830 73.326 20.837 73.192 20.863 73.098 C 20.938 72.826 21.064 72.404 21.313 72.273 C 21.663 72.090 22.261 72.296 22.614 72.473 C 22.951 72.641 23.308 73.033 23.514 73.348 C 23.751 73.710 23.819 74.314 24.015 74.699 C 24.182 75.028 24.431 75.463 24.690 75.725 C 24.876 75.912 25.151 76.227 25.416 76.225 C 25.811 76.222 26.147 75.663 26.441 75.400 C 26.900 74.990 27.892 73.949 27.892 73.949 C 27.892 73.949 28.569 74.423 28.817 74.674 C 29.096 74.956 29.505 75.345 29.617 75.725 C 29.793 76.318 29.403 77.157 29.392 77.775 C 29.388 78.024 29.352 78.370 29.442 78.601 C 29.549 78.874 29.785 79.273 30.068 79.352 C 30.499 79.471 31.007 78.872 31.444 78.776 C 31.849 78.687 32.825 78.723 32.825 78.723 C 32.825 78.723 33.177 79.335 33.244 79.627 C 33.295 79.846 33.354 80.168 33.269 80.377 C 33.082 80.836 32.451 81.236 31.994 81.427 C 31.735 81.535 31.345 81.507 31.068 81.552 C 30.872 81.585 30.545 81.525 30.418 81.678 C 30.280 81.844 30.292 82.226 30.422 82.399 Z"/>
			<path fill="none" stroke="#000000" stroke-width="1" stroke-linecap="round" stroke-linejoin="round" d="M 30.422 82.399 C 30.485 82.482 30.743 82.528 30.743 82.528 C 30.743 82.528 31.814 82.540 32.244 82.403 C 32.744 82.244 33.392 81.892 33.745 81.503 C 34.058 81.157 34.375 80.566 34.420 80.102 C 34.466 79.631 34.291 78.964 34.020 78.576 C 33.783 78.236 33.294 77.887 32.894 77.776 C 32.439 77.649 31.779 77.781 31.324 77.909 C 31.055 77.984 30.484 78.308 30.484 78.308 C 30.484 78.308 30.602 77.482 30.618 77.125 C 30.642 76.593 30.749 75.851 30.568 75.349 C 30.349 74.742 29.726 74.072 29.217 73.673 C 28.837 73.375 28.247 72.921 27.767 72.973 C 27.132 73.042 26.599 73.903 26.141 74.349 C 25.901 74.582 25.391 75.174 25.391 75.174 C 25.390 75.174 24.906 73.805 24.590 73.273 C 24.306 72.796 23.879 72.162 23.439 71.823 C 23.030 71.506 22.381 71.134 21.864 71.122 C 21.348 71.110 20.625 71.381 20.263 71.747 C 20.040 71.973 19.895 72.408 19.850 72.723 C 19.714 73.673 20.404 75.873 20.405 75.874 C 20.404 75.873 19.249 74.423 18.610 73.965 C 18.279 73.727 17.789 73.311 17.386 73.373 C 16.967 73.438 16.542 73.965 16.361 74.349 C 15.995 75.122 16.124 76.365 16.311 77.200 C 16.441 77.783 16.680 78.647 17.161 79.001 C 17.353 79.142 17.756 79.332 17.937 79.176 C 18.096 79.040 17.943 78.684 17.912 78.476 C 17.810 77.802 17.330 76.978 17.262 76.300 C 17.201 75.693 17.437 74.274 17.437 74.274 C 17.437 74.274 18.522 74.859 18.862 75.249 C 19.155 75.586 19.184 76.302 19.537 76.575 C 19.776 76.760 20.216 76.881 20.513 76.825 C 20.804 76.770 21.176 76.511 21.313 76.250 C 21.485 75.924 21.365 75.388 21.313 75.024 C 21.244 74.528 20.879 73.923 20.838 73.423 C 20.830 73.326 20.837 73.192 20.863 73.098 C 20.938 72.826 21.064 72.404 21.313 72.273 C 21.663 72.090 22.261 72.296 22.614 72.473 C 22.951 72.641 23.308 73.033 23.514 73.348 C 23.751 73.710 23.819 74.314 24.015 74.699 C 24.182 75.028 24.431 75.463 24.690 75.725 C 24.876 75.912 25.151 76.227 25.416 76.225 C 25.811 76.222 26.147 75.663 26.441 75.400 C 26.900 74.990 27.892 73.949 27.892 73.949 C 27.892 73.949 28.569 74.423 28.817 74.674 C 29.096 74.956 29.505 75.345 29.617 75.725 C 29.793 76.318 29.403 77.157 29.392 77.775 C 29.388 78.024 29.352 78.370 29.442 78.601 C 29.549 78.874 29.785 79.273 30.068 79.352 C 30.499 79.471 31.007 78.872 31.444 78.776 C 31.849 78.687 32.825 78.723 32.825 78.723 C 32.825 78.723 33.177 79.335 33.244 79.627 C 33.295 79.846 33.354 80.168 33.269 80.377 C 33.082 80.836 32.451 81.236 31.994 81.427 C 31.735 81.535 31.345 81.507 31.068 81.552 C 30.872 81.585 30.545 81.525 30.418 81.678 C 30.280 81.844 30.292 82.226 30.422 82.399 M 30.743 82.528 C 30.743 82.528 30.743 82.528 30.743 82.528 "/>
			<path fill="#f3d088" fill-rule="evenodd" stroke="none" d="M 28.722 80.273 C 28.114 79.090 26.350 77.938 25.024 77.825 C 23.865 77.726 22.543 78.931 21.452 79.337 C 20.884 79.549 20.075 79.700 19.532 79.969 C 19.130 80.168 18.380 80.363 18.294 80.803 C 18.000 82.298 20.799 83.462 22.210 84.037 C 24.495 84.968 29.832 86.862 30.423 84.467 C 30.609 83.713 29.065 83.181 28.794 82.453 C 28.574 81.859 29.021 80.855 28.722 80.273 Z" clip-path="url(#cbeb7503-795b-4693-8540-9664d33eec9a)"/>
		</g>
		<g id="EyePP">
			<clipPath id="1133551e-0245-416e-bbfa-78ad2ae65f92">
				<path fill="#d4b461" fill-rule="evenodd" stroke="none" d="M 45.837 82.049 C 43.404 81.990 41.583 81.522 40.266 80.377 C 38.440 78.790 37.018 75.902 37.121 72.951 C 37.217 70.197 38.790 67.707 40.489 66.220 C 41.833 65.043 43.591 64.137 46.081 64.178 C 49.295 64.231 51.626 65.462 53.148 67.193 C 54.308 68.513 54.864 70.644 54.878 72.788 C 54.889 74.476 54.300 76.015 53.636 77.228 C 52.901 78.573 51.541 80.250 50.218 81.025 C 49.053 81.707 47.719 82.094 45.837 82.049 Z"/>
			</clipPath>
			<path fill="#d4b461" fill-rule="evenodd" stroke="#000000" stroke-width="1" stroke-linecap="round" stroke-linejoin="round" d="M 45.837 82.049 C 43.404 81.990 41.583 81.522 40.266 80.377 C 38.440 78.790 37.018 75.902 37.121 72.951 C 37.217 70.197 38.790 67.707 40.489 66.220 C 41.833 65.043 43.591 64.137 46.081 64.178 C 49.295 64.231 51.626 65.462 53.148 67.193 C 54.308 68.513 54.864 70.644 54.878 72.788 C 54.889 74.476 54.300 76.015 53.636 77.228 C 52.901 78.573 51.541 80.250 50.218 81.025 C 49.053 81.707 47.719 82.094 45.837 82.049 Z"/>
			<path fill="#0e0e0e" fill-rule="evenodd" stroke="#000000" stroke-width="0" stroke-linecap="round" stroke-linejoin="round" d="M 44.859 78.557 C 43.244 78.292 42.208 77.551 41.433 76.670 C 40.903 76.068 40.521 75.180 40.387 74.211 C 40.212 72.955 40.437 71.724 40.874 70.781 C 41.100 70.293 41.590 69.728 42.016 69.399 C 43.118 68.551 44.369 67.583 46.308 67.647 C 48.363 67.714 49.806 68.661 50.715 69.821 C 51.372 70.659 51.686 71.967 51.582 73.262 C 51.499 74.293 50.977 75.172 50.500 75.873 C 49.994 76.617 49.140 77.544 48.339 77.955 C 47.397 78.438 46.318 78.796 44.859 78.557 Z" clip-path="url(#1133551e-0245-416e-bbfa-78ad2ae65f92)"/>
			<path fill="#ffffff" fill-rule="evenodd" stroke="none" d="M 45.882 73.104 C 45.882 73.134 45.686 73.180 45.283 73.180 C 45.686 73.028 45.882 73.074 45.882 73.104 M 44.685 73.104 C 44.685 73.074 44.881 73.028 45.283 73.028 C 44.881 73.180 44.685 73.134 44.685 73.104 M 43.403 72.345 C 43.403 72.451 43.331 72.612 43.065 72.612 C 42.799 72.612 42.727 72.451 42.727 72.345 C 42.727 72.238 42.799 72.078 43.065 72.078 C 43.331 72.078 43.403 72.238 43.403 72.345 M 44.742 70.082 C 44.742 70.201 44.626 70.348 44.257 70.348 C 43.888 70.348 43.772 70.201 43.772 70.082 C 43.772 69.963 43.888 69.816 44.257 69.816 C 44.626 69.816 44.742 69.963 44.742 70.082 M 43.544 70.814 C 43.544 71.295 43.160 71.678 42.689 71.678 C 42.218 71.678 41.834 71.295 41.834 70.814 C 41.834 70.332 42.218 69.949 42.689 69.949 C 43.160 69.949 43.544 70.332 43.544 70.814 Z" clip-path="url(#1133551e-0245-416e-bbfa-78ad2ae65f92)"/>
		</g>
		<path fill="#a6750c" fill-rule="evenodd" stroke="#000000" stroke-width="2" stroke-linecap="round" stroke-linejoin="round" d="M 53.055 41.791 C 53.928 42.311 55.188 42.877 56.180 43.097 C 56.818 43.238 57.728 43.397 58.356 43.215 C 58.641 43.132 59.190 42.680 59.190 42.679 C 59.190 42.679 59.670 39.372 59.873 37.955 C 60.073 36.553 60.320 34.843 60.551 33.209 C 60.665 32.401 60.778 31.597 60.876 30.874 C 61.015 29.864 61.202 28.727 61.406 27.553 C 61.665 26.067 61.877 24.517 61.988 23.207 C 62.019 22.848 62.047 22.365 62.044 22.007 C 62.040 21.604 62.102 21.037 61.942 20.667 C 61.829 20.407 61.596 20.020 61.320 19.957 C 60.657 19.803 59.852 20.633 59.368 21.110 C 58.536 21.929 57.968 23.448 57.433 24.485 C 57.284 24.772 57.111 25.168 56.971 25.460 C 56.674 26.080 56.300 26.773 55.941 27.491 C 55.397 28.581 54.842 29.712 54.394 30.655 C 54.189 31.085 53.942 31.612 53.729 32.099 C 53.356 32.948 53.004 33.758 52.710 34.513 C 52.074 36.154 50.935 40.105 50.935 40.105 C 50.935 40.105 52.357 41.376 53.055 41.791 Z"/>
		<path fill="#63300e" fill-rule="evenodd" stroke="#000000" stroke-width="2" stroke-linecap="round" stroke-linejoin="round" d="M 49.102 58.021 C 49.102 58.021 51.514 56.114 51.514 56.114 C 51.514 56.113 50.224 54.150 50.224 54.150 C 50.223 54.150 45.793 57.316 43.996 58.802 C 41.618 60.769 36.422 65.763 36.421 65.764 C 36.422 65.764 38.217 67.615 38.217 67.615 C 38.218 67.615 42.426 64.809 44.225 63.599 C 46.079 62.352 50.391 59.424 50.392 59.424 C 50.392 59.424 49.102 58.021 49.102 58.021 Z"/>
		<path fill="#7371c6" fill-rule="evenodd" stroke="none" d="M 37.135 88.593 C 37.135 88.593 42.481 89.642 42.481 89.642 C 42.481 89.642 42.142 90.821 41.872 91.266 C 41.462 91.941 40.608 92.608 40.079 93.195 C 39.355 93.996 38.524 95.194 37.710 95.902 C 37.523 96.065 37.047 96.382 37.033 96.376 C 37.006 96.363 37.473 94.853 37.473 94.853 C 37.473 94.853 35.375 95.868 35.375 95.868 C 35.375 95.868 35.815 94.582 35.815 94.582 C 35.815 94.582 34.157 95.327 34.157 95.327 C 34.157 95.327 35.136 93.447 35.510 92.620 C 36.047 91.433 37.134 88.593 37.135 88.593 M 62.717 85.310 C 62.717 85.310 58.849 84.435 58.849 84.435 C 58.849 84.435 58.569 84.811 58.462 84.981 C 58.231 85.348 57.964 85.862 57.771 86.250 C 57.308 87.178 56.671 88.416 56.362 89.406 C 56.106 90.225 55.820 92.216 55.820 92.216 C 55.820 92.216 55.848 92.620 55.848 92.620 C 55.848 92.620 56.748 92.813 57.131 92.756 C 57.326 92.727 57.743 92.518 57.743 92.518 C 57.743 92.518 57.980 93.567 57.980 93.567 C 57.980 93.567 58.472 93.497 58.666 93.414 C 58.935 93.298 59.469 92.857 59.469 92.856 C 59.469 92.857 60.179 94.210 60.179 94.210 C 60.179 94.210 61.367 92.520 61.686 91.702 C 62.153 90.502 62.304 88.760 62.488 87.485 C 62.582 86.836 62.717 85.311 62.717 85.310 Z"/>
		<path fill="none" stroke="#000000" stroke-width="1" stroke-linecap="round" stroke-linejoin="round" d="M 42.481 89.642 C 42.481 89.642 42.142 90.821 41.872 91.266 C 41.462 91.941 40.608 92.608 40.079 93.195 C 39.355 93.996 38.524 95.194 37.710 95.902 C 37.523 96.065 37.047 96.382 37.033 96.376 C 37.006 96.363 37.473 94.853 37.473 94.853 C 37.473 94.853 35.375 95.868 35.375 95.868 C 35.375 95.868 35.815 94.582 35.815 94.582 C 35.815 94.582 34.157 95.327 34.157 95.327 C 34.157 95.327 35.136 93.447 35.510 92.620 C 36.047 91.433 37.134 88.593 37.135 88.593 M 58.849 84.435 C 58.849 84.435 58.569 84.811 58.462 84.981 C 58.231 85.348 57.964 85.862 57.771 86.250 C 57.308 87.178 56.671 88.416 56.362 89.406 C 56.106 90.225 55.820 92.216 55.820 92.216 C 55.820 92.216 55.848 92.620 55.848 92.620 C 55.848 92.620 56.748 92.813 57.131 92.756 C 57.326 92.727 57.743 92.518 57.743 92.518 C 57.743 92.518 57.980 93.567 57.980 93.567 C 57.980 93.567 58.472 93.497 58.666 93.414 C 58.935 93.298 59.469 92.857 59.469 92.856 C 59.469 92.857 60.179 94.210 60.179 94.210 C 60.179 94.210 61.367 92.520 61.686 91.702 C 62.153 90.502 62.304 88.760 62.488 87.485 C 62.582 86.836 62.717 85.311 62.717 85.310 "/>
		<path fill="#000000" fill-rule="evenodd" stroke="#000000" stroke-width="0" stroke-linecap="round" stroke-linejoin="round" d="M 22.968 68.643 C 22.879 68.770 22.822 68.994 22.848 69.147 C 22.874 69.292 22.996 69.472 23.114 69.559 C 23.196 69.619 23.336 69.645 23.436 69.657 C 23.823 69.702 24.343 69.569 24.728 69.510 C 24.980 69.473 25.346 69.491 25.561 69.356 C 25.683 69.279 25.819 69.117 25.861 68.979 C 25.894 68.868 25.870 68.704 25.833 68.595 C 25.728 68.285 25.475 67.867 25.182 67.720 C 25.062 67.660 24.867 67.661 24.735 67.686 C 24.616 67.709 24.480 67.807 24.372 67.861 C 24.057 68.017 23.640 68.232 23.331 68.399 C 23.206 68.466 23.043 68.536 22.968 68.643 Z"/>
		<path fill="#000000" fill-rule="evenodd" stroke="#000000" stroke-width="0" stroke-linecap="round" stroke-linejoin="round" d="M 22.183 68.710 C 22.212 68.807 22.212 68.953 22.176 69.048 C 22.123 69.193 21.974 69.360 21.839 69.434 C 21.759 69.478 21.632 69.491 21.541 69.490 C 21.093 69.487 20.521 69.251 20.097 69.103 C 19.855 69.017 19.483 68.954 19.309 68.765 C 19.219 68.668 19.149 68.488 19.147 68.356 C 19.141 68.115 19.344 67.830 19.444 67.611 C 19.492 67.507 19.543 67.356 19.619 67.270 C 19.719 67.156 19.891 67.019 20.039 66.989 C 20.185 66.959 20.393 67.015 20.527 67.080 C 20.664 67.148 20.794 67.318 20.907 67.420 C 21.215 67.698 21.641 68.051 21.927 68.351 C 22.026 68.455 22.145 68.583 22.183 68.710 Z"/>
		<path fill="none" stroke="#000000" stroke-width="0" stroke-linecap="round" stroke-linejoin="round" d="M 54.394 30.655 C 54.189 31.085 53.942 31.612 53.729 32.099 C 55.777 34.051 57.825 36.003 59.873 37.955 C 60.073 36.553 60.320 34.843 60.551 33.209 C 58.498 32.358 56.446 31.506 54.394 30.655 C 54.842 29.712 55.397 28.581 55.941 27.491 C 57.586 28.619 59.231 29.746 60.876 30.874 C 61.015 29.864 61.202 28.727 61.406 27.553 C 60.082 26.530 58.757 25.507 57.433 24.485 C 57.968 23.448 58.536 21.929 59.368 21.110 C 60.241 21.809 61.115 22.508 61.988 23.207 C 61.877 24.517 61.665 26.067 61.406 27.553 M 60.551 33.209 C 60.665 32.401 60.778 31.597 60.876 30.874 "/>
	</g>
</svg>
